<svg width="21" height="14" viewBox="0 0 21 14" fill="none" xmlns="http://www.w3.org/2000/svg">
<path fill-rule="evenodd" clip-rule="evenodd" d="M0 6.78247C0 6.52554 0.102065 6.27914 0.283741 6.09746C0.465417 5.91579 0.711821 5.81372 0.96875 5.81372H17.1927L13.0329 1.65585C12.851 1.47394 12.7488 1.22723 12.7488 0.969974C12.7488 0.712721 12.851 0.466004 13.0329 0.284099C13.2148 0.102194 13.4615 0 13.7188 0C13.976 0 14.2227 0.102194 14.4046 0.284099L20.2171 6.0966C20.3073 6.18659 20.3789 6.29349 20.4278 6.41118C20.4766 6.52888 20.5017 6.65505 20.5017 6.78247C20.5017 6.9099 20.4766 7.03607 20.4278 7.15376C20.3789 7.27146 20.3073 7.37836 20.2171 7.46835L14.4046 13.2808C14.2227 13.4628 13.976 13.5649 13.7188 13.5649C13.4615 13.5649 13.2148 13.4628 13.0329 13.2808C12.851 13.0989 12.7488 12.8522 12.7488 12.595C12.7488 12.3377 12.851 12.091 13.0329 11.9091L17.1927 7.75122H0.96875C0.711821 7.75122 0.465417 7.64916 0.283741 7.46748C0.102065 7.28581 0 7.0394 0 6.78247Z" fill="#EA4646"/>
</svg>
