<svg width="27" height="19" viewBox="0 0 27 19" fill="none" xmlns="http://www.w3.org/2000/svg">
<path d="M25.8429 8.14293H1.15714C0.0925713 8.14293 0 8.74957 0 9.50007C0 10.2506 0.0925713 10.8572 1.15714 10.8572H25.8429C26.9074 10.8572 27 10.2506 27 9.50007C27 8.74957 26.9074 8.14293 25.8429 8.14293ZM25.8429 13.5715H1.15714C0.0925713 13.5715 0 14.1781 0 14.9286C0 15.6791 0.0925713 16.2858 1.15714 16.2858H25.8429C26.9074 16.2858 27 15.6791 27 14.9286C27 14.1781 26.9074 13.5715 25.8429 13.5715ZM1.15714 5.42864H25.8429C26.9074 5.42864 27 4.822 27 4.0715C27 3.321 26.9074 2.71436 25.8429 2.71436H1.15714C0.0925713 2.71436 0 3.321 0 4.0715C0 4.822 0.0925713 5.42864 1.15714 5.42864Z" fill="#272727"/>
</svg>
