<svg width="8" height="7" viewBox="0 0 8 7" fill="none" xmlns="http://www.w3.org/2000/svg">
<path d="M4 5C4.49728 5 4.97419 4.80246 5.32583 4.45083C5.67746 4.09919 5.875 3.62228 5.875 3.125C5.875 2.62772 5.67746 2.15081 5.32583 1.79917C4.97419 1.44754 4.49728 1.25 4 1.25C3.50272 1.25 3.02581 1.44754 2.67417 1.79917C2.32254 2.15081 2.125 2.62772 2.125 3.125C2.125 3.62228 2.32254 4.09919 2.67417 4.45083C3.02581 4.80246 3.50272 5 4 5ZM4 6.25C3.1712 6.25 2.37634 5.92076 1.79029 5.33471C1.20424 4.74866 0.875 3.9538 0.875 3.125C0.875 2.2962 1.20424 1.50134 1.79029 0.915291C2.37634 0.32924 3.1712 0 4 0C4.8288 0 5.62366 0.32924 6.20971 0.915291C6.79576 1.50134 7.125 2.2962 7.125 3.125C7.125 3.9538 6.79576 4.74866 6.20971 5.33471C5.62366 5.92076 4.8288 6.25 4 6.25Z" fill="#1A1A1A"/>
</svg>
