<svg width="100" height="38" viewBox="0 0 100 38" fill="none" xmlns="http://www.w3.org/2000/svg">
<path d="M47.7047 5.84323C47.1589 5.84323 46.6805 5.75229 46.2714 5.57173C45.8629 5.39052 45.5463 5.13211 45.321 4.7965C45.0938 4.4609 44.9818 4.05922 44.9818 3.59539C44.9818 3.12502 45.0945 2.72334 45.3184 2.38838C45.5431 2.05343 45.859 1.79633 46.2662 1.61643C46.6728 1.43717 47.1531 1.3482 47.7053 1.3482H47.8076V2.0482H47.5791C47.2094 2.0482 46.8877 2.10969 46.6125 2.22941C46.3374 2.35044 46.1238 2.52642 45.9716 2.75735C45.8202 2.98829 45.7438 3.26698 45.7438 3.59473C45.7438 3.92249 45.8195 4.20183 45.9716 4.43211C46.1238 4.66239 46.3374 4.83968 46.6125 4.96071C46.8877 5.08108 47.2094 5.14192 47.5791 5.14192H47.8076V5.84192H47.7047V5.84323ZM47.5033 6.68911V0.502319H48.2459V6.68911H47.5033ZM47.9423 5.84323V5.14323H48.1714C48.5404 5.14323 48.8628 5.08174 49.138 4.96202C49.4111 4.84099 49.6254 4.6637 49.7782 4.43342C49.9297 4.20249 50.0061 3.9238 50.0061 3.59604C50.0061 3.26829 49.9303 2.98894 49.7782 2.75866C49.6254 2.52773 49.4111 2.35175 49.138 2.23072C48.8628 2.11035 48.5404 2.04951 48.1714 2.04951H47.9423V1.34951H48.0432C48.5825 1.34951 49.0557 1.4411 49.4642 1.62428C49.8734 1.80876 50.1919 2.06848 50.4217 2.40343C50.6515 2.741 50.7661 3.1381 50.7661 3.59604C50.7661 4.05987 50.6528 4.46155 50.4282 4.79716C50.2022 5.13276 49.885 5.39052 49.4765 5.57239C49.0674 5.75295 48.5903 5.84388 48.0426 5.84388H47.9423V5.84323Z" fill="white"/>
<path d="M52.6145 6.5857V0.60498H56.133V1.30432H53.3512V3.14263H55.1859V3.84263H53.3512V5.8772H56.3188V6.5857H52.6145Z" fill="white"/>
<path d="M60.3819 6.68907C59.9332 6.68907 59.5532 6.60075 59.2392 6.42412C58.9266 6.24748 58.6741 6.01066 58.4831 5.71234C58.2902 5.41534 58.151 5.08235 58.0623 4.71534C57.9736 4.34768 57.929 3.97544 57.929 3.596C57.929 3.21983 57.9743 2.8489 58.0668 2.4832C58.1588 2.11685 58.3005 1.78451 58.4954 1.4862C58.6903 1.18723 58.9421 0.948442 59.2548 0.770498C59.5662 0.592555 59.9423 0.50293 60.3819 0.50293C60.7457 0.50293 61.0538 0.555266 61.3057 0.660592C61.5575 0.766573 61.7634 0.900685 61.9226 1.06424C62.0825 1.22779 62.2049 1.4005 62.2923 1.57909L61.6313 1.92124C61.5387 1.78124 61.4384 1.65694 61.327 1.54769C61.2176 1.43778 61.0881 1.35078 60.9354 1.28863C60.7832 1.22582 60.5981 1.19508 60.3819 1.19508C60.0659 1.19508 59.7999 1.26769 59.583 1.41227C59.3648 1.55816 59.1913 1.74853 59.0606 1.9847C58.9291 2.22152 58.834 2.48058 58.777 2.7632C58.7181 3.04451 58.6896 3.32189 58.6896 3.59534C58.6896 3.89235 58.7233 4.18216 58.7867 4.46674C58.8521 4.75197 58.9531 5.00842 59.0916 5.23805C59.2295 5.46833 59.4043 5.65019 59.618 5.78561C59.8303 5.92038 60.0847 5.98842 60.3812 5.98842C60.7075 5.98842 60.969 5.91842 61.1678 5.77711C61.3652 5.6358 61.5309 5.45263 61.6656 5.22823L62.3434 5.48468C62.2411 5.70646 62.1032 5.90991 61.9278 6.09178C61.7543 6.2743 61.5387 6.41888 61.2843 6.52748C61.0292 6.63477 60.7282 6.68907 60.3819 6.68907Z" fill="white"/>
<path d="M65.4731 6.5857V1.31414H63.8242V0.60498H67.8574V1.31414H66.2085V6.58635H65.4731V6.5857Z" fill="white"/>
<path d="M69.7395 6.58562V0.604902H70.4665V4.76563C70.4665 4.83694 70.4646 4.9246 70.46 5.02796C70.4555 5.13133 70.4497 5.2275 70.4419 5.31254C70.4814 5.23077 70.5241 5.14376 70.5701 5.05413C70.6161 4.96385 70.6588 4.88862 70.695 4.82516L73.3001 0.604248H74.0614V6.58562H73.3247V2.52695C73.3247 2.38368 73.3273 2.26396 73.3318 2.16387C73.335 2.06377 73.3415 1.98069 73.3499 1.91134C73.313 1.98265 73.2612 2.07293 73.1978 2.18284C73.133 2.29209 73.0793 2.38106 73.0372 2.45041L70.4574 6.58497H69.7395V6.58562Z" fill="white"/>
<path d="M76.3191 6.5857V0.60498H78.4159C78.8833 0.60498 79.2511 0.680214 79.5191 0.833297C79.7871 0.98638 79.9774 1.1833 80.09 1.42535C80.2027 1.66675 80.2584 1.92124 80.2584 2.18553C80.2584 2.45964 80.1833 2.70562 80.0305 2.92544C79.8784 3.14459 79.6641 3.31403 79.3876 3.4331C79.6168 3.50506 79.811 3.60973 79.9735 3.74646C80.136 3.88515 80.2577 4.04936 80.3432 4.24038C80.4273 4.4301 80.4694 4.64075 80.4694 4.86842C80.4694 5.07122 80.4377 5.27271 80.373 5.47617C80.3082 5.67832 80.2014 5.86346 80.0538 6.03093C79.9055 6.19972 79.7087 6.33449 79.4621 6.43458C79.2154 6.53598 78.9118 6.5857 78.5506 6.5857H76.3191ZM77.0539 3.14263H78.2716C78.6904 3.14263 79.007 3.05562 79.2161 2.8816C79.4271 2.70824 79.5307 2.47992 79.5307 2.19404C79.5307 2.04881 79.5035 1.90619 79.4485 1.76554C79.3941 1.62357 79.2892 1.50843 79.1339 1.41619C78.9798 1.32526 78.7539 1.28012 78.4567 1.28012H77.0539V3.14263ZM77.0539 5.90271H78.6348C78.9248 5.90271 79.1507 5.8543 79.3113 5.75682C79.4725 5.66 79.5844 5.53701 79.6479 5.38524C79.7113 5.23477 79.7424 5.07907 79.7424 4.92075C79.7424 4.72842 79.7049 4.55048 79.6285 4.38104C79.5527 4.21291 79.4148 4.07749 79.2154 3.97412C79.0173 3.8688 78.7332 3.81842 78.3642 3.81842H77.0539V5.90271Z" fill="white"/>
<path d="M81.8489 6.58562L83.9464 0.604248H84.6313L86.7288 6.58562H85.9759L85.4683 5.12544H83.1177L82.6193 6.58562H81.8489ZM83.3365 4.46666H85.2398L84.4772 2.25349C84.4584 2.19658 84.4364 2.1305 84.4125 2.05461C84.3892 1.97938 84.3659 1.9048 84.3426 1.83153C84.3206 1.76022 84.3037 1.69677 84.2921 1.64639C84.2785 1.69677 84.2597 1.76022 84.239 1.83153C84.2183 1.9048 84.1956 1.97938 84.1717 2.05461C84.1484 2.12985 84.1263 2.19658 84.1056 2.25349L83.3365 4.46666Z" fill="white"/>
<path d="M88.6101 6.68906L88.2722 6.08262C88.5143 6.00542 88.7098 5.91056 88.8568 5.79608C89.005 5.68159 89.1164 5.53309 89.1941 5.34795C89.2692 5.16281 89.3223 4.92533 89.3533 4.63748L89.7845 0.60498H90.5205L90.0648 4.78337C90.0046 5.33094 89.8615 5.7529 89.6324 6.05187C89.4045 6.35215 89.0627 6.56411 88.6101 6.68906ZM92.8297 6.5857V1.30432H89.9036L90.0389 0.60498H93.5652V6.58635H92.8297V6.5857Z" fill="white"/>
<path d="M95.823 6.5857V0.60498H96.5597V3.13413H98.0474C98.4073 3.13413 98.7135 3.18646 98.9621 3.28983C99.212 3.39385 99.412 3.53123 99.5655 3.70197C99.7169 3.87338 99.8283 4.05917 99.8982 4.26197C99.9662 4.46412 100 4.66234 100 4.86057C100 5.05356 99.9662 5.25178 99.8982 5.45458C99.8289 5.65608 99.7176 5.84253 99.5655 6.01327C99.4127 6.18467 99.212 6.32271 98.9621 6.42804C98.7135 6.53402 98.4073 6.5857 98.0474 6.5857H95.823ZM96.5591 5.89421H98.1141C98.419 5.89421 98.654 5.84318 98.8197 5.74047C98.9867 5.63841 99.1019 5.50757 99.166 5.34991C99.2321 5.19159 99.2638 5.02804 99.2638 4.86122C99.2638 4.69505 99.2314 4.53477 99.166 4.37711C99.1013 4.22141 98.9867 4.09057 98.8197 3.98852C98.654 3.88646 98.419 3.83609 98.1141 3.83609H96.5591V5.89421Z" fill="white"/>
<path d="M45.405 16.8418V10.8597H46.1417V13.7899L48.4496 10.8597H49.2783L47.6456 12.927L49.7606 16.8411H48.9073L47.1484 13.5511L46.1417 14.7987V16.8411H45.405V16.8418Z" fill="white"/>
<path d="M51.6074 16.8418V10.8598H52.3344V15.0205C52.3344 15.0918 52.3325 15.1795 52.3286 15.2835C52.3241 15.3869 52.3176 15.4824 52.3105 15.5668C52.3487 15.485 52.3927 15.3986 52.4386 15.309C52.4846 15.2187 52.5267 15.1428 52.5636 15.08L55.168 10.8591H55.9286V16.8412H55.1932V12.7818C55.1932 12.6386 55.1952 12.5182 55.199 12.4187C55.2036 12.3187 55.2094 12.2356 55.2191 12.1662C55.1809 12.2369 55.1311 12.3278 55.0657 12.4371C55.0009 12.547 54.9472 12.6366 54.9058 12.704L52.3267 16.8405H51.6074V16.8418Z" fill="white"/>
<path d="M59.4549 16.8418V11.5689H57.8066V10.8597H61.8404V11.5689H60.1909V16.8418H59.4549Z" fill="white"/>
<path d="M62.3816 16.8418L64.4784 10.8597H65.1627L67.2609 16.8418H66.508L66.0004 15.3803H63.6492L63.1507 16.8418H62.3816ZM63.8693 14.7222H65.7719L65.0106 12.5083C64.9912 12.4514 64.9698 12.3853 64.9446 12.3108C64.9219 12.2342 64.8979 12.1603 64.8753 12.087C64.8526 12.0151 64.8364 11.9529 64.8248 11.9025C64.8112 11.9529 64.7931 12.0151 64.773 12.087C64.7516 12.1596 64.7283 12.2342 64.705 12.3108C64.6811 12.3853 64.6597 12.4514 64.639 12.5083L63.8693 14.7222Z" fill="white"/>
<path d="M68.9863 16.8417V10.8597H69.7133V15.0204C69.7133 15.0918 69.712 15.1794 69.7075 15.2834C69.7036 15.3868 69.6971 15.4823 69.6894 15.5667C69.7276 15.4849 69.7716 15.3986 69.8176 15.3089C69.8635 15.2187 69.9056 15.1428 69.9419 15.08L72.5462 10.8591H73.3069V16.8411H72.5721V12.7818C72.5721 12.6385 72.5741 12.5181 72.578 12.4187C72.5825 12.3186 72.5883 12.2355 72.5967 12.1662C72.5598 12.2368 72.5087 12.3277 72.4453 12.437C72.3799 12.5469 72.3261 12.6365 72.2841 12.7039L69.7049 16.8404H68.9863V16.8417ZM71.1259 10.2788C70.7543 10.2788 70.4442 10.2153 70.1969 10.0878C69.9503 9.9615 69.7658 9.79337 69.6441 9.58206C69.5204 9.37206 69.4596 9.13916 69.4596 8.88599H70.1192C70.1192 9.04299 70.1633 9.17907 70.2519 9.29355C70.3419 9.40869 70.4617 9.49832 70.6138 9.56047C70.766 9.62393 70.9362 9.65467 71.1259 9.65467C71.3149 9.65467 71.4858 9.62393 71.6393 9.56047C71.7933 9.49832 71.9144 9.40869 72.005 9.29355C72.095 9.17907 72.141 9.04299 72.141 8.88599H72.8C72.8 9.13982 72.7379 9.37206 72.6142 9.58206C72.4899 9.79337 72.3041 9.9615 72.0568 10.0878C71.8076 10.2153 71.4975 10.2788 71.1259 10.2788Z" fill="white"/>
<path d="M77.764 16.943C77.316 16.943 76.936 16.8547 76.6227 16.6787C76.3094 16.5027 76.0582 16.2659 75.8653 15.9676C75.6737 15.6706 75.5332 15.3369 75.4445 14.9692C75.3564 14.6022 75.3118 14.23 75.3118 13.8499C75.3118 13.4737 75.3577 13.1022 75.4497 12.7371C75.5416 12.3708 75.684 12.0391 75.8776 11.7401C76.0731 11.4411 76.3249 11.203 76.6376 11.0244C76.9483 10.8471 77.3251 10.7568 77.764 10.7568C78.1285 10.7568 78.436 10.8098 78.6878 10.9158C78.9397 11.0205 79.1462 11.1552 79.3061 11.3188C79.464 11.4817 79.589 11.6551 79.6751 11.8337L79.0154 12.1758C78.9215 12.0351 78.8205 11.9115 78.7105 11.8016C78.6017 11.691 78.4697 11.6053 78.3182 11.5432C78.1654 11.4804 77.9809 11.449 77.764 11.449C77.4488 11.449 77.182 11.5216 76.9658 11.6662C76.7476 11.8121 76.5742 12.0024 76.4427 12.2386C76.3113 12.4748 76.2168 12.7338 76.1592 13.0165C76.1009 13.2984 76.0724 13.5758 76.0724 13.8486C76.0724 14.145 76.1048 14.4361 76.1689 14.7206C76.2343 15.0052 76.3359 15.263 76.4738 15.4913C76.6117 15.7222 76.7871 15.9048 77.0001 16.0389C77.2131 16.1743 77.4669 16.2423 77.7634 16.2423C78.0897 16.2423 78.3525 16.1723 78.5499 16.0317C78.748 15.8904 78.9131 15.7065 79.0484 15.4821L79.7256 15.7379C79.6246 15.9604 79.4854 16.1625 79.3113 16.345C79.1358 16.5282 78.9202 16.6734 78.6671 16.7814C78.4114 16.89 78.111 16.943 77.764 16.943Z" fill="white"/>
<path d="M81.5938 16.8418V10.8597H82.3311V13.7899L84.6396 10.8597H85.4676L83.8356 12.927L85.9506 16.8411H85.0954L83.3371 13.5511L82.3311 14.7987V16.8411H81.5938V16.8418Z" fill="white"/>
<path d="M89.8824 16.9429C89.4175 16.9429 89.0246 16.8533 88.7022 16.6728C88.3817 16.4909 88.1234 16.2508 87.9299 15.9505C87.735 15.6496 87.5932 15.3166 87.5045 14.9529C87.4158 14.5878 87.3718 14.2208 87.3718 13.8492C87.3718 13.4796 87.4158 13.1113 87.5045 12.7469C87.5939 12.3825 87.735 12.0502 87.9299 11.7492C88.1241 11.4489 88.3817 11.2089 88.7022 11.027C89.0246 10.8471 89.4175 10.7555 89.8824 10.7555C90.351 10.7555 90.7453 10.8471 91.0664 11.027C91.3881 11.2082 91.6464 11.4489 91.8407 11.7492C92.0342 12.0502 92.176 12.3831 92.2621 12.7469C92.3501 13.1113 92.3935 13.4789 92.3935 13.8492C92.3935 14.2201 92.3501 14.5878 92.2621 14.9529C92.1753 15.3172 92.0336 15.6496 91.8407 15.9505C91.6458 16.2508 91.3881 16.4902 91.0664 16.6728C90.7453 16.854 90.3504 16.9429 89.8824 16.9429ZM89.8824 16.2429C90.2093 16.2429 90.4844 16.1703 90.7071 16.0251C90.9298 15.8799 91.1091 15.6882 91.2457 15.4507C91.3823 15.2126 91.4807 14.9535 91.5422 14.6729C91.6031 14.3922 91.6328 14.1174 91.6328 13.8499C91.6328 13.5568 91.6031 13.2683 91.5422 12.985C91.4807 12.7017 91.3823 12.4446 91.2457 12.2124C91.1091 11.9795 90.9305 11.7944 90.7071 11.6557C90.4838 11.5176 90.2086 11.4496 89.8824 11.4496C89.5574 11.4496 89.2848 11.5222 89.0615 11.6668C88.8388 11.8127 88.6595 12.0037 88.5229 12.2412C88.3869 12.4787 88.2866 12.739 88.2244 13.021C88.1623 13.303 88.1305 13.5797 88.1305 13.8499C88.1305 14.143 88.1623 14.4321 88.2244 14.7154C88.2866 14.9986 88.3869 15.2558 88.5229 15.4867C88.6595 15.7183 88.8388 15.9014 89.0615 16.0388C89.2848 16.1743 89.5574 16.2429 89.8824 16.2429Z" fill="white"/>
<path d="M94.3938 16.8417V10.8597H95.1208V15.0204C95.1208 15.0918 95.1189 15.1794 95.1143 15.2834C95.1104 15.3868 95.1046 15.4823 95.0962 15.5667C95.135 15.4849 95.1784 15.3986 95.225 15.3089C95.271 15.2187 95.3131 15.1428 95.3493 15.08L97.9544 10.8591H98.7137V16.8411H97.979V12.7818C97.979 12.6385 97.9815 12.5181 97.9861 12.4187C97.99 12.3186 97.9958 12.2355 98.0042 12.1662C97.9673 12.2368 97.9168 12.3277 97.8527 12.437C97.7867 12.5469 97.7336 12.6365 97.6915 12.7039L95.1117 16.8404H94.3938V16.8417ZM96.5334 10.2788C96.1624 10.2788 95.8517 10.2153 95.6044 10.0878C95.3577 9.9615 95.1732 9.79337 95.0515 9.58206C94.9285 9.37206 94.8677 9.13916 94.8677 8.88599H95.5274C95.5274 9.04299 95.572 9.17907 95.6607 9.29355C95.7494 9.40869 95.8698 9.49832 96.0226 9.56047C96.1741 9.62393 96.345 9.65467 96.534 9.65467C96.7224 9.65467 96.894 9.62393 97.0474 9.56047C97.2015 9.49832 97.3232 9.40869 97.4132 9.29355C97.5031 9.17907 97.5497 9.04299 97.5497 8.88599H98.2081C98.2081 9.13982 98.1453 9.37206 98.0217 9.58206C97.898 9.79337 97.7116 9.9615 97.4643 10.0878C97.2151 10.2153 96.9043 10.2788 96.5334 10.2788Z" fill="white"/>
<path d="M44.957 27.0963L46.9017 22.9866L47.3925 23.5747L45.7345 27.0963H44.957ZM48.5169 25.6943L45.1266 21.1143H45.9883L48.5169 24.575V25.6943ZM48.214 27.0963V21.1143H48.9487V27.0963H48.214ZM48.6438 25.6943V24.575L51.1731 21.1143H52.0348L48.6438 25.6943ZM51.4262 27.0963L49.7683 23.5747L50.259 22.9866L52.2044 27.0963H51.4262Z" fill="white"/>
<path d="M54.0344 27.0963V21.1143H54.7621V25.2757C54.7621 25.347 54.7601 25.4333 54.7562 25.538C54.7517 25.6414 54.7459 25.7376 54.7368 25.8219C54.7763 25.7402 54.8197 25.6538 54.8656 25.5642C54.9116 25.4739 54.9537 25.3987 54.9899 25.3346L57.5943 21.1136H58.3563V27.0957H57.6202V23.037C57.6202 22.8937 57.6222 22.7734 57.6261 22.6733C57.6306 22.5732 57.6364 22.4901 57.6448 22.4201C57.6073 22.4907 57.5568 22.5836 57.4933 22.6929C57.428 22.8021 57.3749 22.8905 57.3315 22.9598L54.753 27.095H54.0344V27.0963Z" fill="white"/>
<path d="M60.614 27.0963V21.1143H62.7122C63.1796 21.1143 63.5473 21.1901 63.8146 21.3426C64.0827 21.495 64.273 21.6926 64.3863 21.9346C64.4983 22.1767 64.5552 22.4299 64.5552 22.6955C64.5552 22.9683 64.4795 23.2149 64.3261 23.4334C64.1739 23.6539 63.9597 23.8227 63.6839 23.943C63.9124 24.0137 64.1079 24.1184 64.2691 24.2564C64.4322 24.3951 64.5546 24.5593 64.6387 24.7497C64.7236 24.9407 64.7656 25.15 64.7656 25.3777C64.7656 25.5805 64.7339 25.782 64.6685 25.9848C64.6031 26.1876 64.497 26.3727 64.35 26.5409C64.2011 26.709 64.0043 26.8431 63.7583 26.9445C63.511 27.0446 63.2074 27.0956 62.8468 27.0956H60.614V27.0963ZM61.3507 23.6513H62.5684C62.9873 23.6513 63.3032 23.5656 63.513 23.3915C63.724 23.2182 63.8276 22.9885 63.8276 22.7033C63.8276 22.5581 63.7998 22.4155 63.7454 22.2748C63.691 22.1335 63.5848 22.0171 63.4301 21.9268C63.2754 21.8352 63.0507 21.79 62.7536 21.79H61.3507V23.6513ZM61.3507 26.4126H62.931C63.2216 26.4126 63.4469 26.3642 63.6075 26.2668C63.7687 26.1699 63.88 26.0463 63.9435 25.8952C64.0076 25.7454 64.0393 25.5897 64.0393 25.43C64.0393 25.2397 64.0011 25.0598 63.924 24.8916C63.8489 24.7235 63.7111 24.5881 63.5123 24.4827C63.3136 24.3794 63.0294 24.3277 62.661 24.3277H61.3507V26.4126Z" fill="white"/>
<path d="M69.0327 27.1984C68.5673 27.1984 68.1743 27.1082 67.8539 26.9276C67.5321 26.747 67.2738 26.5056 67.0803 26.2054C66.8847 25.9038 66.7443 25.5727 66.6549 25.207C66.5662 24.8426 66.5222 24.4756 66.5222 24.1047C66.5222 23.7351 66.5662 23.3674 66.6549 23.0024C66.7449 22.6373 66.8847 22.3063 67.0803 22.0054C67.2745 21.7038 67.5321 21.4637 67.8539 21.2831C68.1743 21.1019 68.5679 21.011 69.0327 21.011C69.5014 21.011 69.8957 21.1019 70.2174 21.2831C70.5379 21.463 70.7968 21.7038 70.991 22.0054C71.1846 22.3063 71.3264 22.638 71.4138 23.0024C71.5005 23.3674 71.5446 23.7344 71.5446 24.1047C71.5446 24.475 71.5005 24.8426 71.4138 25.207C71.3257 25.5734 71.1846 25.9038 70.991 26.2054C70.7962 26.5056 70.5379 26.7464 70.2174 26.9276C69.8957 27.1088 69.5008 27.1984 69.0327 27.1984ZM69.0327 26.4984C69.3603 26.4984 69.6348 26.4258 69.8575 26.2806C70.0802 26.1354 70.2589 25.9437 70.3968 25.7055C70.5327 25.4674 70.6324 25.2077 70.6926 24.9284C70.7528 24.647 70.7839 24.3729 70.7839 24.1054C70.7839 23.8116 70.7528 23.5231 70.6926 23.2412C70.6324 22.9572 70.5327 22.6995 70.3968 22.4659C70.2589 22.2343 70.0802 22.0492 69.8575 21.9118C69.6341 21.7731 69.3597 21.7044 69.0327 21.7044C68.7091 21.7044 68.4352 21.7764 68.2125 21.9216C67.9898 22.0675 67.8105 22.2592 67.6732 22.496C67.5367 22.7342 67.4376 22.9945 67.3748 23.2758C67.314 23.5578 67.2822 23.8345 67.2822 24.1054C67.2822 24.3991 67.314 24.6876 67.3748 24.9709C67.4376 25.2541 67.5367 25.5112 67.6732 25.7422C67.8105 25.9738 67.9898 26.1563 68.2125 26.2937C68.4352 26.4291 68.7091 26.4984 69.0327 26.4984Z" fill="white"/>
<path d="M73.5442 27.0963V21.1143H77.7211V27.0963H76.9941V21.8319H74.2803V27.0963H73.5442Z" fill="white"/>
<path d="M79.9792 27.0962V21.1142H80.7063V25.2756C80.7063 25.3469 80.705 25.4332 80.7011 25.5379C80.6965 25.6413 80.6901 25.7374 80.6823 25.8218C80.7211 25.74 80.7639 25.6537 80.8105 25.5641C80.8564 25.4738 80.8985 25.3986 80.9354 25.3344L83.5392 21.1135H84.3011V27.0956H83.5651V23.0369C83.5651 22.8936 83.5664 22.7732 83.5715 22.6731C83.5761 22.5731 83.5825 22.49 83.591 22.42C83.5528 22.4906 83.5023 22.5835 83.4375 22.6928C83.3734 22.802 83.3197 22.8903 83.2776 22.9597L80.6991 27.0949H79.9792V27.0962Z" fill="white"/>
<path d="M88.7582 27.1983C88.3108 27.1983 87.9302 27.1094 87.6168 26.934C87.3042 26.7574 87.0517 26.5199 86.8594 26.2216C86.6684 25.9259 86.5273 25.5923 86.4393 25.2253C86.3499 24.857 86.3059 24.4841 86.3059 24.1053C86.3059 23.7298 86.3512 23.3575 86.4432 22.9931C86.5357 22.6261 86.6775 22.2938 86.873 21.9942C87.0666 21.6972 87.3204 21.4577 87.6324 21.2791C87.9431 21.1018 88.3186 21.0122 88.7582 21.0122C89.122 21.0122 89.4301 21.0652 89.6826 21.1699C89.9351 21.2759 90.1403 21.4106 90.2996 21.5742C90.4588 21.7377 90.5831 21.9104 90.6692 22.0884L90.0095 22.4299C89.9163 22.2912 89.8153 22.1662 89.7053 22.0563C89.5959 21.9464 89.4638 21.8601 89.3123 21.7979C89.1602 21.7351 88.975 21.7037 88.7582 21.7037C88.4423 21.7037 88.1762 21.7757 87.96 21.9209C87.7424 22.0668 87.5689 22.2585 87.4369 22.4933C87.3061 22.7301 87.2109 22.9892 87.1533 23.2725C87.0944 23.5538 87.0659 23.8305 87.0659 24.104C87.0659 24.4003 87.099 24.6901 87.1637 24.9767C87.2297 25.2613 87.3301 25.5177 87.4679 25.7467C87.6071 25.9776 87.7813 26.1588 87.9949 26.2936C88.2073 26.429 88.4617 26.4977 88.7575 26.4977C89.0851 26.4977 89.3466 26.427 89.5447 26.287C89.7415 26.1451 89.9092 25.9626 90.0439 25.7375L90.7204 25.994C90.6194 26.2151 90.4802 26.4179 90.306 26.6011C90.1306 26.7823 89.9157 26.9275 89.6613 27.0361C89.4055 27.144 89.1052 27.1983 88.7582 27.1983Z" fill="white"/>
<path d="M92.5886 27.0962V21.1142H93.3156V25.2756C93.3156 25.3469 93.3137 25.4332 93.3092 25.5379C93.3053 25.6413 93.2981 25.7374 93.291 25.8218C93.3305 25.74 93.3726 25.6537 93.4198 25.5641C93.4658 25.4738 93.5072 25.3986 93.5448 25.3344L96.1479 21.1135H96.9092V27.0956H96.1731V23.0369C96.1731 22.8936 96.1751 22.7732 96.1796 22.6731C96.1835 22.5731 96.1913 22.49 96.1997 22.42C96.1621 22.4906 96.111 22.5835 96.0469 22.6928C95.9828 22.802 95.9291 22.8903 95.8864 22.9597L93.3072 27.0949H92.5886V27.0962Z" fill="white"/>
<path d="M45.405 37.3524V31.3698H48.9488V32.0691H46.1417V37.3518H45.405V37.3524Z" fill="white"/>
<path d="M51.1387 37.4534L50.7581 36.83C51.0228 36.8077 51.2384 36.7789 51.4061 36.7462C51.5718 36.7135 51.7078 36.6631 51.8165 36.5951C51.9227 36.5264 52.0185 36.4283 52.1033 36.3007C52.1875 36.1718 52.2781 36.0044 52.3733 35.7963L50.3269 31.37H51.1562L52.6186 34.6678C52.6439 34.7221 52.6652 34.7738 52.684 34.8242C52.7034 34.8732 52.7228 34.9269 52.7423 34.9845C52.7617 34.9269 52.7824 34.8732 52.8038 34.8242C52.8245 34.7738 52.8491 34.7182 52.8769 34.6554L54.3523 31.37H55.1731L53.042 35.9749C52.9132 36.2517 52.7882 36.48 52.6704 36.6618C52.5513 36.8417 52.425 36.9863 52.2872 37.093C52.1506 37.1996 51.99 37.2801 51.8055 37.3344C51.6204 37.3873 51.399 37.4286 51.1387 37.4534Z" fill="white"/>
<path d="M56.9688 37.3524V31.3698H57.7048V33.8982H60.4963V31.3698H61.2311V37.3524H60.4963V34.6002H57.7048V37.3524H56.9688Z" fill="white"/>
<path d="M63.4895 37.3521V31.3694H64.2262V33.8979H65.7145C66.0745 33.8979 66.3807 33.9502 66.6293 34.0542C66.8785 34.1582 67.0792 34.295 67.232 34.4664C67.3848 34.6378 67.4955 34.8236 67.5641 35.0264C67.6327 35.2279 67.6683 35.4274 67.6683 35.625C67.6683 35.818 67.6327 36.0162 67.5641 36.2183C67.4961 36.4205 67.3848 36.6076 67.232 36.777C67.0798 36.9478 66.8785 37.0871 66.6293 37.1918C66.3807 37.2971 66.0745 37.3508 65.7145 37.3508H63.4895V37.3521ZM63.6598 32.0694V31.37H67.076V32.0694H63.6598ZM64.2262 36.6586H65.7812C66.0861 36.6586 66.3218 36.6082 66.4875 36.5049C66.6539 36.4028 66.7704 36.2733 66.8338 36.1143C66.8986 35.9567 66.931 35.7924 66.931 35.6256C66.931 35.4601 66.8979 35.2992 66.8338 35.1422C66.7698 34.9858 66.6539 34.8556 66.4875 34.7536C66.3218 34.6509 66.0861 34.5998 65.7812 34.5998H64.2262V36.6586Z" fill="white"/>
<path d="M69.616 37.3524V31.3697H70.3436V35.5311C70.3436 35.6011 70.3417 35.6894 70.3365 35.7934C70.3326 35.8968 70.3255 35.9929 70.3177 36.0773C70.3572 35.9955 70.4006 35.9085 70.4465 35.8182C70.4925 35.7293 70.5339 35.6534 70.5708 35.5893L73.1759 31.369H73.9365V37.3517H73.2011V33.2924C73.2011 33.1491 73.2031 33.0294 73.2076 32.9286C73.2108 32.8292 73.218 32.7461 73.2264 32.6761C73.1895 32.7474 73.1383 32.8384 73.0736 32.9483C73.0089 33.0575 72.9558 33.1465 72.9137 33.2152L70.3346 37.3517H69.616V37.3524Z" fill="white"/>
<path d="M15.3072 28.3387C15.1991 28.6763 15.0923 29.0237 14.9841 29.3815C14.8676 29.006 14.7537 28.656 14.6436 28.3322L5.26122 0H0L12.8653 38H16.9554L29.7948 0H24.531L15.3072 28.3387Z" fill="white"/>
<path d="M37.8881 0H32.9629V38H37.8881V0Z" fill="white"/>
</svg>
