<svg width="150" height="64" viewBox="0 0 150 64" fill="none" xmlns="http://www.w3.org/2000/svg">
<rect width="150" height="63.5037" fill="white"/>
<path d="M150 6.57487V2.88641H147.123V0H143.448V2.88641H141.369V0H8.63084V2.88641H6.55307V0H2.87683V2.88641H0V6.57487H2.87683V8.65956H0V54.8451H2.87683V56.9294H0V60.6176H2.87683V63.504H6.55307V60.6176H8.63084V63.504H141.369V60.6176H143.448V63.504H147.123V60.6176H150V56.9294H147.123V54.8451H150V8.65956H147.123V6.57487H150ZM147.123 3.68881H149.201V5.77315H147.123V3.68881ZM2.87683 59.8155H0.799401V57.7308H2.87683V59.8155ZM2.87683 54.0434H0.799401V9.46128H2.87683V54.0434ZM2.87683 5.77315H0.799401V3.68881H2.87683V5.77315ZM141.369 3.68881H143.448V5.77315H141.369V3.68881ZM9.42923 0.801386H140.57V2.88641H9.42923V0.801386ZM6.55307 3.68881H8.63084V5.77315H6.55307V3.68881ZM3.67624 0.801386H5.75367V2.88641H3.67624V0.801386ZM3.67624 3.68881H5.75367V5.77315H3.67624V3.68881ZM3.67624 6.57487H5.75367V8.65956H3.67624V6.57487ZM5.75367 62.7026H3.67624V60.6172H5.75367V62.7026ZM5.75367 59.8155H3.67624V57.7308H5.75367V59.8155ZM5.75367 56.9291H3.67624V54.8448H5.75367V56.9291ZM8.63084 59.8155H6.55307V57.7308H8.63084V59.8155V59.8155ZM140.57 62.7026H9.42923V60.6172H140.57V62.7026ZM143.448 59.8155H141.369V57.7308H143.448V59.8155ZM146.324 62.7026H144.246V60.6172H146.324V62.7026ZM146.324 59.8155H144.246V57.7308H146.324V59.8155ZM146.324 56.9291H144.246V54.8448H146.324V56.9291ZM146.324 54.0434H143.448V56.9291H140.57V59.8155H9.42923V56.9291H6.55307V54.0434H3.67624V9.46128H6.55307V6.57487H9.42923V3.68881H140.57V6.57487H143.448V9.46128H146.324V54.0434ZM146.324 8.65956H144.246V6.57487H146.324V8.65956ZM146.324 5.77315H144.246V3.68881H146.324V5.77315ZM146.324 2.88641H144.246V0.801386H146.324V2.88641ZM149.201 57.7308V59.8155H147.123V57.7308H149.201ZM149.201 9.46128V54.0437H147.123V9.46128H149.201Z" fill="#EA4646"/>
<path d="M17.3017 21.5303C17.1148 22.0447 16.8052 22.4833 16.3713 22.8467C15.5039 23.5728 14.2316 24.0189 12.554 24.184C12.5076 24.1915 12.4844 24.1591 12.4844 24.0871C12.4844 24.0517 12.4965 24.0314 12.5214 24.0277C14.0667 23.6859 15.1882 23.1865 15.8873 22.5286C16.2064 22.2297 16.4447 21.8684 16.6022 21.4439H13.4463C13.1848 21.4439 12.9199 21.4621 12.65 21.4979L12.5433 21.1041C12.823 21.147 13.1209 21.169 13.4352 21.169H16.6941C16.7375 20.993 16.7655 20.8556 16.7809 20.759C16.8089 20.5935 16.8237 20.3831 16.8237 20.1278C17.3326 20.1997 17.6426 20.2534 17.7534 20.2896C17.8611 20.3217 17.9149 20.3723 17.9149 20.4405C17.9149 20.5337 17.782 20.6219 17.5164 20.7046C17.4952 20.8701 17.4625 21.0244 17.4198 21.1686H20.7692C21.0991 20.7945 21.2892 20.6077 21.3397 20.6077C21.3966 20.6077 21.6009 20.7553 21.952 21.0498C22.1206 21.1832 22.2048 21.2821 22.2048 21.3466C22.2048 21.4115 22.1583 21.4435 22.0647 21.4435H17.5326C18.0129 22.0409 18.6211 22.4935 19.3552 22.8035C20.2014 23.1557 21.2031 23.3371 22.3616 23.3479C22.3899 23.3479 22.4044 23.3604 22.4044 23.385C22.4044 23.4144 22.3899 23.434 22.3616 23.4448C22.2108 23.4951 22.0994 23.5583 22.0284 23.6336C21.9601 23.7096 21.8954 23.8261 21.8345 23.9845C21.7951 24.0743 21.7325 24.1192 21.6464 24.1192C21.5531 24.1192 21.3848 24.0939 21.1408 24.0436C20.2842 23.8528 19.5938 23.5941 19.0708 23.2665C18.3357 22.8069 17.7466 22.228 17.3017 21.5303ZM15.5379 15.3864V15.2084C15.5379 14.7738 15.5201 14.4209 15.4841 14.1514C15.9681 14.2013 16.2777 14.2463 16.4147 14.2858C16.5187 14.3216 16.5709 14.3726 16.5709 14.4367C16.5709 14.5195 16.447 14.6039 16.1997 14.69V15.3864H18.3555C18.3555 14.8396 18.337 14.428 18.3017 14.1514C18.7857 14.2084 19.0903 14.2557 19.2158 14.2912C19.3232 14.3236 19.3771 14.3726 19.3771 14.4371C19.3771 14.5131 19.2603 14.5971 19.0277 14.6904V15.3867H20.8338C21.1563 15.0058 21.3502 14.815 21.4148 14.815C21.472 14.815 21.6814 14.9622 22.0439 15.2574C22.2192 15.3975 22.3074 15.5005 22.3074 15.5647C22.3074 15.6295 22.2569 15.6616 22.1566 15.6616H19.0277C19.0311 15.7808 19.0364 15.9118 19.0438 16.0557C19.0475 16.1459 19.0492 16.1996 19.0492 16.2178C19.0492 16.4154 18.9095 16.514 18.6302 16.514C18.4289 16.514 18.3286 16.4333 18.3286 16.2712C18.3286 16.2675 18.3326 16.203 18.3397 16.0773C18.3468 15.9476 18.3518 15.8095 18.3559 15.6616H16.2C16.2037 15.7771 16.2071 15.9078 16.2104 16.0557C16.2141 16.1459 16.2161 16.1996 16.2161 16.2178C16.2161 16.4154 16.0724 16.514 15.7863 16.514C15.6032 16.514 15.512 16.4296 15.512 16.2607C15.512 16.2462 15.5157 16.1797 15.5224 16.0611C15.5295 15.9314 15.5356 15.7991 15.5386 15.6613H13.3878C13.1444 15.6613 12.9024 15.6798 12.6621 15.7153L12.5551 15.3111C12.8634 15.3614 13.1407 15.3867 13.3881 15.3867H15.5379V15.3864ZM19.7857 19.9718H14.7856V20.1494C14.7856 20.3399 14.6456 20.4358 14.3662 20.4358C14.1764 20.4358 14.0812 20.3581 14.0812 20.2035L14.1239 18.2724C14.1239 17.4629 14.1027 16.8625 14.06 16.4704C14.3107 16.5636 14.5817 16.7007 14.8721 16.8804H19.6999C19.9328 16.6288 20.0708 16.5028 20.1135 16.5028C20.1711 16.5028 20.3212 16.6109 20.5656 16.8264C20.6908 16.9307 20.7537 17.0155 20.7537 17.08C20.7537 17.1482 20.6551 17.2475 20.4582 17.3768V18.1644L20.4905 20.1383C20.4905 20.3365 20.3542 20.4358 20.0812 20.4358C19.8843 20.4358 19.786 20.3548 19.786 20.1923V19.9718H19.7857ZM19.7857 18.24V17.1556H14.7856V18.24H19.7857V18.24ZM19.7857 19.6962V18.5146H14.7856V19.6962H19.7857Z" fill="#EA4646" stroke="#EA4646" stroke-width="0.5" stroke-miterlimit="10"/>
<path d="M24.1916 24.1146C24.1842 24.1216 24.1771 24.125 24.17 24.125C24.1094 24.125 24.0781 24.0906 24.0781 24.0227C24.0781 24.0078 24.0842 23.9953 24.0953 23.9849C24.6039 23.5641 25.0451 22.9927 25.4178 22.2696C25.5719 21.9745 25.6631 21.7391 25.6914 21.5628C26.2902 21.7965 26.5894 21.9586 26.5894 22.0484C26.5894 22.1599 26.4555 22.2193 26.1865 22.2261C25.6338 23.0535 24.9694 23.6826 24.1916 24.1146ZM25.3094 15.996V15.8879C25.3094 15.1906 25.2915 14.6634 25.2559 14.3071C25.7116 14.3504 26.0085 14.3976 26.1482 14.4473C26.2451 14.4797 26.2932 14.5287 26.2932 14.5932C26.2932 14.6796 26.1754 14.7711 25.9385 14.8684V15.996H27.788V15.9204C27.788 15.1939 27.7702 14.656 27.7342 14.3071C28.4265 14.3723 28.7719 14.4635 28.7719 14.5824C28.7719 14.6793 28.6537 14.7711 28.4171 14.8569V15.9957H28.713C28.928 15.7076 29.0677 15.5637 29.1324 15.5637C29.1788 15.5637 29.3404 15.683 29.6157 15.9204C29.7345 16.0173 29.7934 16.1017 29.7934 16.1736C29.7934 16.2378 29.745 16.2706 29.6477 16.2706H28.4171V20.8776H28.6588C28.8813 20.5831 29.0209 20.4355 29.0785 20.4355C29.1425 20.4355 29.3003 20.5541 29.5514 20.7915C29.6702 20.9067 29.7288 20.9914 29.7288 21.0448C29.7288 21.1167 29.6803 21.1528 29.5834 21.1528H24.8365C24.6392 21.1528 24.4258 21.1707 24.1966 21.2065L24.1 20.802C24.3656 20.8523 24.6076 20.8776 24.8257 20.8776H25.3097V16.2709H24.9122C24.7681 16.2709 24.5605 16.2922 24.2882 16.3357L24.1754 15.9207C24.4447 15.971 24.6894 15.9963 24.9122 15.9963H25.3094V15.996ZM25.9385 17.5657H27.788V16.2709H25.9385V17.5657ZM27.7884 17.8406H25.9388V19.1354H27.7884V17.8406ZM27.7884 19.4103H25.9388V20.8779H27.7884V19.4103ZM27.1754 21.7087C27.1647 21.6976 27.1593 21.6868 27.1593 21.676C27.1593 21.6361 27.1788 21.6165 27.2182 21.6165C27.2215 21.6165 27.2269 21.6165 27.234 21.6165C27.65 21.6989 27.9906 21.8593 28.2555 22.0964C28.4817 22.2984 28.5948 22.503 28.5948 22.7114C28.5948 22.9853 28.4922 23.1214 28.2882 23.1214C28.1663 23.1214 28.0644 23.019 27.9819 22.814C27.8062 22.3757 27.5376 22.0072 27.1754 21.7087ZM30.6968 17.9058H33.0947C33.3707 17.5603 33.541 17.3877 33.6063 17.3877C33.6592 17.3877 33.846 17.5245 34.1651 17.7977C34.3189 17.9311 34.3963 18.0226 34.3963 18.0729C34.3963 18.1449 34.3475 18.1807 34.2505 18.1807H32.7776V21.1532L32.8214 23.8826C32.8214 24.0872 32.6703 24.1899 32.369 24.1899C32.165 24.1899 32.0627 24.1051 32.0627 23.9362L32.1162 21.4497V18.1807H30.6968C30.6682 19.6261 30.5033 20.7577 30.202 21.5733C29.8368 22.5628 29.1916 23.4131 28.2667 24.1254C28.2555 24.1325 28.2451 24.1362 28.2347 24.1362C28.1734 24.1362 28.1431 24.1051 28.1431 24.0447C28.1431 24.0338 28.1465 24.0244 28.1536 24.018C28.9102 23.2159 29.4117 22.3453 29.6591 21.4071C29.9031 20.5152 30.025 19.3515 30.025 17.9169C30.025 16.5826 30.0038 15.7356 29.961 15.376C30.2653 15.5023 30.5464 15.6458 30.8049 15.8072C31.4282 15.5631 32.061 15.2054 32.7029 14.734C32.9035 14.5793 33.0503 14.4351 33.1442 14.3027C33.6777 14.68 33.9453 14.914 33.9453 15.0035C33.9453 15.0825 33.8729 15.1227 33.7295 15.1227C33.6474 15.1227 33.543 15.1082 33.4175 15.0791C32.5753 15.5327 31.6689 15.867 30.6972 16.0828V17.9058H30.6968Z" fill="#EA4646" stroke="#EA4646" stroke-width="0.5" stroke-miterlimit="10"/>
<path d="M38.6127 17.5654V18.3476C39.157 18.5168 39.5929 18.7488 39.919 19.0436C40.192 19.2915 40.3276 19.5306 40.3276 19.7609C40.3276 19.8801 40.2916 19.9804 40.2203 20.0635C40.1593 20.1354 40.093 20.1715 40.021 20.1715C39.8742 20.1715 39.7457 20.051 39.6346 19.8099C39.3906 19.2486 39.0506 18.8248 38.613 18.5367V20.3168L38.6235 23.8661C38.6235 24.0785 38.4764 24.1842 38.1825 24.1842C38.0072 24.1842 37.9187 24.0961 37.9187 23.9201C37.9187 23.8772 37.9247 23.6668 37.9358 23.2889C37.9678 22.0664 37.9947 20.5775 38.0159 18.8224C37.4532 20.0125 36.7504 20.9932 35.9082 21.7625C35.9011 21.7696 35.89 21.773 35.8762 21.773C35.8113 21.773 35.7793 21.7443 35.7793 21.6865C35.7793 21.6794 35.7827 21.6706 35.7897 21.6598C36.7504 20.4046 37.4495 19.0399 37.8863 17.5654H36.7736C36.5619 17.5654 36.3384 17.5837 36.1014 17.6195L35.9887 17.2149C36.2791 17.2652 36.5403 17.2905 36.7736 17.2905H37.9729V15.4885C37.4888 15.5716 36.9099 15.6402 36.236 15.6935C36.1896 15.6935 36.1667 15.6631 36.1667 15.602C36.1667 15.5736 36.1785 15.555 36.2034 15.548C37.3293 15.3035 38.2579 14.9995 38.9887 14.6368C39.268 14.4926 39.4794 14.3596 39.6228 14.2373C40.1102 14.5575 40.3546 14.7675 40.3546 14.8685C40.3546 14.9549 40.2775 14.9978 40.123 14.9978C40.0442 14.9978 39.9436 14.9836 39.8217 14.9549C39.4808 15.0988 39.0775 15.2315 38.612 15.3541V17.2905H39.3482C39.6178 16.9738 39.7783 16.8157 39.8322 16.8157C39.8968 16.8157 40.0779 16.942 40.3754 17.1936C40.5151 17.3047 40.5851 17.3929 40.5851 17.4577C40.5851 17.5296 40.5333 17.5654 40.4289 17.5654H38.6127V17.5654ZM44.3334 20.338L44.8278 20.2357C45.054 19.7717 45.2045 19.5393 45.2799 19.5393C45.3293 19.5393 45.5646 19.6657 45.9837 19.9172C46.1452 20.0105 46.2264 20.0922 46.2264 20.1601C46.2264 20.207 46.1792 20.2408 46.0863 20.2624L44.3337 20.6133C44.3442 21.649 44.3566 22.4892 44.3711 23.1322C44.3815 23.5892 44.3869 23.8212 44.3869 23.8283C44.3869 24.0586 44.2331 24.1734 43.9251 24.1734C43.7208 24.1734 43.6185 24.0782 43.6185 23.8877C43.6185 23.8262 43.6198 23.6753 43.6239 23.4342C43.6377 22.6719 43.6471 21.7763 43.6508 20.7484L40.5646 21.3626C40.2812 21.4275 40.054 21.4974 39.882 21.5727L39.6888 21.1901C39.9968 21.1688 40.2711 21.1344 40.5111 21.0877L43.6619 20.467V18.1801C43.6619 15.9468 43.637 14.6361 43.5858 14.2474C44.0698 14.3015 44.3869 14.3498 44.5374 14.3927C44.6595 14.4325 44.7201 14.4848 44.7201 14.5493C44.7201 14.6466 44.5912 14.7456 44.3337 14.8462V20.338H44.3334ZM40.4993 18.094C40.4855 18.0831 40.4781 18.069 40.4781 18.0511C40.4781 17.9862 40.508 17.9592 40.5693 17.9697C41.1324 18.0527 41.5949 18.2307 41.9567 18.5039C42.258 18.7342 42.4081 18.975 42.4081 19.227C42.4081 19.3604 42.3711 19.4661 42.2953 19.5451C42.2314 19.6133 42.1499 19.6478 42.0533 19.6478C41.9029 19.6478 41.7827 19.5559 41.6935 19.3729C41.4283 18.8437 41.0298 18.4175 40.4993 18.094ZM41.0533 15.6287C41.0392 15.6216 41.0321 15.6087 41.0321 15.5908C41.0321 15.5263 41.0631 15.4993 41.1237 15.5105C41.6646 15.6216 42.1021 15.8178 42.4354 16.0981C42.7188 16.3355 42.8605 16.58 42.8605 16.8316C42.8605 16.965 42.8245 17.0707 42.7528 17.1497C42.6881 17.2183 42.609 17.2524 42.5161 17.2524C42.3515 17.2524 42.2075 17.1105 42.086 16.8262C41.8817 16.3443 41.537 15.9451 41.0533 15.6287Z" fill="#EA4646" stroke="#EA4646" stroke-width="0.5" stroke-miterlimit="10"/>
<path d="M15.8746 35.1497V28.4498H13.2997C13.0237 28.4498 12.7258 28.4711 12.407 28.5147L12.2943 28.1101C12.6134 28.153 12.9486 28.175 13.2997 28.175H18.9126C19.2849 27.7393 19.4987 27.5215 19.5518 27.5215C19.6131 27.5215 19.8373 27.6799 20.2243 27.9966C20.4209 28.155 20.5195 28.2698 20.5195 28.3414C20.5195 28.413 20.468 28.4492 20.3637 28.4492H16.5898V35.149H19.5737C19.9605 34.7069 20.185 34.4857 20.2462 34.4857C20.2994 34.4857 20.5269 34.6472 20.9285 34.9714C21.1325 35.1365 21.2351 35.2517 21.2351 35.3162C21.2351 35.3888 21.1887 35.4242 21.0951 35.4242H12.5147C12.2064 35.4242 11.8981 35.4492 11.5898 35.4999L11.4824 35.0845C11.8093 35.1277 12.1492 35.149 12.504 35.149H15.8746V35.1497Z" fill="#EA4646" stroke="#EA4646" stroke-width="0.5" stroke-miterlimit="10"/>
<path d="M25.4738 28.2344H24.9147C24.4846 28.9787 23.9036 29.619 23.1725 30.1542C23.1655 30.1617 23.1567 30.1654 23.1459 30.1654C23.0779 30.1654 23.0439 30.1309 23.0439 30.0631C23.0439 30.0519 23.047 30.0428 23.054 30.0357C23.6781 29.3883 24.1722 28.5991 24.5381 27.6674C24.7175 27.2071 24.8215 26.8565 24.8501 26.6157C25.2914 26.7491 25.5596 26.8369 25.6566 26.8798C25.7639 26.9268 25.8178 26.9828 25.8178 27.0473C25.8178 27.148 25.6778 27.2219 25.3984 27.2682C25.3119 27.484 25.2032 27.714 25.0702 27.9588H26.9413C27.2103 27.6386 27.3752 27.4786 27.4364 27.4786C27.4977 27.4786 27.6761 27.6079 27.9736 27.8669C28.1066 27.9824 28.1729 28.0716 28.1729 28.1364C28.1729 28.2013 28.1265 28.234 28.0332 28.234H25.7962C26.3341 28.6403 26.6027 29.0587 26.6027 29.4906C26.6027 29.6274 26.5667 29.7368 26.4953 29.8196C26.4267 29.8959 26.3412 29.9334 26.2368 29.9334C26.1079 29.9334 26.0187 29.8959 25.9682 29.8196C25.9248 29.7514 25.8925 29.624 25.8716 29.4366C25.8178 28.9405 25.6855 28.54 25.4738 28.2344ZM27.4253 32.1883V30.8719C26.5903 31.0053 25.5721 31.1127 24.3715 31.1954C24.3213 31.1954 24.2961 31.1599 24.2961 31.0877C24.2961 31.0593 24.3065 31.0431 24.328 31.0394C26.802 30.6723 28.5243 30.2822 29.495 29.8685C29.9649 29.6706 30.2874 29.5123 30.4627 29.3941C30.9579 29.7503 31.2049 29.9817 31.2049 30.0901C31.2049 30.162 31.1332 30.1978 30.9898 30.1978C30.8973 30.1978 30.7805 30.1799 30.6404 30.1438C29.9232 30.3812 29.0763 30.5879 28.0972 30.7642V32.1126L31.0168 31.7891C31.2534 31.4153 31.4005 31.2282 31.4577 31.2282C31.522 31.2282 31.7391 31.345 32.1087 31.5787C32.284 31.6976 32.3719 31.7854 32.3719 31.8431C32.3719 31.9005 32.3234 31.9347 32.2265 31.9458L28.0972 32.399V33.9201L31.522 33.5371C31.7731 33.145 31.9269 32.9491 31.9845 32.9491C32.042 32.9491 32.2662 33.071 32.657 33.3159C32.8249 33.4277 32.9094 33.5158 32.9094 33.5803C32.9094 33.634 32.8609 33.6664 32.7637 33.6772L28.0972 34.2112V35.3391C28.0972 35.5009 28.1261 35.6103 28.1833 35.668C28.255 35.74 28.4092 35.7866 28.6458 35.8085C28.8538 35.8298 29.2315 35.8406 29.7805 35.8406C30.6475 35.8406 31.2116 35.8298 31.4738 35.8085C31.7068 35.7899 31.8808 35.7525 31.9956 35.6951C32.2133 35.5758 32.4358 35.1483 32.6617 34.4111C32.6728 34.3861 32.6906 34.3736 32.7155 34.3736C32.7694 34.3736 32.7963 34.3966 32.7963 34.4438C32.7812 34.8393 32.7741 35.1409 32.7741 35.3499C32.7741 35.4941 32.8232 35.585 32.9202 35.6248C33.0525 35.6751 33.1194 35.767 33.1194 35.9C33.1194 36.1044 32.9471 36.2502 32.6031 36.3367C32.1975 36.4194 31.28 36.461 29.8501 36.461C28.7101 36.461 28.0023 36.3813 27.7259 36.2236C27.5108 36.1013 27.4035 35.8352 27.4035 35.4252L27.425 34.276L24.2311 34.6431C23.9554 34.6789 23.7276 34.7221 23.5488 34.7724L23.3822 34.3844C23.5074 34.3844 23.597 34.3844 23.6508 34.3844C23.8157 34.3844 23.9982 34.3773 24.1991 34.3628L27.4253 34.0018V32.475L24.5492 32.7874C24.3085 32.8168 24.0897 32.8596 23.8928 32.9174L23.7259 32.5294C23.8699 32.5361 23.979 32.5395 24.0547 32.5395C24.2197 32.5395 24.3775 32.5294 24.527 32.5074L27.4253 32.1883ZM29.4849 28.2344H28.9094C28.5475 28.8027 28.0709 29.3221 27.4792 29.7929C27.4721 29.8 27.4614 29.8037 27.4465 29.8037C27.3826 29.8037 27.3503 29.7763 27.3503 29.7227C27.3503 29.7122 27.3536 29.7014 27.3604 29.6899C27.8478 29.1475 28.2624 28.4407 28.6024 27.5704C28.7636 27.1783 28.8626 26.8653 28.8983 26.6319C29.5472 26.8045 29.8713 26.9447 29.8713 27.0527C29.8713 27.1172 29.841 27.1621 29.7805 27.1871C29.7263 27.2128 29.6135 27.2378 29.4412 27.2628C29.2658 27.6157 29.144 27.8473 29.076 27.9591H31.4792C31.7835 27.6069 31.9629 27.431 32.0168 27.431C32.0885 27.431 32.2911 27.5671 32.625 27.8409C32.7859 27.9666 32.8667 28.0652 32.8667 28.1371C32.8667 28.2019 32.8148 28.2347 32.7105 28.2347H29.7808C30.0134 28.3495 30.2015 28.4937 30.3449 28.666C30.4631 28.8135 30.5226 28.9479 30.5226 29.0702C30.5226 29.3367 30.4075 29.4697 30.1783 29.4697C30.0279 29.4697 29.9299 29.3529 29.8824 29.1188C29.7966 28.7237 29.664 28.4285 29.4849 28.2344Z" fill="#EA4646" stroke="#EA4646" stroke-width="0.5" stroke-miterlimit="10"/>
<path d="M37.9596 34.276V34.708C37.9596 34.8981 37.8233 34.9937 37.5509 34.9937C37.3752 34.9937 37.2874 34.9197 37.2874 34.7725L37.3305 31.4605C37.3305 30.3853 37.3126 29.6102 37.277 29.1354C37.5849 29.261 37.8418 29.3907 38.0451 29.5231H39.4924V27.7005H35.9437C35.5816 27.7005 35.2803 27.7218 35.04 27.7653L34.9326 27.3496C35.2049 27.3999 35.5422 27.4253 35.9437 27.4253H43.3036C43.6732 26.9903 43.8859 26.7725 43.9438 26.7725C43.9973 26.7725 44.2215 26.9308 44.6156 27.2473C44.8196 27.4124 44.9223 27.531 44.9223 27.6036C44.9223 27.6677 44.8735 27.7005 44.7769 27.7005H40.1205V29.5231H41.6849C41.8967 29.2864 42.0236 29.1675 42.067 29.1675C42.1313 29.1675 42.278 29.2664 42.5082 29.4643C42.6264 29.5684 42.6853 29.6494 42.6853 29.7065C42.6853 29.7896 42.59 29.8902 42.4002 30.0091V31.4062L42.4541 34.6536C42.4541 34.8437 42.314 34.9393 42.0347 34.9393C41.859 34.9393 41.7711 34.8586 41.7711 34.6968V34.2757H37.9596V34.276ZM36.078 35.8136H43.7183V31.3741C43.7183 30.2087 43.6998 29.4752 43.6644 29.1729C44.3989 29.2519 44.7661 29.3505 44.7661 29.4698C44.7661 29.563 44.6409 29.6606 44.3905 29.7605V31.9671L44.4332 36.4121C44.4332 36.61 44.2898 36.7086 44.003 36.7086C43.8132 36.7086 43.7183 36.6245 43.7183 36.4549V36.0885H36.078V36.4175C36.078 36.6262 35.9346 36.7305 35.6485 36.7305C35.4506 36.7305 35.3523 36.6498 35.3523 36.4877L35.4062 32.0806C35.4062 30.4981 35.3877 29.5363 35.3523 29.1942C35.8327 29.2445 36.1433 29.2935 36.2827 29.3401C36.3897 29.3762 36.4439 29.4262 36.4439 29.491C36.4439 29.5849 36.3221 29.6812 36.0784 29.7825V35.8136H36.078ZM37.9596 31.6709H39.4924V29.7987H37.9596V31.6709ZM37.9596 31.9462V34.0015H39.4924V31.9462H37.9596ZM41.7718 31.6709V29.7987H40.1211V31.6709H41.7718ZM41.7718 34.0015V31.9462H40.1211V34.0015H41.7718Z" fill="#EA4646" stroke="#EA4646" stroke-width="0.5" stroke-miterlimit="10"/>
<path d="M11.6005 44.8752L11.5039 44.4602C11.7863 44.5105 12.099 44.5358 12.4393 44.5358H19.9075C20.2478 44.1438 20.4447 43.9479 20.4986 43.9479C20.5558 43.9479 20.7692 44.0992 21.1385 44.4008C21.3142 44.545 21.402 44.649 21.402 44.7138C21.402 44.7787 21.3552 44.8107 21.2623 44.8107H12.4289C12.1417 44.8101 11.8654 44.8324 11.6005 44.8752ZM11.9341 48.9318C11.9263 48.9426 11.9189 48.9487 11.9119 48.9487C11.8513 48.9487 11.821 48.9139 11.821 48.8457C11.821 48.8312 11.8264 48.819 11.8371 48.8082C12.647 48.1679 13.3138 47.4489 13.8365 46.6499C14.1162 46.2112 14.3148 45.8158 14.4332 45.4635C15.0997 45.733 15.4336 45.9252 15.4336 46.0407C15.4336 46.1592 15.2727 46.2295 14.9499 46.2511C14.1933 47.4158 13.1882 48.3098 11.9341 48.9318ZM12.0196 40.1605C12.0125 40.1534 12.0091 40.1443 12.0091 40.1338C12.0091 40.0798 12.0394 40.0524 12.1007 40.0524C12.1108 40.0524 12.1219 40.0544 12.133 40.0585C12.8314 40.5046 13.3834 40.9983 13.7883 41.5417C14.1145 41.977 14.2781 42.3509 14.2781 42.6643C14.2781 43.0705 14.1492 43.2735 13.891 43.2735C13.7079 43.2735 13.5662 43.1046 13.4659 42.7666C13.1895 41.849 12.7082 40.9804 12.0196 40.1605ZM14.9603 39.6424C14.9533 39.632 14.9503 39.6215 14.9503 39.6103C14.9503 39.5563 14.9802 39.5293 15.0415 39.5293C15.0519 39.5293 15.063 39.5313 15.0741 39.535C15.7291 40.0095 16.2391 40.5205 16.6009 41.0672C16.9092 41.5343 17.0634 41.9605 17.0634 42.3451C17.0634 42.7521 16.9358 42.955 16.6813 42.955C16.4518 42.955 16.305 42.7825 16.2407 42.4373C16.061 41.412 15.6345 40.4806 14.9603 39.6424ZM17.579 45.6739C17.5649 45.6665 17.5578 45.6537 17.5578 45.6361C17.5578 45.5746 17.5864 45.5446 17.6443 45.5446C17.6477 45.5446 17.6541 45.5463 17.6655 45.55C18.6585 46.0464 19.4256 46.5732 19.9668 47.1305C20.4185 47.5945 20.6443 48.0119 20.6443 48.382C20.6443 48.7126 20.5188 48.8788 20.268 48.8788C20.1034 48.8788 19.9348 48.6951 19.7628 48.328C19.3138 47.3962 18.5861 46.5118 17.579 45.6739ZM18.1973 43.931C18.1903 43.9381 18.1812 43.9421 18.1704 43.9421C18.095 43.9421 18.0573 43.9077 18.0573 43.8391C18.0573 43.8321 18.0593 43.825 18.0634 43.8179C18.7695 42.7173 19.269 41.6656 19.5636 40.6623C19.5955 40.5576 19.676 40.2253 19.8049 39.6644C20.5898 39.995 20.983 40.227 20.983 40.3601C20.983 40.4897 20.8029 40.56 20.4444 40.5705C19.889 41.8328 19.1401 42.953 18.1973 43.931Z" fill="#EA4646" stroke="#EA4646" stroke-width="0.5" stroke-miterlimit="10"/>
<path d="M25.8075 47.3784C25.829 47.393 25.9095 47.4429 26.0491 47.5291C26.4366 47.7665 26.9401 47.9336 27.5601 48.0309C28.1373 48.1241 28.8957 48.171 29.8344 48.171C31.1606 48.171 32.3417 48.1011 33.3781 47.9606C33.4171 47.9536 33.437 47.9715 33.437 48.0147C33.437 48.0471 33.4238 48.0707 33.3993 48.0849C33.2559 48.1639 33.1626 48.2393 33.1199 48.3112C33.0805 48.3727 33.0536 48.4696 33.0388 48.6026C33.0209 48.7175 32.9364 48.7803 32.786 48.7914C32.3164 48.8205 31.4312 48.8346 30.1303 48.8346C28.0835 48.8346 26.6823 48.5668 25.9253 48.0309C25.4961 47.7253 25.1531 47.3997 24.8987 47.0546C24.6439 46.702 24.4362 46.2758 24.275 45.776C24.0777 46.9843 23.6782 48.0454 23.0757 48.9586C23.0656 48.9731 23.0505 48.9802 23.0326 48.9802C22.9717 48.9802 22.9414 48.9549 22.9414 48.9045C22.9414 48.9008 22.9434 48.8954 22.9468 48.8883C23.3951 47.8056 23.6833 46.4659 23.8122 44.8696C23.8334 44.6106 23.8448 44.3823 23.8448 44.1847C23.8448 44.0625 23.8411 43.9473 23.8337 43.8392C24.2464 43.922 24.5076 43.9851 24.6186 44.0287C24.7193 44.0679 24.7691 44.1168 24.7691 44.1739C24.7691 44.2391 24.6587 44.3124 24.4359 44.3951C24.4147 44.7257 24.3827 45.0354 24.3393 45.3231C24.5614 45.9381 24.8489 46.4416 25.1999 46.8337V43.1007H23.9522C23.7943 43.1007 23.5809 43.1257 23.3127 43.1763L23.206 42.7501C23.4348 42.8001 23.6802 42.8254 23.9421 42.8254H25.0656V41.1696H24.2592C24.1403 41.1696 23.9434 41.1909 23.6678 41.2341L23.5543 40.8292C23.7765 40.8725 24.0074 40.8937 24.248 40.8937H25.0653V40.527C25.0653 39.966 25.0475 39.5095 25.0114 39.1572C25.4561 39.2069 25.7482 39.2572 25.8883 39.3075C25.9812 39.3403 26.0276 39.3865 26.0276 39.448C26.0276 39.5307 25.9132 39.6256 25.6839 39.734V40.8937H26.1834C26.3915 40.6205 26.5221 40.4841 26.5766 40.4841C26.6264 40.4841 26.7947 40.6101 27.0818 40.8617C27.171 40.9299 27.2158 41.0001 27.2158 41.072C27.2158 41.1362 27.1693 41.169 27.0761 41.169H25.6836V42.8248H26.3346C26.5523 42.537 26.6893 42.3935 26.7432 42.3935C26.8071 42.3935 26.965 42.509 27.2158 42.7383C27.3272 42.8396 27.3824 42.9278 27.3824 43.0031C27.3824 43.0672 27.3342 43.1 27.2373 43.1H25.8071V44.848H26.2804C26.481 44.5528 26.6136 44.4052 26.6779 44.4052C26.728 44.4052 26.8825 44.5275 27.1404 44.7723C27.2518 44.8726 27.307 44.9574 27.307 45.0256C27.307 45.0905 27.2585 45.1225 27.1619 45.1225H25.8071V47.3784H25.8075ZM27.6193 45.9327V40.2146C27.4834 40.2146 27.2878 40.2359 27.033 40.2794L26.926 39.8637C27.2131 39.914 27.4746 39.9394 27.7112 39.9394H31.7651C32.066 39.5946 32.2417 39.422 32.2915 39.422C32.3491 39.422 32.546 39.5618 32.8826 39.8424C33.0226 39.9542 33.0926 40.042 33.0926 40.1065C33.0926 40.1785 33.0462 40.2146 32.9526 40.2146H30.033V44.2063L30.0663 47.5128C30.0663 47.6888 29.9334 47.7776 29.6678 47.7776C29.4925 47.7776 29.4039 47.7074 29.4039 47.5669C29.4039 47.5419 29.4083 47.4483 29.415 47.2862C29.4332 46.8047 29.444 46.2903 29.4474 45.7439C28.9415 46.0026 28.2774 46.2711 27.4524 46.5477C27.4063 46.7847 27.3393 46.904 27.2538 46.904C27.1858 46.904 27.0656 46.6051 26.8936 46.0087C27.1262 45.9935 27.3689 45.9685 27.6193 45.9327ZM28.2053 40.2146V41.7839H29.447V40.2146H28.2053ZM28.2053 42.0595V43.689H29.447V42.0595H28.2053V42.0595ZM28.2053 43.9639V45.8196C28.6964 45.7152 29.1101 45.6088 29.447 45.5014V43.9639H28.2053ZM31.6187 43.9311C31.7988 43.2949 31.9314 42.6025 32.0172 41.8545H31.1468C30.9098 41.8545 30.6571 41.8798 30.3885 41.9302L30.2808 41.4989C30.5783 41.5529 30.8627 41.5796 31.1357 41.5796H31.964C32.1572 41.3638 32.2771 41.2561 32.3239 41.2561C32.3737 41.2561 32.5046 41.3513 32.716 41.5418C32.8271 41.6536 32.8823 41.738 32.8823 41.7954C32.8823 41.8677 32.7968 41.9413 32.6248 42.0166C32.4743 42.973 32.271 43.773 32.0169 44.4167C32.6157 45.1938 32.9152 45.8446 32.9152 46.3697C32.9152 46.65 32.82 46.7905 32.6295 46.7905C32.5329 46.7905 32.4541 46.7452 32.3929 46.6561C32.3464 46.5771 32.2949 46.4379 32.237 46.2404C32.137 45.8668 31.9755 45.4528 31.753 44.9999C31.3912 45.7405 30.9162 46.3967 30.3282 46.9688C30.3181 46.9759 30.307 46.9796 30.2962 46.9796C30.2464 46.9796 30.2212 46.9546 30.2212 46.904C30.2212 46.8928 30.2225 46.884 30.2262 46.8766C30.753 46.1107 31.163 45.3015 31.4575 44.4491C31.1599 43.9382 30.8052 43.4353 30.3932 42.9382C30.3861 42.9281 30.3821 42.9156 30.3821 42.9011C30.3821 42.8579 30.4039 42.8366 30.4467 42.8366C30.4608 42.8366 30.4736 42.8403 30.4841 42.847C30.9186 43.203 31.2962 43.5647 31.6187 43.9311Z" fill="#EA4646" stroke="#EA4646" stroke-width="0.5" stroke-miterlimit="10"/>
<path d="M36.2927 48.4573V48.8028C36.2927 48.9929 36.1537 49.0885 35.874 49.0885C35.6838 49.0885 35.5889 49.0145 35.5889 48.8673L35.6427 43.5321C35.6427 41.2418 35.6242 39.871 35.5889 39.4219C35.9076 39.5583 36.1708 39.6985 36.3792 39.8423H43.6374C43.87 39.5907 44.0083 39.4648 44.0511 39.4648C44.109 39.4648 44.2524 39.5678 44.4816 39.7721C44.6001 39.8764 44.6586 39.9629 44.6586 40.0314C44.6586 40.1105 44.5674 40.2094 44.385 40.3279V43.2461L44.4277 48.792C44.4277 48.9899 44.2917 49.0888 44.0191 49.0888C43.8222 49.0888 43.7232 49.0149 43.7232 48.8676V48.4576H36.2927V48.4573ZM43.7232 48.1824V40.1179H36.2927V48.1824H43.7232ZM39.0783 42.4805H38.6592C38.5192 42.4805 38.3163 42.5018 38.0517 42.545L37.9548 42.1404C38.1732 42.184 38.4048 42.2049 38.6481 42.2049H39.1863C39.2829 41.9679 39.3758 41.6764 39.466 41.3309C39.5374 41.0219 39.5872 40.7089 39.6158 40.3928C40.2325 40.5292 40.5408 40.6481 40.5408 40.7491C40.5408 40.8494 40.4247 40.9237 40.1914 40.9699C40.0871 41.4157 39.9544 41.8277 39.7932 42.2049H41.1268C41.3567 41.9463 41.4923 41.8169 41.5354 41.8169C41.5893 41.8169 41.7683 41.9354 42.0733 42.1729C42.1769 42.2667 42.2295 42.3363 42.2295 42.3833C42.2295 42.4481 42.1806 42.4805 42.084 42.4805H40.7182C40.8905 42.8402 41.0817 43.1623 41.2934 43.4457H42.2934C42.5519 43.1549 42.7061 43.0087 42.7559 43.0087C42.8128 43.0087 42.9959 43.1309 43.3042 43.3754C43.4301 43.4693 43.493 43.5514 43.493 43.6237C43.493 43.6888 43.4459 43.7209 43.353 43.7209H41.5243C41.5603 43.7638 41.6196 43.8266 41.702 43.9097C42.183 44.3916 42.7959 44.7621 43.5408 45.0211C43.5627 45.0316 43.5731 45.0478 43.5731 45.0701C43.5731 45.1055 43.5549 45.1271 43.5196 45.1342C43.3405 45.17 43.215 45.2943 43.1436 45.5067C43.1106 45.5824 43.0679 45.6202 43.014 45.6202C42.9706 45.6202 42.8905 45.5874 42.772 45.5229C42.2809 45.2028 41.8279 44.7678 41.4119 44.2177C41.3112 44.088 41.1988 43.9225 41.0729 43.7213H38.944C38.7686 43.9516 38.5822 44.1728 38.3853 44.3849C38.5323 44.446 38.7114 44.5375 38.9228 44.6594H40.8636C41.014 44.4906 41.113 44.4061 41.1594 44.4061C41.2092 44.4061 41.3227 44.4835 41.498 44.6381C41.6236 44.7462 41.6865 44.8303 41.6865 44.8918C41.6865 44.935 41.6132 45.0015 41.4664 45.0917C41.4341 45.5878 41.3604 45.937 41.2456 46.1382C41.1705 46.2679 41.0756 46.3686 40.9608 46.4405C40.8498 46.505 40.7262 46.5374 40.5903 46.5374C40.4967 46.5374 40.4415 46.4922 40.423 46.4027C40.3981 46.302 40.3301 46.2247 40.2187 46.171C40.1147 46.1203 39.9178 46.0592 39.6276 45.9873C39.5987 45.9802 39.5842 45.9549 39.5842 45.9113C39.5842 45.8579 39.6027 45.834 39.6387 45.8414C40.0968 45.8917 40.394 45.917 40.5303 45.917C40.5482 45.917 40.561 45.917 40.568 45.917C40.6791 45.917 40.7548 45.8579 40.7942 45.7391C40.8474 45.5952 40.8854 45.324 40.9067 44.9249H38.8481V46.6347C38.8481 46.8508 38.9299 46.9839 39.0948 47.0342C39.2526 47.0811 39.6024 47.1041 40.1433 47.1041C41.1005 47.1041 41.6704 47.0409 41.8535 46.9153C41.971 46.8397 42.1019 46.5627 42.2456 46.0849C42.256 46.0558 42.2776 46.0417 42.3096 46.0417C42.3567 46.0417 42.3799 46.0629 42.3799 46.1058C42.3658 46.3652 42.3587 46.5516 42.3587 46.6671C42.3587 46.7353 42.4102 46.7951 42.5145 46.8451C42.6185 46.8991 42.6704 46.9835 42.6704 47.0984C42.6704 47.2784 42.5378 47.4114 42.2725 47.4979C41.9531 47.6026 41.183 47.6542 39.9608 47.6542C39.2291 47.6542 38.7508 47.5803 38.5253 47.433C38.3348 47.3074 38.2399 47.0825 38.2399 46.759L38.2506 45.556C38.2506 45.0562 38.2462 44.7128 38.2399 44.5253C37.7811 44.9782 37.2348 45.3811 36.5996 45.7337C36.5926 45.7374 36.5858 45.7391 36.5784 45.7391C36.5209 45.7391 36.4923 45.707 36.4923 45.6418C36.4923 45.628 36.4977 45.6168 36.5084 45.6094C37.2644 45.0738 37.8938 44.4443 38.395 43.7216H37.3253C37.1853 43.7216 36.9739 43.7429 36.6909 43.7858L36.5781 43.3758C36.8645 43.4231 37.1106 43.446 37.3146 43.446H38.5835C38.77 43.137 38.9349 42.8145 39.0783 42.4805ZM36.8578 42.8797C36.847 42.8834 36.838 42.8851 36.8309 42.8851C36.7804 42.8851 36.7552 42.8564 36.7552 42.799C36.7552 42.7845 36.7592 42.774 36.7663 42.7666C37.2035 42.3167 37.564 41.8098 37.8467 41.2452C37.9581 41.0186 38.0423 40.7974 38.0995 40.5816C38.6263 40.8007 38.8901 40.9591 38.8901 41.0564C38.8901 41.1493 38.7663 41.2019 38.5189 41.2131C38.0705 41.9138 37.5172 42.4697 36.8578 42.8797ZM39.6858 42.4805C39.5068 42.8402 39.326 43.1623 39.1433 43.4457H40.906C40.7272 43.108 40.5765 42.7861 40.4546 42.4805H39.6858V42.4805ZM41.3796 40.6734C41.9494 40.8463 42.3863 41.0746 42.6909 41.3583C42.9349 41.5852 43.0568 41.8081 43.0568 42.027C43.0568 42.2792 42.9656 42.4045 42.7831 42.4045C42.6899 42.4045 42.6182 42.3762 42.5677 42.3184C42.525 42.2748 42.4711 42.1867 42.4065 42.0543C42.1847 41.5974 41.8171 41.1749 41.3045 40.7866C41.2904 40.7758 41.2833 40.7629 41.2833 40.7491C41.2833 40.6988 41.3082 40.6731 41.3584 40.6731C41.3685 40.6734 41.3755 40.6734 41.3796 40.6734Z" fill="#EA4646" stroke="#EA4646" stroke-width="0.5" stroke-miterlimit="10"/>
<path d="M51.3193 14.1191V48.9033" stroke="#A8A9AC" stroke-miterlimit="10"/>
<path d="M62.5585 16.4075C62.5245 15.7688 62.4841 15.0016 62.4909 14.4308H62.4707C62.3148 14.9675 62.1253 15.5379 61.8951 16.1694L61.0896 18.3905H60.6426L59.9052 16.2102C59.6884 15.5652 59.5056 14.9742 59.3771 14.4305H59.3636C59.3501 15.0009 59.3161 15.7685 59.2754 16.4544L59.1539 18.4175H58.5918L58.9099 13.8398H59.6611L60.4397 16.0539C60.6292 16.6178 60.7847 17.1204 60.8998 17.5955H60.9203C61.0354 17.1339 61.1977 16.6314 61.401 16.0539L62.2132 13.8398H62.9644L63.2489 18.4175H62.6733L62.5585 16.4075Z" fill="#1A1A1A"/>
<path d="M68.3946 16.0816C68.3946 17.6574 67.4401 18.4929 66.2758 18.4929C65.0711 18.4929 64.2246 17.5557 64.2246 16.1698C64.2246 14.7163 65.125 13.7656 66.3434 13.7656C67.5892 13.7656 68.3946 14.7234 68.3946 16.0816ZM64.8547 16.1563C64.8547 17.1343 65.3825 18.0103 66.3098 18.0103C67.2438 18.0103 67.7719 17.1478 67.7719 16.1087C67.7719 15.1989 67.2984 14.2475 66.3169 14.2475C65.3418 14.2475 64.8547 15.1509 64.8547 16.1563Z" fill="#1A1A1A"/>
<path d="M72.6886 18.2683C72.4719 18.3767 72.0387 18.4858 71.4836 18.4858C70.1975 18.4858 69.2295 17.6709 69.2295 16.1698C69.2295 14.7369 70.1975 13.7656 71.6122 13.7656C72.1807 13.7656 72.5398 13.8879 72.6954 13.9696L72.5533 14.4519C72.3298 14.3434 72.0117 14.2617 71.6327 14.2617C70.5631 14.2617 69.8525 14.9476 69.8525 16.1499C69.8525 17.2704 70.4954 17.9904 71.6058 17.9904C71.9643 17.9904 72.3298 17.9154 72.5668 17.8002L72.6886 18.2683Z" fill="#1A1A1A"/>
<path d="M74.3476 13.8398V15.8705H74.5304L76.0942 13.8398H76.805L75.0787 15.9384C75.8299 16.0404 76.1214 16.5023 76.3584 17.1204C76.5273 17.5891 76.6563 18.0099 76.8589 18.4175H76.2227C76.0602 18.1051 75.9316 17.6975 75.8094 17.3378C75.5997 16.7333 75.3089 16.319 74.5371 16.319H74.3476V18.4175H73.7656V13.8398H74.3476Z" fill="#1A1A1A"/>
<path d="M81.545 16.0816C81.545 17.6574 80.5904 18.4929 79.4262 18.4929C78.2215 18.4929 77.375 17.5557 77.375 16.1698C77.375 14.7163 78.2754 13.7656 79.4938 13.7656C80.7392 13.7656 81.545 14.7234 81.545 16.0816ZM78.0048 16.1563C78.0048 17.1343 78.5325 18.0103 79.4598 18.0103C80.3939 18.0103 80.9223 17.1478 80.9223 16.1087C80.9223 15.1989 80.4484 14.2475 79.4669 14.2475C78.4918 14.2475 78.0048 15.1509 78.0048 16.1563Z" fill="#1A1A1A"/>
<path d="M82.6498 13.9015C82.9072 13.8472 83.3132 13.8066 83.7262 13.8066C84.3149 13.8066 84.6939 13.9086 84.9783 14.1393C85.2153 14.3156 85.3576 14.5874 85.3576 14.9478C85.3576 15.3891 85.0665 15.7762 84.5858 15.9528V15.9666C85.019 16.075 85.5266 16.4354 85.5266 17.1142C85.5266 17.5079 85.3711 17.8072 85.1409 18.0311C84.8228 18.3232 84.3081 18.4593 83.5633 18.4593C83.1573 18.4593 82.8456 18.4319 82.6494 18.4049V13.9015H82.6498ZM83.2388 15.7762H83.7736C84.3963 15.7762 84.7619 15.4503 84.7619 15.0089C84.7619 14.4723 84.3559 14.2619 83.7598 14.2619C83.4892 14.2619 83.3334 14.2821 83.2388 14.3024V15.7762ZM83.2388 17.9699C83.3539 17.9905 83.5232 17.9969 83.7329 17.9969C84.3425 17.9969 84.9039 17.773 84.9039 17.1071C84.9039 16.4823 84.3691 16.2243 83.7262 16.2243H83.2388V17.9699Z" fill="#1A1A1A"/>
<path d="M89.7922 18.2683C89.5754 18.3767 89.1422 18.4858 88.5872 18.4858C87.301 18.4858 86.333 17.6709 86.333 16.1698C86.333 14.7369 87.301 13.7656 88.7157 13.7656C89.2842 13.7656 89.6434 13.8879 89.7989 13.9696L89.6568 14.4519C89.4333 14.3434 89.1153 14.2617 88.7363 14.2617C87.6666 14.2617 86.956 14.9476 86.956 16.1499C86.956 17.2704 87.5989 17.9904 88.7093 17.9904C89.0678 17.9904 89.4333 17.9154 89.6703 17.8002L89.7922 18.2683Z" fill="#1A1A1A"/>
<path d="M91.4521 13.8398V15.8705H91.6348L93.1986 13.8398H93.9095L92.1832 15.9384C92.9344 16.0404 93.2259 16.5023 93.4629 17.1204C93.6318 17.5891 93.7607 18.0099 93.9634 18.4175H93.3272C93.1646 18.1051 93.0361 17.6975 92.9139 17.3378C92.7042 16.7333 92.413 16.319 91.6416 16.319H91.4521V18.4175H90.8701V13.8398H91.4521Z" fill="#1A1A1A"/>
<path d="M95.4339 13.8398V15.7685C95.4339 16.4953 95.4205 17.093 95.3798 17.7043L95.3932 17.711C95.6234 17.2359 95.9075 16.7398 96.2394 16.1967L97.7154 13.8398H98.3044V18.4175H97.7494V16.4686C97.7494 15.7283 97.7561 15.1846 97.8035 14.6075L97.783 14.6004C97.5595 15.1029 97.2482 15.6331 96.9368 16.142L95.5083 18.4172H94.8789V13.8398H95.4339Z" fill="#1A1A1A"/>
<path d="M100.227 13.8401V15.7687C100.227 16.4955 100.213 17.0932 100.173 17.7045L100.186 17.7112C100.416 17.2361 100.7 16.74 101.032 16.1969L102.508 13.8401H103.097V18.4177H102.542V16.4688C102.542 15.7285 102.549 15.1848 102.597 14.6077L102.576 14.6006C102.352 15.1031 102.041 15.6333 101.73 16.1422L100.301 18.4174H99.6719V13.8401H100.227ZM100.971 12.8823C100.998 13.0927 101.066 13.3034 101.384 13.3034C101.696 13.3034 101.77 13.1066 101.798 12.8823H102.251C102.217 13.3305 101.947 13.6091 101.371 13.6091C100.816 13.6091 100.552 13.3305 100.518 12.8823H100.971Z" fill="#1A1A1A"/>
<path d="M59.2958 24.0308V26.0614H59.4786L61.0424 24.0308H61.7533L60.0269 26.1293C60.7782 26.2313 61.0697 26.6933 61.3066 27.3113C61.4756 27.78 61.6045 28.2008 61.8071 28.6084H61.171C61.0084 28.296 60.8798 27.8884 60.7576 27.5288C60.5479 26.9243 60.2568 26.5099 59.4853 26.5099H59.2958V28.6084H58.7139V24.0308H59.2958Z" fill="#1A1A1A"/>
<path d="M65.9647 24.0308V28.6084H65.369V24.5265H63.8597V25.9121C63.8597 26.904 63.819 28.011 63.1761 28.4456C63.0068 28.5541 62.7429 28.6631 62.4787 28.6631L62.4043 28.1876C62.5871 28.1535 62.7762 28.0451 62.885 27.9431C63.2505 27.5831 63.2845 26.6936 63.2845 25.9598V24.0311H65.9647V24.0308Z" fill="#1A1A1A"/>
<path d="M67.4963 24.0308L68.4034 25.9797C68.5186 26.2515 68.6266 26.5163 68.735 26.7882H68.7484C68.8296 26.5504 68.9177 26.2857 69.0329 25.9594L69.7434 24.0308H70.3664L69.4119 26.3805C69.1614 26.9921 68.877 27.6915 68.5589 28.1191C68.2611 28.4926 67.9295 28.6831 67.5233 28.6831C67.3745 28.6831 67.2661 28.6692 67.1917 28.6422L67.253 28.1599C67.3004 28.1735 67.3681 28.1805 67.4697 28.1805C67.9433 28.1735 68.221 27.7186 68.3631 27.3927C68.4105 27.2907 68.397 27.2228 68.3425 27.1141L66.8262 24.0308H67.4963V24.0308Z" fill="#1A1A1A"/>
<path d="M73.7515 24.0308V24.5265H71.7814V25.7561C71.9235 25.7355 72.1944 25.722 72.3432 25.722C72.7764 25.722 73.2028 25.8169 73.5209 26.0273C73.8663 26.2515 74.1029 26.6112 74.1029 27.1478C74.1029 27.576 73.9608 27.9016 73.7239 28.1397C73.352 28.5064 72.7353 28.6493 72.113 28.6493C71.7 28.6493 71.3886 28.6219 71.1924 28.5949V24.0308H73.7515ZM71.7818 28.1532C71.9171 28.1805 72.0726 28.1873 72.2759 28.1873C72.6414 28.1873 73.0137 28.0718 73.2368 27.8341C73.3927 27.6713 73.4873 27.447 73.4873 27.162C73.4873 26.8088 73.3385 26.571 73.1153 26.4147C72.8784 26.2519 72.5738 26.1837 72.2489 26.1837C72.1136 26.1837 71.9309 26.1972 71.7818 26.2107V28.1532V28.1532Z" fill="#1A1A1A"/>
<path d="M80.001 24.0308V28.6084H79.4052V24.5265H77.8959V25.9121C77.8959 26.904 77.8552 28.011 77.2123 28.4456C77.043 28.5541 76.7791 28.6631 76.5149 28.6631L76.4405 28.1876C76.6233 28.1535 76.8124 28.0451 76.9211 27.9431C77.2867 27.5831 77.3207 26.6936 77.3207 25.9598V24.0311H80.001V24.0308Z" fill="#1A1A1A"/>
<path d="M81.9517 24.0307V26.0073H82.6286C82.7504 24.7304 83.4949 23.9561 84.5713 23.9561C85.7558 23.9561 86.4731 24.9138 86.4731 26.2721C86.4731 27.8613 85.5932 28.6833 84.5101 28.6833C83.4067 28.6833 82.6622 27.8411 82.6148 26.5031H81.9513V28.6083H81.3623V24.0307H81.9517ZM85.8709 26.2991C85.8709 25.3893 85.4441 24.4316 84.5441 24.4316C83.6373 24.4316 83.197 25.3552 83.197 26.3467C83.197 27.3112 83.6777 28.2078 84.5306 28.2078C85.397 28.2075 85.8709 27.3382 85.8709 26.2991Z" fill="#1A1A1A"/>
<path d="M90.1304 24.0308V24.5265H88.1603V25.7561C88.3024 25.7355 88.5733 25.722 88.7221 25.722C89.1553 25.722 89.5817 25.8169 89.8998 26.0273C90.2452 26.2515 90.4818 26.6112 90.4818 27.1478C90.4818 27.576 90.3397 27.9016 90.1028 28.1397C89.7308 28.5064 89.1142 28.6493 88.4919 28.6493C88.0789 28.6493 87.7675 28.6219 87.5713 28.5949V24.0308H90.1304ZM88.1606 28.1532C88.296 28.1805 88.4515 28.1873 88.6548 28.1873C89.0203 28.1873 89.3926 28.0718 89.6157 27.8341C89.7716 27.6713 89.8662 27.447 89.8662 27.162C89.8662 26.8088 89.7174 26.571 89.4942 26.4147C89.2573 26.2519 88.9526 26.1837 88.6278 26.1837C88.4925 26.1837 88.3098 26.1972 88.1606 26.2107V28.1532V28.1532Z" fill="#1A1A1A"/>
<path d="M92.1419 24.0308V25.9594C92.1419 26.6862 92.1285 27.2839 92.0878 27.8952L92.1012 27.9019C92.3314 27.4268 92.6155 26.9307 92.9474 26.3876L94.4234 24.0308H95.0124V28.6084H94.4573V26.6595C94.4573 25.9192 94.4641 25.3755 94.5115 24.7984L94.491 24.7913C94.2675 25.2938 93.9562 25.824 93.6448 26.3329L92.2163 28.6081H91.5869V24.0308H92.1419Z" fill="#1A1A1A"/>
<path d="M97.2471 24.5333H95.8594V24.0308H99.2374V24.5333H97.8426V28.6081H97.2468V24.5333H97.2471Z" fill="#1A1A1A"/>
<path d="M102.447 26.4619H100.673V28.1127H102.649V28.6084H100.084V24.0308H102.548V24.5265H100.673V25.9733H102.447V26.4619Z" fill="#1A1A1A"/>
<path d="M106.929 24.0308V28.6084H106.334V24.5265H104.824V25.9121C104.824 26.904 104.784 28.011 104.141 28.4456C103.972 28.5541 103.708 28.6631 103.443 28.6631L103.369 28.1876C103.552 28.1535 103.741 28.0451 103.85 27.9431C104.215 27.5831 104.249 26.6936 104.249 25.9598V24.0311H106.929V24.0308Z" fill="#1A1A1A"/>
<path d="M110.654 26.4619H108.88V28.1127H110.857V28.6084H108.291V24.0308H110.755V24.5265H108.88V25.9733H110.654V26.4619Z" fill="#1A1A1A"/>
<path d="M112.516 24.031V25.9597C112.516 26.6864 112.503 27.2841 112.462 27.8954L112.475 27.9022C112.705 27.427 112.99 26.9309 113.321 26.3879L114.797 24.031H115.386V28.6086H114.831V26.6597C114.831 25.9195 114.838 25.3757 114.886 24.7986L114.865 24.7915C114.642 25.294 114.33 25.8242 114.019 26.3332L112.59 28.6083H111.961V24.031H112.516ZM113.261 23.0732C113.287 23.2836 113.355 23.4944 113.674 23.4944C113.985 23.4944 114.059 23.2975 114.087 23.0732H114.54C114.506 23.5214 114.236 23.8 113.66 23.8C113.105 23.8 112.841 23.5214 112.807 23.0732H113.261Z" fill="#1A1A1A"/>
<path d="M59.2958 34.2212V36.2518H59.4786L61.0424 34.2212H61.7533L60.0269 36.3197C60.7782 36.4217 61.0697 36.8837 61.3066 37.5017C61.4756 37.9705 61.6045 38.3912 61.8071 38.7989H61.171C61.0084 38.4865 60.8798 38.0789 60.7576 37.7192C60.5479 37.1147 60.2568 36.7003 59.4853 36.7003H59.2958V38.7989H58.7139V34.2212H59.2958Z" fill="#1A1A1A"/>
<path d="M63.2777 34.221V36.1497C63.2777 36.8765 63.2642 37.4742 63.2235 38.0855L63.237 38.0922C63.4672 37.617 63.7513 37.121 64.0832 36.5779L65.5591 34.221H66.1481V38.7987H65.5931V36.8498C65.5931 36.1095 65.5998 35.5658 65.6473 34.9887L65.6268 34.9816C65.4033 35.4841 65.0919 36.0143 64.7806 36.5232L63.3521 38.7984H62.7227V34.2207H63.2777V34.221Z" fill="#1A1A1A"/>
<path d="M68.3819 34.7237H66.9941V34.2212H70.3722V34.7237H68.9773V38.7985H68.3816V34.7237H68.3819Z" fill="#1A1A1A"/>
<path d="M71.4093 37.3589L70.9354 38.7989H70.3262L71.8762 34.2212H72.5867L74.1438 38.7989H73.5143L73.027 37.3589H71.4093V37.3589ZM72.9055 36.8972L72.4588 35.5798C72.3572 35.2806 72.2895 35.0094 72.2218 34.7443H72.2084C72.1407 35.0158 72.066 35.2944 71.9782 35.5727L71.5315 36.8972H72.9055Z" fill="#1A1A1A"/>
<path d="M75.7093 34.2214V36.1501C75.7093 36.8768 75.6959 37.4746 75.6551 38.0858L75.6686 38.0926C75.8988 37.6174 76.1829 37.1213 76.5148 36.5783L77.9907 34.2214H78.5798V38.7991H78.0247V36.8502C78.0247 36.1099 78.0315 35.5662 78.0789 34.989L78.0584 34.9819C77.8349 35.4845 77.5236 36.0147 77.2122 36.5236L75.7837 38.7987H75.1543V34.2211H75.7093V34.2214ZM76.4539 33.2637C76.4811 33.4744 76.5485 33.6848 76.8669 33.6848C77.1785 33.6848 77.2526 33.4879 77.2802 33.2637H77.7336C77.6996 33.7118 77.4293 33.9904 76.8537 33.9904C76.2987 33.9904 76.0345 33.7118 76.0008 33.2637H76.4539Z" fill="#1A1A1A"/>
<path d="M83.1359 38.6492C82.9191 38.7576 82.4859 38.8667 81.9309 38.8667C80.6448 38.8667 79.6768 38.0518 79.6768 36.5506C79.6768 35.1177 80.6448 34.1465 82.0595 34.1465C82.628 34.1465 82.9871 34.2687 83.1426 34.3505L83.0006 34.8327C82.7771 34.7243 82.459 34.6426 82.08 34.6426C81.0103 34.6426 80.2998 35.3285 80.2998 36.5307C80.2998 37.6512 80.9427 38.3712 82.0531 38.3712C82.4115 38.3712 82.7771 38.2963 83.014 38.1811L83.1359 38.6492Z" fill="#1A1A1A"/>
<path d="M84.7958 34.2212V36.2518H84.9786L86.5424 34.2212H87.2533L85.5269 36.3197C86.2782 36.4217 86.5696 36.8837 86.8066 37.5017C86.9756 37.9705 87.1045 38.3912 87.3071 38.7989H86.671C86.5084 38.4865 86.3798 38.0789 86.2576 37.7192C86.0479 37.1147 85.7568 36.7003 84.9853 36.7003H84.7958V38.7989H84.2139V34.2212H84.7958Z" fill="#1A1A1A"/>
<path d="M91.9923 36.4625C91.9923 38.0379 91.0377 38.8737 89.8734 38.8737C88.6688 38.8737 87.8223 37.9366 87.8223 36.5506C87.8223 35.0971 88.7226 34.1465 89.9411 34.1465C91.1865 34.1461 91.9923 35.1039 91.9923 36.4625ZM88.452 36.5368C88.452 37.5148 88.9798 38.3908 89.9071 38.3908C90.8411 38.3908 91.3696 37.5283 91.3696 36.4892C91.3696 35.5794 90.8957 34.6281 89.9142 34.6281C88.9391 34.6284 88.452 35.5318 88.452 36.5368Z" fill="#1A1A1A"/>
<path d="M93.6527 34.2214V36.1501C93.6527 36.8768 93.6392 37.4746 93.5985 38.0858L93.612 38.0926C93.8422 37.6174 94.1263 37.1213 94.4582 36.5783L95.9341 34.2214H96.5231V38.7991H95.9681V36.8502C95.9681 36.1099 95.9748 35.5662 96.0223 34.989L96.0018 34.9819C95.7783 35.4845 95.4669 36.0147 95.1556 36.5236L93.7271 38.7987H93.0977V34.2211H93.6527V34.2214ZM94.3972 33.2637C94.4245 33.4744 94.4918 33.6848 94.8102 33.6848C95.1219 33.6848 95.196 33.4879 95.2236 33.2637H95.6769C95.6429 33.7118 95.3727 33.9904 94.7971 33.9904C94.2421 33.9904 93.9778 33.7118 93.9442 33.2637H94.3972Z" fill="#1A1A1A"/>
<path d="M99.9826 34.2212L101.397 36.2518H101.573V34.2212H102.149V36.2518H102.331L103.74 34.2212H104.43L102.812 36.3265C103.53 36.4011 103.821 36.8496 104.044 37.5014C104.2 37.936 104.308 38.3774 104.498 38.7985H103.895C103.74 38.4929 103.631 38.0515 103.516 37.7253C103.306 37.1005 103.076 36.7 102.345 36.7H102.149V38.7985H101.574V36.7H101.37C100.639 36.7 100.409 37.1008 100.192 37.7253C100.084 38.0515 99.9755 38.4925 99.8268 38.7985H99.2246C99.4208 38.3774 99.5289 37.936 99.678 37.5081C99.9086 36.8631 100.199 36.415 100.91 36.3265L99.2919 34.2212H99.9826Z" fill="#1A1A1A"/>
<path d="M105.983 34.221V36.1497C105.983 36.8765 105.969 37.4742 105.929 38.0855L105.942 38.0922C106.172 37.617 106.456 37.121 106.788 36.5779L108.264 34.221H108.853V38.7987H108.298V36.8498C108.298 36.1095 108.305 35.5658 108.352 34.9887L108.332 34.9816C108.108 35.4841 107.797 36.0143 107.486 36.5232L106.057 38.7984H105.428V34.2207H105.983V34.221Z" fill="#1A1A1A"/>
<path d="M110.221 34.2824C110.478 34.228 110.884 34.1875 111.297 34.1875C111.886 34.1875 112.265 34.2895 112.55 34.5201C112.786 34.6964 112.929 34.9683 112.929 35.3286C112.929 35.77 112.638 36.157 112.157 36.3336V36.3475C112.59 36.4559 113.098 36.8162 113.098 37.495C113.098 37.8888 112.942 38.188 112.712 38.4119C112.394 38.704 111.879 38.8401 111.134 38.8401C110.729 38.8401 110.417 38.8128 110.221 38.7858V34.2824H110.221ZM110.81 36.1567H111.345C111.968 36.1567 112.333 35.8308 112.333 35.3894C112.333 34.8528 111.927 34.6424 111.331 34.6424C111.06 34.6424 110.905 34.6627 110.81 34.6829V36.1567ZM110.81 38.3508C110.925 38.3714 111.094 38.3778 111.304 38.3778C111.914 38.3778 112.475 38.1539 112.475 37.4879C112.475 36.8632 111.94 36.6052 111.297 36.6052H110.81V38.3508Z" fill="#1A1A1A"/>
<path d="M118.074 36.4625C118.074 38.0379 117.12 38.8737 115.955 38.8737C114.751 38.8737 113.904 37.9366 113.904 36.5506C113.904 35.0971 114.805 34.1465 116.023 34.1465C117.269 34.1461 118.074 35.1039 118.074 36.4625ZM114.534 36.5368C114.534 37.5148 115.062 38.3908 115.989 38.3908C116.923 38.3908 117.451 37.5283 117.451 36.4892C117.451 35.5794 116.978 34.6281 115.996 34.6281C115.021 34.6284 114.534 35.5318 114.534 36.5368Z" fill="#1A1A1A"/>
<path d="M122.476 34.2212V38.7989H121.888V34.717H119.769V38.7989H119.18V34.2212H122.476Z" fill="#1A1A1A"/>
<path d="M124.4 34.221V36.1497C124.4 36.8765 124.386 37.4742 124.346 38.0855L124.359 38.0922C124.589 37.617 124.873 37.121 125.205 36.5779L126.681 34.221H127.27V38.7987H126.715V36.8498C126.715 36.1095 126.722 35.5658 126.769 34.9887L126.749 34.9816C126.525 35.4841 126.214 36.0143 125.903 36.5232L124.474 38.7984H123.845V34.2207H124.4V34.221Z" fill="#1A1A1A"/>
<path d="M131.826 38.6492C131.61 38.7576 131.176 38.8667 130.621 38.8667C129.335 38.8667 128.367 38.0518 128.367 36.5506C128.367 35.1177 129.335 34.1465 130.75 34.1465C131.318 34.1465 131.678 34.2687 131.833 34.3505L131.691 34.8327C131.468 34.7243 131.149 34.6426 130.77 34.6426C129.701 34.6426 128.99 35.3285 128.99 36.5307C128.99 37.6512 129.633 38.3712 130.744 38.3712C131.102 38.3712 131.468 38.2963 131.704 38.1811L131.826 38.6492Z" fill="#1A1A1A"/>
<path d="M133.459 34.221V36.1497C133.459 36.8765 133.446 37.4742 133.405 38.0855L133.419 38.0922C133.649 37.617 133.933 37.121 134.265 36.5779L135.741 34.221H136.33V38.7987H135.775V36.8498C135.775 36.1095 135.781 35.5658 135.829 34.9887L135.808 34.9816C135.585 35.4841 135.274 36.0143 134.962 36.5232L133.534 38.7984H132.904V34.2207H133.459V34.221Z" fill="#1A1A1A"/>
<path d="M61.1373 44.4121V44.9079H59.3029V48.9898H58.7139V44.4121H61.1373V44.4121Z" fill="#1A1A1A"/>
<path d="M62.4241 44.4121L63.3312 46.361C63.4463 46.6329 63.5543 46.8977 63.6627 47.1695H63.6762C63.7573 46.9318 63.8455 46.667 63.9606 46.3408L64.6711 44.4121H65.2942L64.3396 46.7619C64.0892 47.3735 63.8048 48.0729 63.4867 48.5004C63.1888 48.8739 62.8572 49.0644 62.451 49.0644C62.3022 49.0644 62.1938 49.0506 62.1194 49.0235L62.1807 48.5413C62.2282 48.5548 62.2958 48.5619 62.3975 48.5619C62.8711 48.5548 63.1487 48.0999 63.2908 47.774C63.3382 47.672 63.3248 47.6041 63.2702 47.4954L61.7539 44.4121H62.4241V44.4121Z" fill="#1A1A1A"/>
<path d="M66.7101 44.4121V46.3273H68.9168V44.4121H69.5129V48.9898H68.9168V46.8436H66.7101V48.9898H66.1211V44.4121H66.7101Z" fill="#1A1A1A"/>
<path d="M73.4341 44.4121V44.9079H71.464V46.1375C71.6061 46.1169 71.877 46.1034 72.0258 46.1034C72.459 46.1034 72.8855 46.1983 73.2035 46.4087C73.5489 46.6329 73.7855 46.9926 73.7855 47.5292C73.7855 47.9574 73.6435 48.2829 73.4065 48.521C73.0346 48.8878 72.4183 49.0306 71.7956 49.0306C71.3826 49.0306 71.0712 49.0033 70.875 48.9763V44.4121H73.4341V44.4121ZM71.464 48.5345C71.5993 48.5619 71.7548 48.5686 71.9581 48.5686C72.3237 48.5686 72.696 48.4531 72.9191 48.2154C73.075 48.0526 73.1695 47.8284 73.1695 47.5434C73.1695 47.1901 73.0208 46.9524 72.7976 46.796C72.5606 46.6332 72.256 46.565 71.9312 46.565C71.7959 46.565 71.6131 46.5785 71.464 46.592V48.5345V48.5345Z" fill="#1A1A1A"/>
<path d="M75.4447 44.412V46.3406C75.4447 47.0674 75.4312 47.6651 75.3905 48.2764L75.404 48.2831C75.6342 47.808 75.9183 47.3119 76.2501 46.7688L77.7261 44.412H78.3151V48.9896H77.7601V47.0407C77.7601 46.3004 77.7668 45.7567 77.8143 45.1796L77.7937 45.1725C77.5702 45.675 77.2589 46.2052 76.9476 46.7141L75.5191 48.9893H74.8896V44.4116H75.4447V44.412Z" fill="#1A1A1A"/>
</svg>
