<svg width="87" height="86" viewBox="0 0 87 86" fill="none" xmlns="http://www.w3.org/2000/svg">
<g clip-path="url(#clip0_3_3477)">
<path d="M77.45 81.8031C80.3793 81.8031 82.7571 79.4547 82.7571 76.562V9.44005C82.7571 6.54359 80.3812 4.19708 77.45 4.19522V4.6151V4.19336H9.55022V4.19522C6.62091 4.19522 4.24316 6.54174 4.24316 9.43819V76.5601C4.24316 79.4547 6.61904 81.8013 9.55022 81.8013H77.45V81.8031Z" fill="#BE1E2D"/>
<path d="M87 9.43995C87 4.22671 82.7234 0.00185789 77.4499 0.00185789H9.5501V0C4.27658 0 0 4.22485 0 9.43995V76.5619C0 81.7733 4.27658 86 9.5501 86V83.9006C5.44868 83.9006 2.12245 80.614 2.12245 76.5619V9.43995C2.12245 5.38603 5.44868 2.09942 9.5501 2.09756V2.09942H77.4499C81.5513 2.09942 84.8775 5.38603 84.8775 9.43995V76.5619C84.8775 80.6158 81.5513 83.9006 77.4499 83.9006H9.5501V86H77.4499C82.7234 86 87 81.7733 87 76.5619V9.43995Z" fill="#BE1E2D"/>
<path d="M17.9061 19.4017V25.6944H13.7935C12.0363 25.6944 10.6089 24.2861 10.6089 22.549V19.4017H17.9061ZM20.0248 19.4017H27.322V22.549C27.322 24.2861 25.8946 25.6944 24.1374 25.6944H20.0248V19.4017ZM9.55044 12.3231C8.96532 12.3231 8.48828 12.7932 8.48828 13.3729V22.549C8.48828 25.4454 10.8642 27.792 13.7953 27.792H17.9079V41.2951C17.9079 41.8748 18.3813 42.3448 18.9664 42.3448C19.5515 42.3448 20.0248 41.8748 20.0248 41.2951V27.792H24.1374H24.1411H24.4039V27.7864C27.2102 27.6489 29.4407 25.3563 29.4407 22.549V13.3729C29.4407 12.7932 28.9674 12.3231 28.3823 12.3231C27.7972 12.3231 27.3239 12.7932 27.3239 13.3729V17.3042H20.0267V10.2256C20.0267 9.64592 19.5534 9.17773 18.9682 9.17773C18.3831 9.17773 17.9061 9.64592 17.9061 10.2256V17.3042H10.6089V13.3729C10.6089 12.7932 10.1356 12.3231 9.55044 12.3231Z" fill="white"/>
<path d="M63.9907 61.5502C64.5404 61.5502 64.9839 61.9905 64.9839 62.533C64.9839 63.0755 64.5404 63.5158 63.9907 63.5158C63.441 63.5158 62.9937 63.0755 62.9937 62.533C62.9937 61.9905 63.441 61.5502 63.9907 61.5502ZM63.9907 65.6134C65.7125 65.6134 67.1063 64.2349 67.1063 62.533C67.1063 60.8312 65.7125 59.4526 63.9907 59.4526C62.2689 59.4526 60.875 60.8312 60.875 62.533C60.875 64.2349 62.2689 65.6134 63.9907 65.6134Z" fill="white"/>
<path d="M43.6323 14.4206C45.5721 14.4206 47.3722 15.0003 48.8723 15.9924V17.501C48.8723 20.3603 46.5281 22.6789 43.6323 22.6789C40.7421 22.6789 38.3942 20.3603 38.3942 17.501V15.9924C39.8924 15.0003 41.6943 14.4206 43.6323 14.4206ZM42.572 12.3714C36.6985 12.9009 32.0977 17.7834 32.0977 23.7268V23.7287C32.0977 24.3083 32.571 24.7765 33.1561 24.7765C33.7412 24.7765 34.2145 24.3083 34.2145 23.7287C34.2145 21.5252 34.9897 19.5038 36.2848 17.9097C36.419 20.3789 37.8016 22.5192 39.8216 23.7287C37.6917 25.0032 36.2699 27.3144 36.2699 29.9545V41.295C36.2699 41.8747 36.7469 42.3447 37.332 42.3447C37.9172 42.3447 38.3905 41.8747 38.3905 41.295V29.9545C38.3905 27.097 40.7347 24.7784 43.6267 24.7765C43.6286 24.7765 43.6286 24.7765 43.6286 24.7765C43.6304 24.7765 43.6304 24.7765 43.6304 24.7765C46.5244 24.7784 48.8686 27.097 48.8686 29.9545V41.295C48.8686 41.8747 49.3419 42.3447 49.927 42.3447C50.5121 42.3447 50.9891 41.8747 50.9891 41.295V29.9545C50.9891 27.3144 49.5655 25.0032 47.4374 23.7287C49.4537 22.5192 50.8401 20.3789 50.978 17.9097C52.2693 19.5038 53.0445 21.5271 53.0445 23.7287C53.0445 24.3083 53.5178 24.7765 54.1029 24.7765C54.6881 24.7765 55.1651 24.3083 55.1651 23.7287C55.1651 23.7268 55.1651 23.7268 55.1651 23.7268C55.1614 17.7815 50.5606 12.9009 44.687 12.3714V10.2905H44.6833C44.6852 10.2701 44.687 10.2478 44.687 10.2255C44.687 9.64583 44.2118 9.17578 43.6249 9.17578C43.0416 9.17578 42.5646 9.64583 42.5646 10.2255C42.5646 10.2478 42.5683 10.2701 42.5683 10.2905H42.5646V12.3714H42.572Z" fill="white"/>
<path d="M73.4057 64.6308C73.3833 64.6308 73.3628 64.629 73.3404 64.629V64.5639C73.3404 62.864 74.7343 61.4854 76.4561 61.4854H76.5213V64.6308H73.4057ZM71.272 63.7966C70.6683 63.2355 70.29 62.4385 70.29 61.5504V55.7166H72.4777C74.1995 55.7166 75.5933 54.3362 75.5933 52.6344C75.5933 52.0566 75.12 51.5865 74.5349 51.5865C73.9498 51.5865 73.4727 52.0584 73.4727 52.6344C73.4727 53.1788 73.0292 53.6172 72.4795 53.6172H70.2919V51.1276V51.1239V47.9804H73.4038H73.4075H73.4112C75.1293 47.9822 76.5232 49.3608 76.5232 51.0626C76.5232 51.0626 76.5232 51.0626 76.5232 51.0645V59.386H76.458C73.8231 59.3878 71.6503 61.3015 71.272 63.7966ZM76.5194 71.9063C76.5194 73.6081 75.1256 74.9867 73.4038 74.9867H62.9276V77.0843H73.4057C76.2996 77.0843 78.6438 74.7675 78.6438 71.91C78.6438 71.9082 78.6438 71.9063 78.6438 71.9063V51.0626C78.6438 51.0608 78.6438 51.0608 78.6438 51.0589C78.6438 48.2015 76.2996 45.8847 73.4057 45.8828H62.9276C60.0374 45.8828 57.6895 48.2015 57.6895 51.0626V71.9063C57.6895 74.7656 60.0374 77.0843 62.9276 77.0843V74.9867C61.2058 74.9867 59.8119 73.6081 59.8119 71.9063V71.9045V51.0645V51.0626C59.8119 49.3608 61.2058 47.9804 62.9276 47.9804H62.9313H68.1657V53.6172H61.9344C61.3492 53.6172 60.8722 54.0873 60.8722 54.6651C60.8722 55.2466 61.3492 55.7148 61.9344 55.7148H68.1657V61.5486C68.1657 63.635 69.4179 65.4353 71.2198 66.2528V69.1511H61.9362C61.3511 69.1511 60.8741 69.623 60.8741 70.2008C60.8741 70.7786 61.3511 71.2468 61.9362 71.2468H61.9399H72.2764H72.2801C72.8653 71.2468 73.3423 70.7786 73.3423 70.2008V66.7247C73.3647 66.7247 73.3852 66.7265 73.4075 66.7265H76.5232V71.9063C76.5195 71.9063 76.5194 71.9063 76.5194 71.9063Z" fill="white"/>
<path d="M52.6159 76.0027C52.6159 76.5842 53.0929 77.0506 53.678 77.0506C54.2632 77.0506 54.7365 76.5824 54.7365 76.0027V68.7105H54.7551C54.7551 65.8307 52.3923 63.4972 49.4853 63.4972V63.5158C47.7486 63.5047 46.3492 62.115 46.3492 60.402V58.9603H47.8399C50.7525 58.9603 53.1134 56.6249 53.1134 53.747V46.8672C53.1134 46.2857 52.6364 45.8175 52.055 45.8175C51.4661 45.8175 50.9928 46.2876 50.9928 46.8672V53.747C50.9928 55.4674 49.5804 56.8608 47.8418 56.8608H46.351V45.8844C46.351 45.8844 46.351 45.8844 46.351 45.8825C46.351 45.3029 45.8758 44.8365 45.2926 44.8365C44.7056 44.8365 44.2323 45.3047 44.2323 45.8825V45.8844V60.402C44.2323 63.2799 46.5914 65.6134 49.504 65.6134V65.5985C51.2295 65.6059 52.6271 66.9882 52.6382 68.6937H52.6196V76.0027H52.6159Z" fill="white"/>
<path d="M66.9736 19.4022V25.6949H62.861C61.1038 25.6949 59.6764 24.2866 59.6764 22.5495V19.4022H66.9736ZM69.0961 19.4022H76.3896V22.5495C76.3896 24.2866 74.9622 25.6949 73.2087 25.6949H69.0961V19.4022ZM58.618 12.3236C58.0329 12.3236 57.5596 12.7937 57.5596 13.3733V22.5495C57.5596 25.4459 59.9317 27.7924 62.8629 27.7924H66.9755V41.2956C66.9755 41.8753 67.4488 42.3453 68.0339 42.3453C68.619 42.3453 69.0961 41.8753 69.0961 41.2956V27.7924H73.4714V27.7869C76.2778 27.6494 78.512 25.3568 78.512 22.5495V13.3733C78.512 12.7937 78.035 12.3236 77.4499 12.3236C76.8666 12.3236 76.3914 12.7937 76.3914 13.3733V17.3046H69.0961V10.2261C69.0961 9.64641 68.619 9.17822 68.0339 9.17822C67.4488 9.17822 66.9755 9.64641 66.9755 10.2261V17.3046H59.6783V13.3733C59.6764 12.7937 59.2031 12.3236 58.618 12.3236Z" fill="white"/>
<path d="M13.1632 61.5166C13.3532 61.5166 13.5414 61.5054 13.7241 61.4831V69.8065C13.7241 69.8084 13.7241 69.8084 13.7241 69.8102C13.7278 73.827 17.0223 77.082 21.0865 77.082H28.3762H28.38C28.9651 77.082 29.4421 76.612 29.4421 76.0342C29.4421 75.4564 28.9651 74.9863 28.38 74.9863H21.0865C18.1926 74.9863 15.8484 72.6677 15.8484 69.8084V68.3685H17.9019C17.9131 68.3685 17.9242 68.3648 17.9391 68.3648V68.3685C20.8517 68.3685 23.2089 66.0331 23.2089 63.1552V61.4961C23.3729 61.511 23.5406 61.5184 23.7083 61.5184C26.6172 61.5184 28.9781 59.1849 28.9781 56.3071C28.9781 56.3071 28.9781 56.3071 28.9781 56.3033C28.9781 53.4812 26.7066 51.1867 23.8723 51.0994V51.0938H23.7083H23.2089V47.98H24.3363C24.9196 47.98 25.3947 47.5118 25.3947 46.934C25.3947 46.3525 24.9177 45.8843 24.3363 45.8843H22.1486C21.5598 45.8843 21.0865 46.3543 21.0865 46.934V52.1454C21.0865 52.7269 21.5598 53.1932 22.1486 53.1932H23.7065C25.4432 53.1932 26.8538 54.5866 26.8538 56.3071C26.8538 58.0275 25.4413 59.4209 23.7065 59.4209C23.535 59.4209 23.3673 59.406 23.2071 59.3819V57.3568C23.2071 56.7752 22.73 56.3089 22.1486 56.3089C21.5598 56.3089 21.0865 56.7771 21.0865 57.3568V63.1571C21.0865 64.8794 19.6777 66.2728 17.9391 66.2728C17.9242 66.2728 17.9131 66.2728 17.9019 66.2728H15.8502V57.3568C15.8502 56.7752 15.3732 56.3089 14.7881 56.3089C14.203 56.3089 13.7259 56.7771 13.7259 57.3568V59.3707C13.5433 59.4042 13.3551 59.4209 13.165 59.4209C11.4246 59.4209 10.014 58.0275 10.014 56.3071C10.014 54.5904 11.4227 53.1969 13.1594 53.1932H14.8552C15.4403 53.1932 15.9173 52.725 15.9173 52.1454V46.934C15.9173 46.3525 15.4403 45.8843 14.8552 45.8843H12.6656C12.0805 45.8843 11.6072 46.3543 11.6072 46.934C11.6072 47.5136 12.0805 47.98 12.6656 47.98H13.793V51.0938H13.1632C13.1594 51.0938 13.1594 51.0938 13.1557 51.0938H13.1315V51.0957C10.2338 51.1142 7.88965 53.4403 7.88965 56.3071C7.88965 59.1831 10.2525 61.5166 13.1632 61.5166Z" fill="white"/>
<path d="M34.7144 67.7758C34.6957 69.4795 33.2944 70.8562 31.567 70.8562C30.9819 70.8562 30.5049 71.3263 30.5049 71.9041C30.5049 72.4819 30.9819 72.9519 31.567 72.9519V72.9854C34.4796 72.9854 36.8368 70.6519 36.8368 67.774V50.1091C38.5773 50.1091 39.9842 51.5026 39.9842 53.223C39.9842 53.2341 39.9842 53.2453 39.9842 53.2564H40.0214H39.9842V73.3458H42.1066V53.4794C42.129 53.3995 42.1439 53.3121 42.1439 53.2248C42.1439 53.1189 42.1253 53.0186 42.0973 52.922C41.9221 50.2002 39.6376 48.045 36.8387 48.045H34.7162C34.1311 48.045 33.6578 47.5768 33.6578 46.999C33.6578 46.4175 33.1808 45.9512 32.5957 45.9512C32.0105 45.9512 31.5335 46.4194 31.5335 46.999C31.5335 46.999 31.5335 46.999 31.5335 47.0027C31.5372 48.738 32.9646 50.1444 34.7181 50.1444V67.7758H34.7144Z" fill="white"/>
<path d="M43.5648 76.4952C44.1499 76.4952 44.6251 76.0252 44.6251 75.4492C44.6251 74.8677 44.1499 74.3995 43.5648 74.3995H43.1661C42.5809 74.3995 42.1039 73.9295 42.1039 73.3535H39.9814C39.9814 75.0442 41.3362 76.4246 43.0319 76.4934V76.4971H43.5648V76.4952Z" fill="white"/>
</g>
<defs>
<clipPath id="clip0_3_3477">
<rect width="87" height="86" fill="white"/>
</clipPath>
</defs>
</svg>
