<svg width="150" height="57" viewBox="0 0 150 57" fill="none" xmlns="http://www.w3.org/2000/svg">
<path d="M71.5569 8.77199C70.7383 8.77199 70.0207 8.63701 69.407 8.369C68.7943 8.10002 68.3194 7.71645 67.9815 7.21829C67.6407 6.72014 67.4727 6.1239 67.4727 5.43542C67.4727 4.73723 67.6416 4.14099 67.9776 3.64381C68.3146 3.14663 68.7884 2.765 69.3992 2.49796C70.0091 2.23189 70.7296 2.09982 71.5579 2.09982H71.7113V3.13886H71.3686C70.8141 3.13886 70.3315 3.23014 69.9188 3.40784C69.5061 3.58749 69.1856 3.8487 68.9574 4.19149C68.7302 4.53427 68.6156 4.94795 68.6156 5.43445C68.6156 5.92095 68.7292 6.3356 68.9574 6.67741C69.1856 7.01922 69.5061 7.28238 69.9188 7.46203C70.3315 7.6407 70.8141 7.73101 71.3686 7.73101H71.7113V8.77005H71.5569V8.77199ZM71.2549 10.0276V0.844238H72.3688V10.0276H71.2549V10.0276ZM71.9133 8.77199V7.73295H72.2571C72.8106 7.73295 73.2942 7.64167 73.7069 7.46397C74.1167 7.28432 74.4381 7.02117 74.6673 6.67935C74.8945 6.33657 75.0091 5.92289 75.0091 5.43639C75.0091 4.94989 74.8955 4.53525 74.6673 4.19343C74.4381 3.85065 74.1167 3.58943 73.7069 3.40978C73.2942 3.23111 72.8106 3.1408 72.2571 3.1408H71.9133V2.10176H72.0648C72.8737 2.10176 73.5835 2.23771 74.1963 2.50961C74.81 2.78345 75.2878 3.16896 75.6325 3.66615C75.9772 4.16721 76.1491 4.75665 76.1491 5.43639C76.1491 6.12487 75.9792 6.72111 75.6422 7.21926C75.3033 7.71742 74.8275 8.10001 74.2147 8.36997C73.601 8.63798 72.8854 8.77296 72.0638 8.77296H71.9133V8.77199Z" fill="#EA4646"/>
<path d="M78.9219 9.87403V0.996582H84.1996V2.03465H80.0269V4.76333H82.7789V5.80237H80.0269V8.82237H84.4783V9.87403H78.9219Z" fill="#EA4646"/>
<path d="M90.5729 10.0276C89.9 10.0276 89.33 9.89649 88.859 9.6343C88.39 9.37211 88.0112 9.02059 87.7248 8.57778C87.4354 8.13692 87.2266 7.64265 87.0936 7.09789C86.9606 6.55215 86.8936 5.99961 86.8936 5.4364C86.8936 4.87804 86.9615 4.32744 87.1004 3.78462C87.2383 3.24083 87.4509 2.74753 87.7432 2.30472C88.0355 1.86095 88.4133 1.50651 88.8823 1.24238C89.3494 0.97825 89.9136 0.845215 90.5729 0.845215C91.1186 0.845215 91.5809 0.9229 91.9586 1.07924C92.3364 1.23655 92.6452 1.43562 92.884 1.67839C93.1239 1.92115 93.3074 2.17751 93.4385 2.44261L92.4471 2.95048C92.3082 2.74267 92.1577 2.55817 91.9907 2.396C91.8266 2.23286 91.6323 2.10371 91.4032 2.01146C91.175 1.91824 90.8972 1.8726 90.5729 1.8726C90.099 1.8726 89.6999 1.98039 89.3746 2.19499C89.0474 2.41154 88.7871 2.69412 88.591 3.04467C88.3938 3.3962 88.2511 3.78074 88.1656 4.20024C88.0773 4.61779 88.0345 5.02952 88.0345 5.43543C88.0345 5.87629 88.085 6.30647 88.1802 6.72888C88.2783 7.15226 88.4298 7.53292 88.6376 7.87376C88.8444 8.21558 89.1066 8.48553 89.4271 8.68654C89.7456 8.88658 90.1272 8.98757 90.5719 8.98757C91.0614 8.98757 91.4537 8.88367 91.7518 8.67392C92.048 8.46417 92.2965 8.19227 92.4985 7.8592L93.5152 8.23985C93.3618 8.56904 93.155 8.87104 92.8918 9.141C92.6316 9.41193 92.3082 9.62653 91.9266 9.78773C91.544 9.94698 91.0924 10.0276 90.5729 10.0276Z" fill="#EA4646"/>
<path d="M98.2096 9.87403V2.04921H95.7363V0.996582H101.786V2.04921H99.3128V9.875H98.2096V9.87403Z" fill="#EA4646"/>
<path d="M104.609 9.87403V0.996577H105.7V7.17253C105.7 7.27838 105.697 7.4085 105.69 7.56193C105.683 7.71536 105.675 7.8581 105.663 7.98434C105.722 7.86296 105.786 7.73381 105.855 7.60077C105.924 7.46676 105.988 7.35509 106.043 7.2609L109.95 0.995605H111.092V9.87403H109.987V3.84956C109.987 3.63689 109.991 3.45919 109.998 3.31062C110.003 3.16205 110.012 3.03872 110.025 2.93579C109.97 3.04163 109.892 3.17564 109.797 3.33878C109.7 3.50095 109.619 3.63301 109.556 3.73594L105.686 9.87306H104.609V9.87403Z" fill="#EA4646"/>
<path d="M114.479 9.87403V0.996582H117.624C118.325 0.996582 118.876 1.10825 119.278 1.33548C119.68 1.56271 119.966 1.855 120.135 2.21429C120.304 2.57262 120.387 2.95036 120.387 3.34267C120.387 3.74954 120.275 4.11466 120.046 4.44094C119.817 4.76625 119.496 5.01775 119.081 5.19448C119.425 5.3013 119.716 5.45667 119.96 5.65962C120.204 5.86549 120.386 6.10922 120.515 6.39277C120.641 6.67438 120.704 6.98707 120.704 7.32499C120.704 7.62602 120.656 7.92511 120.559 8.22711C120.462 8.52717 120.302 8.80198 120.081 9.05057C119.858 9.30111 119.563 9.50115 119.193 9.64972C118.823 9.80023 118.368 9.87403 117.826 9.87403H114.479V9.87403ZM115.581 4.76333H117.407C118.036 4.76333 118.51 4.63418 118.824 4.37588C119.141 4.11855 119.296 3.77965 119.296 3.35529C119.296 3.13972 119.255 2.92802 119.173 2.71925C119.091 2.50853 118.934 2.33762 118.701 2.2007C118.47 2.06572 118.131 1.99872 117.685 1.99872H115.581V4.76333ZM115.581 8.86024H117.952C118.387 8.86024 118.726 8.78839 118.967 8.6437C119.209 8.49998 119.377 8.31742 119.472 8.09213C119.567 7.86879 119.613 7.63768 119.613 7.40268C119.613 7.11719 119.557 6.85306 119.443 6.60155C119.329 6.35199 119.122 6.15098 118.823 5.99755C118.526 5.84121 118.1 5.76644 117.546 5.76644H115.581V8.86024Z" fill="#EA4646"/>
<path d="M122.773 9.87403L125.92 0.995605H126.947L130.093 9.87403H128.964L128.203 7.70662H124.677L123.929 9.87403H122.773ZM125.005 6.72876H127.86L126.716 3.44365C126.688 3.35917 126.655 3.26109 126.619 3.14845C126.584 3.03678 126.549 2.92608 126.514 2.81732C126.481 2.71147 126.456 2.61728 126.438 2.54251C126.418 2.61728 126.39 2.71147 126.359 2.81732C126.328 2.92608 126.294 3.03678 126.258 3.14845C126.223 3.26012 126.19 3.35917 126.159 3.44365L125.005 6.72876Z" fill="#EA4646"/>
<path d="M132.915 10.0275L132.408 9.12729C132.771 9.0127 133.065 8.8719 133.285 8.70196C133.507 8.53203 133.674 8.31159 133.791 8.03678C133.904 7.76197 133.983 7.40948 134.03 6.98221L134.677 0.996582H135.781L135.097 7.19876C135.007 8.01154 134.792 8.63787 134.448 9.08165C134.107 9.52737 133.594 9.84199 132.915 10.0275ZM139.244 9.87403V2.03465H134.855L135.058 0.996582H140.348V9.875H139.244V9.87403Z" fill="#EA4646"/>
<path d="M143.734 9.87403V0.996582H144.839V4.75071H147.071C147.611 4.75071 148.07 4.82839 148.443 4.98182C148.818 5.13622 149.118 5.34014 149.348 5.59359C149.575 5.84801 149.742 6.12379 149.847 6.42482C149.949 6.72488 150.001 7.01911 150.001 7.31334C150.001 7.59981 149.949 7.89404 149.847 8.19507C149.743 8.49415 149.576 8.77091 149.348 9.02435C149.119 9.27877 148.818 9.48367 148.443 9.64001C148.07 9.79732 147.611 9.87403 147.071 9.87403H143.734V9.87403ZM144.838 8.84762H147.171C147.628 8.84762 147.981 8.77188 148.229 8.61942C148.48 8.46793 148.653 8.27372 148.749 8.0397C148.848 7.8047 148.896 7.56193 148.896 7.31431C148.896 7.06766 148.847 6.82975 148.749 6.59573C148.652 6.36461 148.48 6.1704 148.229 6.01892C147.981 5.86743 147.628 5.79266 147.171 5.79266H144.838V8.84762Z" fill="#EA4646"/>
<path d="M68.1074 25.0977V16.2183H69.2125V20.5676L72.6743 16.2183H73.9173L71.4683 19.2868L74.6407 25.0967H73.3609L70.7225 20.2132L69.2125 22.065V25.0967H68.1074V25.0977Z" fill="#EA4646"/>
<path d="M77.4111 25.0976V16.2183H78.5016V22.3942C78.5016 22.5001 78.4987 22.6302 78.4929 22.7846C78.4861 22.938 78.4764 23.0798 78.4657 23.205C78.523 23.0837 78.589 22.9555 78.658 22.8224C78.7269 22.6884 78.79 22.5758 78.8454 22.4826L82.752 16.2173H83.893V25.0967H82.7898V19.0712C82.7898 18.8586 82.7928 18.6799 82.7986 18.5323C82.8054 18.3837 82.8141 18.2604 82.8287 18.1575C82.7714 18.2623 82.6966 18.3973 82.5985 18.5595C82.5014 18.7226 82.4208 18.8557 82.3587 18.9557L78.49 25.0957H77.4111V25.0976Z" fill="#EA4646"/>
<path d="M89.1823 25.0977V17.2709H86.71V16.2183H92.7606V17.2709H90.2864V25.0977H89.1823Z" fill="#EA4646"/>
<path d="M93.5723 25.0977L96.7175 16.2183H97.7439L100.891 25.0977H99.7618L99.0005 22.9283H95.4736L94.7259 25.0977H93.5723ZM95.8038 21.9514H98.6577L97.5157 18.6653C97.4866 18.5809 97.4546 18.4828 97.4167 18.3721C97.3827 18.2585 97.3468 18.1487 97.3128 18.04C97.2788 17.9332 97.2545 17.8409 97.2371 17.7661C97.2167 17.8409 97.1895 17.9332 97.1594 18.04C97.1273 18.1478 97.0924 18.2585 97.0574 18.3721C97.0215 18.4828 96.9894 18.5809 96.9584 18.6653L95.8038 21.9514Z" fill="#EA4646"/>
<path d="M103.479 25.0977V16.2183H104.57V22.3942C104.57 22.5001 104.568 22.6302 104.561 22.7846C104.555 22.938 104.546 23.0798 104.534 23.2051C104.591 23.0837 104.657 22.9555 104.726 22.8225C104.795 22.6885 104.858 22.5758 104.913 22.4826L108.819 16.2173H109.96V25.0967H108.858V19.0712C108.858 18.8586 108.861 18.6799 108.867 18.5323C108.874 18.3837 108.882 18.2604 108.895 18.1575C108.84 18.2624 108.763 18.3973 108.668 18.5595C108.57 18.7226 108.489 18.8557 108.426 18.9557L104.557 25.0957H103.479V25.0977ZM106.689 15.356C106.131 15.356 105.666 15.2618 105.295 15.0724C104.925 14.885 104.649 14.6354 104.466 14.3218C104.281 14.0101 104.189 13.6644 104.189 13.2886H105.179C105.179 13.5216 105.245 13.7236 105.378 13.8935C105.513 14.0645 105.693 14.1975 105.921 14.2897C106.149 14.3839 106.404 14.4296 106.689 14.4296C106.972 14.4296 107.229 14.3839 107.459 14.2897C107.69 14.1975 107.872 14.0645 108.008 13.8935C108.143 13.7236 108.211 13.5216 108.211 13.2886H109.2C109.2 13.6653 109.107 14.0101 108.921 14.3218C108.735 14.6354 108.456 14.885 108.085 15.0724C107.711 15.2618 107.246 15.356 106.689 15.356Z" fill="#EA4646"/>
<path d="M116.646 25.2478C115.974 25.2478 115.404 25.1167 114.934 24.8555C114.464 24.5943 114.087 24.2427 113.798 23.7999C113.511 23.3591 113.3 22.8638 113.167 22.3181C113.035 21.7733 112.968 21.2208 112.968 20.6566C112.968 20.0983 113.037 19.5467 113.175 19.0048C113.312 18.461 113.526 17.9687 113.816 17.5249C114.11 17.0812 114.487 16.7277 114.957 16.4626C115.423 16.1994 115.988 16.0654 116.646 16.0654C117.193 16.0654 117.654 16.1441 118.032 16.3014C118.41 16.4568 118.719 16.6568 118.959 16.8996C119.196 17.1414 119.384 17.3987 119.513 17.6638L118.523 18.1717C118.382 17.9629 118.231 17.7794 118.066 17.6162C117.903 17.4521 117.705 17.3249 117.477 17.2326C117.248 17.1394 116.971 17.0928 116.646 17.0928C116.173 17.0928 115.773 17.2006 115.449 17.4152C115.122 17.6318 114.861 17.9143 114.664 18.2649C114.467 18.6154 114.325 19 114.239 19.4195C114.151 19.838 114.109 20.2497 114.109 20.6547C114.109 21.0946 114.157 21.5267 114.253 21.9491C114.352 22.3715 114.504 22.7541 114.711 23.093C114.918 23.4358 115.181 23.7067 115.5 23.9058C115.82 24.1068 116.2 24.2078 116.645 24.2078C117.135 24.2078 117.529 24.1039 117.825 23.8951C118.122 23.6854 118.37 23.4125 118.573 23.0794L119.588 23.4591C119.437 23.7893 119.228 24.0893 118.967 24.3602C118.704 24.6321 118.38 24.8477 118.001 25.0079C117.617 25.1691 117.167 25.2478 116.646 25.2478Z" fill="#EA4646"/>
<path d="M122.391 25.0977V16.2183H123.497V20.5676L126.959 16.2183H128.201L125.753 19.2868L128.926 25.0967H127.643L125.006 20.2132L123.497 22.065V25.0967H122.391V25.0977Z" fill="#EA4646"/>
<path d="M134.823 25.2478C134.126 25.2478 133.537 25.1147 133.053 24.8467C132.572 24.5768 132.185 24.2204 131.895 23.7747C131.602 23.328 131.39 22.8337 131.257 22.2938C131.124 21.752 131.058 21.2072 131.058 20.6556C131.058 20.107 131.124 19.5603 131.257 19.0194C131.391 18.4785 131.602 17.9852 131.895 17.5385C132.186 17.0928 132.572 16.7364 133.053 16.4665C133.537 16.1994 134.126 16.0635 134.823 16.0635C135.526 16.0635 136.118 16.1994 136.599 16.4665C137.082 16.7355 137.47 17.0928 137.761 17.5385C138.051 17.9852 138.264 18.4795 138.393 19.0194C138.525 19.5603 138.59 20.106 138.59 20.6556C138.59 21.2062 138.525 21.752 138.393 22.2938C138.263 22.8347 138.05 23.328 137.761 23.7747C137.469 24.2204 137.082 24.5758 136.599 24.8467C136.118 25.1157 135.525 25.2478 134.823 25.2478ZM134.823 24.2087C135.314 24.2087 135.726 24.101 136.061 23.8854C136.395 23.6698 136.664 23.3853 136.868 23.0328C137.073 22.6793 137.221 22.2948 137.313 21.8782C137.404 21.4616 137.449 21.0538 137.449 20.6566C137.449 20.2216 137.404 19.7933 137.313 19.3729C137.221 18.9524 137.073 18.5708 136.868 18.226C136.664 17.8803 136.396 17.6055 136.061 17.3997C135.726 17.1948 135.313 17.0938 134.823 17.0938C134.336 17.0938 133.927 17.2016 133.592 17.4162C133.258 17.6327 132.989 17.9163 132.784 18.2688C132.58 18.6213 132.43 19.0077 132.337 19.4263C132.243 19.8448 132.196 20.2556 132.196 20.6566C132.196 21.0916 132.243 21.5208 132.337 21.9413C132.43 22.3618 132.58 22.7434 132.784 23.0862C132.989 23.43 133.258 23.7019 133.592 23.9058C133.927 24.1068 134.336 24.2087 134.823 24.2087Z" fill="#EA4646"/>
<path d="M141.591 25.0977V16.2183H142.681V22.3942C142.681 22.5001 142.678 22.6302 142.672 22.7846C142.666 22.938 142.657 23.0798 142.644 23.2051C142.703 23.0837 142.768 22.9555 142.838 22.8225C142.907 22.6885 142.97 22.5758 143.024 22.4826L146.932 16.2173H148.071V25.0967H146.969V19.0712C146.969 18.8586 146.972 18.6799 146.979 18.5323C146.985 18.3837 146.994 18.2604 147.006 18.1575C146.951 18.2624 146.875 18.3973 146.779 18.5595C146.68 18.7226 146.601 18.8557 146.537 18.9557L142.668 25.0957H141.591V25.0977ZM144.8 15.356C144.244 15.356 143.778 15.2618 143.407 15.0724C143.037 14.885 142.76 14.6354 142.577 14.3218C142.393 14.0101 142.302 13.6644 142.302 13.2886H143.291C143.291 13.5216 143.358 13.7236 143.491 13.8935C143.624 14.0645 143.805 14.1975 144.034 14.2897C144.261 14.3839 144.518 14.4296 144.801 14.4296C145.084 14.4296 145.341 14.3839 145.571 14.2897C145.802 14.1975 145.985 14.0645 146.12 13.8935C146.255 13.7236 146.325 13.5216 146.325 13.2886H147.312C147.312 13.6653 147.218 14.0101 147.033 14.3218C146.847 14.6354 146.568 14.885 146.197 15.0724C145.823 15.2618 145.357 15.356 144.8 15.356Z" fill="#EA4646"/>
<path d="M67.4355 40.3188L70.3526 34.2186L71.0887 35.0916L68.6018 40.3188H67.4355V40.3188ZM72.7754 38.2379L67.69 31.4395H68.9825L72.7754 36.5764V38.2379V38.2379ZM72.321 40.3188V31.4395H73.4231V40.3188H72.321ZM72.9657 38.2379V36.5764L76.7597 31.4395H78.0522L72.9657 38.2379ZM77.1394 40.3188L74.6525 35.0916L75.3885 34.2186L78.3066 40.3188H77.1394Z" fill="#EA4646"/>
<path d="M81.0518 40.3188V31.4395H82.1432V37.6164C82.1432 37.7222 82.1403 37.8504 82.1345 38.0058C82.1277 38.1592 82.119 38.3019 82.1054 38.4272C82.1646 38.3058 82.2297 38.1776 82.2986 38.0446C82.3675 37.9106 82.4307 37.7989 82.485 37.7038L86.3916 31.4385H87.5346V40.3179H86.4305V34.2934C86.4305 34.0807 86.4334 33.9021 86.4392 33.7535C86.446 33.6049 86.4547 33.4816 86.4674 33.3777C86.411 33.4826 86.3353 33.6205 86.2401 33.7826C86.1421 33.9448 86.0624 34.0759 85.9974 34.1788L82.1296 40.3169H81.0518V40.3188Z" fill="#EA4646"/>
<path d="M90.9209 40.3188V31.4395H94.0681C94.7692 31.4395 95.3208 31.5521 95.7218 31.7784C96.1239 32.0046 96.4093 32.2979 96.5793 32.6572C96.7473 33.0165 96.8327 33.3923 96.8327 33.7865C96.8327 34.1914 96.7191 34.5575 96.489 34.8819C96.2608 35.2091 95.9394 35.4596 95.5257 35.6383C95.8685 35.7432 96.1617 35.8986 96.4035 36.1035C96.6482 36.3093 96.8318 36.5531 96.958 36.8356C97.0852 37.1192 97.1483 37.4299 97.1483 37.7679C97.1483 38.0689 97.1007 38.368 97.0027 38.669C96.9046 38.97 96.7453 39.2449 96.5249 39.4944C96.3016 39.744 96.0064 39.943 95.6374 40.0936C95.2664 40.2421 94.811 40.3179 94.2701 40.3179H90.9209V40.3188ZM92.026 35.2052H93.8525C94.4808 35.2052 94.9547 35.078 95.2693 34.8197C95.5859 34.5624 95.7413 34.2215 95.7413 33.7982C95.7413 33.5826 95.6995 33.3709 95.6179 33.1621C95.5364 32.9524 95.3771 32.7795 95.145 32.6455C94.9129 32.5096 94.576 32.4426 94.1303 32.4426H92.026V35.2052V35.2052ZM92.026 39.3041H94.3963C94.8323 39.3041 95.1703 39.2322 95.4111 39.0875C95.6529 38.9438 95.8199 38.7603 95.9151 38.536C96.0112 38.3136 96.0588 38.0825 96.0588 37.8456C96.0588 37.563 96.0015 37.2959 95.8859 37.0464C95.7733 36.7968 95.5665 36.5958 95.2683 36.4395C94.9702 36.286 94.5439 36.2093 93.9914 36.2093H92.026V39.3041V39.3041Z" fill="#EA4646"/>
<path d="M103.549 40.4704C102.851 40.4704 102.261 40.3364 101.781 40.0684C101.298 39.8004 100.911 39.4421 100.62 38.9964C100.327 38.5487 100.116 38.0573 99.9823 37.5145C99.8492 36.9736 99.7832 36.4289 99.7832 35.8783C99.7832 35.3296 99.8492 34.7839 99.9823 34.242C100.117 33.7002 100.327 33.2088 100.62 32.7621C100.912 32.3145 101.298 31.9581 101.781 31.6901C102.261 31.4211 102.852 31.2861 103.549 31.2861C104.252 31.2861 104.843 31.4211 105.326 31.6901C105.807 31.9571 106.195 32.3145 106.486 32.7621C106.777 33.2088 106.989 33.7012 107.121 34.242C107.251 34.7839 107.317 35.3287 107.317 35.8783C107.317 36.4279 107.251 36.9736 107.121 37.5145C106.988 38.0583 106.777 38.5487 106.486 38.9964C106.194 39.4421 105.807 39.7994 105.326 40.0684C104.843 40.3374 104.251 40.4704 103.549 40.4704ZM103.549 39.4314C104.04 39.4314 104.452 39.3236 104.786 39.108C105.12 38.8925 105.388 38.6079 105.595 38.2545C105.799 37.901 105.948 37.5155 106.039 37.1009C106.129 36.6833 106.176 36.2764 106.176 35.8793C106.176 35.4433 106.129 35.015 106.039 34.5965C105.948 34.175 105.799 33.7924 105.595 33.4458C105.388 33.102 105.12 32.8272 104.786 32.6233C104.451 32.4174 104.039 32.3155 103.549 32.3155C103.063 32.3155 102.653 32.4223 102.319 32.6379C101.985 32.8544 101.716 33.1389 101.51 33.4904C101.305 33.8439 101.156 34.2304 101.062 34.6479C100.971 35.0665 100.923 35.4772 100.923 35.8793C100.923 36.3153 100.971 36.7435 101.062 37.164C101.156 37.5844 101.305 37.9661 101.51 38.3089C101.716 38.6526 101.985 38.9235 102.319 39.1275C102.653 39.3285 103.063 39.4314 103.549 39.4314Z" fill="#EA4646"/>
<path d="M110.316 40.3188V31.4395H116.582V40.3188H115.491V32.5047H111.421V40.3188H110.316Z" fill="#EA4646"/>
<path d="M119.969 40.3188V31.4395H121.059V37.6164C121.059 37.7222 121.057 37.8504 121.051 38.0058C121.045 38.1592 121.035 38.3019 121.023 38.4272C121.082 38.3058 121.146 38.1776 121.216 38.0446C121.285 37.9106 121.348 37.7989 121.403 37.7038L125.309 31.4385H126.452V40.3179H125.347V34.2934C125.347 34.0807 125.349 33.9021 125.357 33.7535C125.364 33.6049 125.374 33.4816 125.386 33.3777C125.329 33.4826 125.253 33.6205 125.156 33.7826C125.06 33.9448 124.979 34.0759 124.916 34.1788L121.049 40.3169H119.969V40.3188Z" fill="#EA4646"/>
<path d="M133.137 40.4705C132.466 40.4705 131.895 40.3384 131.425 40.0781C130.956 39.816 130.578 39.4635 130.289 39.0207C130.003 38.5817 129.791 38.0865 129.659 37.5417C129.525 36.995 129.459 36.4415 129.459 35.8793C129.459 35.3219 129.527 34.7693 129.665 34.2285C129.804 33.6837 130.016 33.1904 130.31 32.7457C130.6 32.3048 130.981 31.9494 131.449 31.6843C131.915 31.4211 132.478 31.2881 133.137 31.2881C133.683 31.2881 134.145 31.3667 134.524 31.5221C134.903 31.6794 135.211 31.8795 135.449 32.1222C135.688 32.365 135.875 32.6214 136.004 32.8855L135.014 33.3924C134.875 33.1865 134.723 33.001 134.558 32.8379C134.394 32.6748 134.196 32.5466 133.969 32.4543C133.74 32.3611 133.463 32.3145 133.137 32.3145C132.663 32.3145 132.264 32.4213 131.94 32.6369C131.614 32.8534 131.354 33.138 131.155 33.4866C130.959 33.8381 130.817 34.2226 130.73 34.6431C130.642 35.0607 130.599 35.4714 130.599 35.8773C130.599 36.3172 130.649 36.7474 130.746 37.1727C130.845 37.5951 130.995 37.9758 131.202 38.3157C131.411 38.6584 131.672 38.9274 131.992 39.1275C132.311 39.3285 132.693 39.4304 133.136 39.4304C133.628 39.4304 134.02 39.3256 134.317 39.1178C134.612 38.907 134.864 38.6361 135.066 38.3021L136.081 38.6827C135.929 39.0109 135.72 39.312 135.459 39.5839C135.196 39.8529 134.874 40.0684 134.492 40.2296C134.108 40.3899 133.658 40.4705 133.137 40.4705Z" fill="#EA4646"/>
<path d="M138.883 40.3188V31.4395H139.973V37.6164C139.973 37.7222 139.97 37.8504 139.964 38.0058C139.958 38.1592 139.947 38.3019 139.936 38.4272C139.996 38.3058 140.059 38.1776 140.13 38.0446C140.199 37.9106 140.261 37.7989 140.317 37.7038L144.222 31.4385H145.364V40.3179H144.26V34.2934C144.26 34.0807 144.262 33.9021 144.269 33.7535C144.275 33.6049 144.287 33.4816 144.299 33.3777C144.243 33.4826 144.166 33.6205 144.07 33.7826C143.974 33.9448 143.894 34.0759 143.829 34.1788L139.961 40.3169H138.883V40.3188Z" fill="#EA4646"/>
<path d="M68.1074 55.5425V46.6621H73.423V47.7002H69.2125V55.5415H68.1074V55.5425Z" fill="#EA4646"/>
<path d="M76.7079 55.6925L76.137 54.7671C76.5341 54.7341 76.8575 54.6913 77.109 54.6428C77.3576 54.5942 77.5615 54.5195 77.7247 54.4185C77.8839 54.3165 78.0276 54.1708 78.1548 53.9815C78.2811 53.7902 78.417 53.5416 78.5598 53.2328L75.4902 46.6626H76.7342L78.9278 51.5577C78.9657 51.6383 78.9977 51.715 79.0259 51.7898C79.055 51.8626 79.0841 51.9423 79.1133 52.0277C79.1424 51.9423 79.1735 51.8626 79.2055 51.7898C79.2366 51.715 79.2735 51.6325 79.3153 51.5393L81.5283 46.6626H82.7596L79.5629 53.4979C79.3696 53.9087 79.1822 54.2476 79.0055 54.5175C78.8268 54.7846 78.6374 54.9992 78.4306 55.1575C78.2257 55.3157 77.9849 55.4352 77.7081 55.5158C77.4304 55.5944 77.0983 55.6556 76.7079 55.6925Z" fill="#EA4646"/>
<path d="M85.4531 55.5425V46.6621H86.5572V50.4153H90.7444V46.6621H91.8466V55.5425H90.7444V51.4572H86.5572V55.5425H85.4531V55.5425Z" fill="#EA4646"/>
<path d="M95.2344 55.542V46.6616H96.3394V50.4148H98.5719C99.1118 50.4148 99.5711 50.4925 99.944 50.6469C100.318 50.8013 100.619 51.0042 100.848 51.2586C101.077 51.5131 101.243 51.7888 101.346 52.0899C101.449 52.3889 101.503 52.6851 101.503 52.9784C101.503 53.2648 101.449 53.5591 101.346 53.8591C101.244 54.1592 101.077 54.4369 100.848 54.6884C100.62 54.9419 100.318 55.1487 99.944 55.3041C99.5711 55.4604 99.1118 55.54 98.5719 55.54H95.2344V55.542ZM95.4898 47.7007V46.6626H100.614V47.7007H95.4898ZM96.3394 54.5127H98.6719C99.1293 54.5127 99.4828 54.4379 99.7314 54.2845C99.9809 54.133 100.156 53.9407 100.251 53.7047C100.348 53.4707 100.397 53.227 100.397 52.9794C100.397 52.7337 100.347 52.4948 100.251 52.2617C100.155 52.0297 99.9809 51.8364 99.7314 51.6849C99.4828 51.5325 99.1293 51.4567 98.6719 51.4567H96.3394V54.5127Z" fill="#EA4646"/>
<path d="M104.424 55.5425V46.6621H105.515V52.839C105.515 52.9429 105.512 53.074 105.505 53.2284C105.499 53.3819 105.488 53.5246 105.476 53.6499C105.536 53.5285 105.601 53.3993 105.67 53.2653C105.739 53.1333 105.801 53.0206 105.856 52.9255L109.764 46.6611H110.905V55.5415H109.802V49.5161C109.802 49.3034 109.804 49.1257 109.811 48.9761C109.816 48.8285 109.827 48.7052 109.839 48.6013C109.784 48.7072 109.707 48.8421 109.61 49.0053C109.513 49.1674 109.434 49.2995 109.37 49.4015L105.502 55.5415H104.424V55.5425Z" fill="#EA4646"/>
<path d="M22.9608 42.1631C22.7986 42.6642 22.6384 43.1798 22.4762 43.711C22.3014 43.1536 22.1305 42.6341 21.9654 42.1534L7.89182 0.0986328H0L19.2979 56.5038H25.4331L44.6922 0.0986328H36.7965L22.9608 42.1631Z" fill="#EA4646"/>
<path d="M56.8322 0.0986328H49.4443V56.5038H56.8322V0.0986328Z" fill="#EA4646"/>
</svg>
