<svg width="130" height="86" viewBox="0 0 130 86" fill="none" xmlns="http://www.w3.org/2000/svg">
<g clip-path="url(#clip0_3_3524)">
<path d="M20.7718 72.1812H14.3926V83.1762H12.738V70.7079H20.7718V72.1812Z" fill="#58595B"/>
<path d="M39.874 81.7196H38.6957V70.7079H37.0411V81.7196H30.9194V70.7079H29.2649V83.1762H38.301V86.0002H39.874V81.7196Z" fill="#58595B"/>
<path d="M60.1969 83.1753H58.5479V72.433L55.0887 79.7438H54.1012L50.6735 72.433V83.1753H49.1246V70.7051H51.3794L54.6959 77.6499L57.9031 70.7051H60.1969V83.1753Z" fill="#58595B"/>
<path d="M79.9827 82.273C79.677 82.4049 79.4009 82.5312 79.1508 82.6464C78.9044 82.7635 78.5801 82.8898 78.1818 83.018C77.839 83.1239 77.4703 83.2112 77.0738 83.2874C76.6755 83.3636 76.2401 83.4026 75.7565 83.4026C74.8579 83.4026 74.0371 83.2763 73.2997 83.0236C72.5622 82.7672 71.9193 82.3696 71.3727 81.8271C70.8428 81.2995 70.4223 80.625 70.1203 79.8057C69.8201 78.9882 69.6719 78.037 69.6719 76.9557C69.6719 75.9283 69.8164 75.0086 70.1054 74.2004C70.3945 73.3885 70.8113 72.7067 71.3579 72.1475C71.8897 71.6105 72.527 71.1944 73.2756 70.912C74.0223 70.624 74.856 70.4865 75.7694 70.4865C76.4346 70.4865 77.1035 70.5664 77.7668 70.728C78.4319 70.8897 79.1693 71.1721 79.9827 71.5827V73.5483H79.8586C79.1749 72.9761 78.4968 72.5562 77.8224 72.2942C77.1461 72.0304 76.4272 71.9004 75.6601 71.9004C75.0302 71.9004 74.4632 72.0026 73.9593 72.2051C73.4571 72.4094 73.0032 72.7271 72.6086 73.1563C72.225 73.5743 71.9267 74.1038 71.7137 74.7448C71.4987 75.3821 71.3913 76.1196 71.3913 76.9576C71.3913 77.8363 71.508 78.5869 71.7452 79.2168C71.9823 79.8484 72.2843 80.3631 72.6586 80.7588C73.0495 81.1713 73.5035 81.4797 74.0223 81.6747C74.5447 81.8735 75.0932 81.972 75.6712 81.972C76.4717 81.972 77.2146 81.8382 77.9113 81.5614C78.6061 81.2865 79.2601 80.8777 79.866 80.3315H79.9827V82.273Z" fill="#58595B"/>
<path d="M98.6581 83.1753H97.0128V73.1854L90.8319 83.1753H89.1607V70.7051H90.8097V80.5445L96.9128 70.7051H98.6581V83.1753Z" fill="#58595B"/>
<path d="M115.252 74.5148C115.252 74.0875 115.176 73.7141 115.026 73.3964C114.876 73.075 114.648 72.8167 114.34 72.6161C114.074 72.4433 113.768 72.3169 113.429 72.2426C113.082 72.1702 112.654 72.1311 112.13 72.1311H110.49V77.1122H111.887C112.553 77.1122 113.097 77.0527 113.516 76.9319C113.935 76.8112 114.272 76.6217 114.535 76.3579C114.796 76.0903 114.982 75.8079 115.091 75.5107C115.198 75.2171 115.252 74.8883 115.252 74.5148ZM116.971 74.4758C116.971 75.0295 116.875 75.5404 116.682 76.0123C116.49 76.4842 116.223 76.8929 115.878 77.2385C115.448 77.6658 114.943 77.9909 114.359 78.2065C113.775 78.4201 113.034 78.5297 112.147 78.5297H110.49V83.1745H108.838V70.7043H112.212C112.956 70.7043 113.59 70.7712 114.107 70.8975C114.622 71.0201 115.082 71.2208 115.484 71.4846C115.956 71.8042 116.323 72.2036 116.582 72.6755C116.842 73.1511 116.971 73.7494 116.971 74.4758Z" fill="#58595B"/>
<path d="M38.4818 33.1191H26.131V45.5206C26.8648 42.5498 28.3785 39.854 30.5704 37.6431C32.7826 35.4081 35.4895 33.8642 38.4818 33.1191Z" fill="#C2143C"/>
<path d="M99.3995 37.6615C101.599 39.8798 103.116 42.5812 103.85 45.5575V33.1282H91.4677C94.4673 33.8714 97.1817 35.419 99.3995 37.6615Z" fill="#C2143C"/>
<path d="M65.0142 0L52.5226 6.26481H77.5058L65.0142 0Z" fill="#C2143C"/>
<path d="M104.52 20.0186V32.4665H116.932C116.76 25.7279 111.239 20.1914 104.52 20.0186Z" fill="#C2143C"/>
<path d="M13.0673 32.4665H25.4792V20.0204C18.7628 20.1932 13.2396 25.7298 13.0673 32.4665Z" fill="#C2143C"/>
<path d="M12.4156 33.1155H0V45.5652H12.4156V33.1155Z" fill="#C2143C"/>
<path d="M12.4156 46.2188H0V58.6704H12.4156V46.2188Z" fill="#C2143C"/>
<path d="M25.4793 33.1191H13.0637V45.567H25.4793V33.1191Z" fill="#C2143C"/>
<path d="M25.4793 46.2187H13.0637V58.6703H25.4793V46.2187Z" fill="#C2143C"/>
<path d="M38.5448 6.91537H26.1292V19.3651H38.5448V6.91537Z" fill="#C2143C"/>
<path d="M38.5448 20.0186H26.131V32.4684H38.5448V20.0186Z" fill="#C2143C"/>
<path d="M51.6103 6.91449H39.1947V19.3642H51.6103V6.91449Z" fill="#C2143C"/>
<path d="M51.6067 20.0186H39.1911V32.4684H51.6067V20.0186Z" fill="#C2143C"/>
<path d="M64.6759 6.91537H52.2584V19.3651H64.6759V6.91537Z" fill="#C2143C"/>
<path d="M64.6758 20.0188H52.2583V32.4685H64.6758V20.0188Z" fill="#C2143C"/>
<path d="M77.7414 6.91449H65.3239V19.3642H77.7414V6.91449Z" fill="#C2143C"/>
<path d="M77.7414 20.0186H65.3239V32.4684H77.7414V20.0186Z" fill="#C2143C"/>
<path d="M90.8051 6.91537H78.3895V19.3651H90.8051V6.91537Z" fill="#C2143C"/>
<path d="M90.8069 20.0186H78.3912V32.4684H90.8069V20.0186Z" fill="#C2143C"/>
<path d="M103.872 6.91629H91.4568V19.3642H103.872V6.91629Z" fill="#C2143C"/>
<path d="M103.871 20.0186H91.4568V32.4684H103.871V20.0186Z" fill="#C2143C"/>
<path d="M116.934 33.1173H110.731H104.52V45.567H116.934V33.1173Z" fill="#C2143C"/>
<path d="M116.934 46.2187H104.52V58.6684H116.934V46.2187Z" fill="#C2143C"/>
<path d="M130 33.1155H117.584V45.5652H130V33.1155Z" fill="#C2143C"/>
<path d="M130 46.2187H117.584V58.6684H130V46.2187Z" fill="#C2143C"/>
</g>
<defs>
<clipPath id="clip0_3_3524">
<rect width="130" height="86" fill="white"/>
</clipPath>
</defs>
</svg>
