<svg width="31" height="31" viewBox="0 0 31 31" fill="none" xmlns="http://www.w3.org/2000/svg">
<path d="M16.2615 20.925C10.4362 20.925 7.11354 16.8521 6.9751 10.075H9.89309C9.98893 15.0492 12.1402 17.1562 13.8441 17.5907V10.075H16.5917V14.365C18.2743 14.1804 20.0421 12.2254 20.6385 10.075H23.3861C23.1614 11.1902 22.7134 12.2462 22.0702 13.1769C21.4271 14.1075 20.6025 14.8928 19.6481 15.4837C20.7134 16.0235 21.6544 16.7876 22.4088 17.7256C23.1633 18.6635 23.7142 19.7539 24.0251 20.925H21.0006C20.7215 19.9078 20.1543 18.9974 19.37 18.3076C18.5857 17.6179 17.6192 17.1796 16.5917 17.0476V20.925H16.2615V20.925Z" fill="white"/>
</svg>
