<svg width="20" height="21" viewBox="0 0 20 21" fill="none" xmlns="http://www.w3.org/2000/svg">
<path d="M10 2.5C5.58214 2.5 2 6.08214 2 10.5C2 14.9179 5.58214 18.5 10 18.5C14.4179 18.5 18 14.9179 18 10.5C18 6.08214 14.4179 2.5 10 2.5ZM10 17.1429C6.33214 17.1429 3.35714 14.1679 3.35714 10.5C3.35714 6.83214 6.33214 3.85714 10 3.85714C13.6679 3.85714 16.6429 6.83214 16.6429 10.5C16.6429 14.1679 13.6679 17.1429 10 17.1429Z" fill="#58595C"/>
<path d="M12.9366 12.5922L10.2208 10.8407V6.63591C10.2208 6.56116 10.1522 6.5 10.0684 6.5H9.15236C9.06856 6.5 9 6.56116 9 6.63591V11.3147C9 11.3588 9.02285 11.3996 9.06285 11.4251L12.2129 13.474C12.2815 13.5181 12.3767 13.5045 12.4262 13.4451L12.9709 12.7825C13.0204 12.7197 13.0052 12.6347 12.9366 12.5922Z" fill="#58595C"/>
</svg>
