<svg width="36" height="36" viewBox="0 0 36 36" fill="none" xmlns="http://www.w3.org/2000/svg">
<path d="M19.4695 17.9505L26.7595 10.6605C26.9234 10.4692 27.009 10.2231 26.9993 9.9714C26.9895 9.71973 26.8852 9.48099 26.7071 9.30289C26.529 9.1248 26.2903 9.02047 26.0386 9.01075C25.7869 9.00102 25.5408 9.08663 25.3495 9.25046L18.0595 16.5405L10.7695 9.24046C10.5782 9.07663 10.3322 8.99102 10.0805 9.00075C9.82881 9.01047 9.59008 9.1148 9.41198 9.29289C9.23389 9.47099 9.12955 9.70973 9.11983 9.9614C9.11011 10.2131 9.19572 10.4592 9.35954 10.6505L16.6495 17.9505L9.34954 25.2405C9.24486 25.3301 9.15984 25.4404 9.09982 25.5645C9.0398 25.6886 9.00606 25.8237 9.00075 25.9614C8.99543 26.0991 9.01863 26.2365 9.06891 26.3648C9.11918 26.4931 9.19544 26.6097 9.29289 26.7071C9.39035 26.8046 9.5069 26.8808 9.63522 26.9311C9.76355 26.9814 9.90088 27.0046 10.0386 26.9993C10.1763 26.9939 10.3114 26.9602 10.4355 26.9002C10.5596 26.8402 10.6699 26.7551 10.7595 26.6505L18.0595 19.3605L25.3495 26.6505C25.5408 26.8143 25.7869 26.8999 26.0386 26.8902C26.2903 26.8804 26.529 26.7761 26.7071 26.598C26.8852 26.4199 26.9895 26.1812 26.9993 25.9295C27.009 25.6778 26.9234 25.4318 26.7595 25.2405L19.4695 17.9505Z" fill="white"/>
</svg>
