<svg width="31" height="31" viewBox="0 0 31 31" fill="none" xmlns="http://www.w3.org/2000/svg">
<path d="M15.5 9.1506C17.5542 9.1506 17.8343 9.1506 18.6747 9.1506C19.4217 9.1506 19.7952 9.33735 20.0753 9.43072C20.4488 9.61747 20.7289 9.71084 21.009 9.99096C21.2892 10.2711 21.4759 10.5512 21.5693 10.9247C21.6627 11.2048 21.756 11.5783 21.8494 12.3253C21.8494 13.1657 21.8494 13.3524 21.8494 15.5C21.8494 17.6476 21.8494 17.8343 21.8494 18.6747C21.8494 19.4217 21.6627 19.7952 21.5693 20.0753C21.3825 20.4488 21.2892 20.7289 21.009 21.009C20.7289 21.2892 20.4488 21.4759 20.0753 21.5693C19.7952 21.6627 19.4217 21.756 18.6747 21.8494C17.8343 21.8494 17.6476 21.8494 15.5 21.8494C13.3524 21.8494 13.1657 21.8494 12.3253 21.8494C11.5783 21.8494 11.2048 21.6627 10.9247 21.5693C10.5512 21.3825 10.2711 21.2892 9.99096 21.009C9.71084 20.7289 9.5241 20.4488 9.43072 20.0753C9.33735 19.7952 9.24398 19.4217 9.1506 18.6747C9.1506 17.8343 9.1506 17.6476 9.1506 15.5C9.1506 13.3524 9.1506 13.1657 9.1506 12.3253C9.1506 11.5783 9.33735 11.2048 9.43072 10.9247C9.61747 10.5512 9.71084 10.2711 9.99096 9.99096C10.2711 9.71084 10.5512 9.5241 10.9247 9.43072C11.2048 9.33735 11.5783 9.24398 12.3253 9.1506C13.1657 9.1506 13.4458 9.1506 15.5 9.1506ZM15.5 7.75C13.3524 7.75 13.1657 7.75 12.3253 7.75C11.4849 7.75 10.9247 7.93675 10.4578 8.12349C9.99096 8.31024 9.5241 8.59036 9.05723 9.05723C8.59036 9.5241 8.40362 9.89759 8.12349 10.4578C7.93675 10.9247 7.84337 11.4849 7.75 12.3253C7.75 13.1657 7.75 13.4458 7.75 15.5C7.75 17.6476 7.75 17.8343 7.75 18.6747C7.75 19.5151 7.93675 20.0753 8.12349 20.5422C8.31024 21.009 8.59036 21.4759 9.05723 21.9428C9.5241 22.4096 9.89759 22.5964 10.4578 22.8765C10.9247 23.0633 11.4849 23.1566 12.3253 23.25C13.1657 23.25 13.4458 23.25 15.5 23.25C17.5542 23.25 17.8343 23.25 18.6747 23.25C19.5151 23.25 20.0753 23.0633 20.5422 22.8765C21.009 22.6898 21.4759 22.4096 21.9428 21.9428C22.4096 21.4759 22.5964 21.1024 22.8765 20.5422C23.0633 20.0753 23.1566 19.5151 23.25 18.6747C23.25 17.8343 23.25 17.5542 23.25 15.5C23.25 13.4458 23.25 13.1657 23.25 12.3253C23.25 11.4849 23.0633 10.9247 22.8765 10.4578C22.6898 9.99096 22.4096 9.5241 21.9428 9.05723C21.4759 8.59036 21.1024 8.40362 20.5422 8.12349C20.0753 7.93675 19.5151 7.84337 18.6747 7.75C17.8343 7.75 17.6476 7.75 15.5 7.75Z" fill="white"/>
<path d="M15.5 11.4849C13.259 11.4849 11.4849 13.259 11.4849 15.5C11.4849 17.741 13.259 19.5151 15.5 19.5151C17.741 19.5151 19.5151 17.741 19.5151 15.5C19.5151 13.259 17.741 11.4849 15.5 11.4849ZM15.5 18.1145C14.0994 18.1145 12.8855 16.994 12.8855 15.5C12.8855 14.0994 14.006 12.8855 15.5 12.8855C16.9006 12.8855 18.1145 14.006 18.1145 15.5C18.1145 16.9006 16.9006 18.1145 15.5 18.1145Z" fill="white"/>
<path d="M19.6084 12.3253C20.1241 12.3253 20.5422 11.9073 20.5422 11.3916C20.5422 10.8759 20.1241 10.4578 19.6084 10.4578C19.0927 10.4578 18.6747 10.8759 18.6747 11.3916C18.6747 11.9073 19.0927 12.3253 19.6084 12.3253Z" fill="white"/>
</svg>
