<svg width="100" height="134" viewBox="0 0 100 134" fill="none" xmlns="http://www.w3.org/2000/svg">
<g clip-path="url(#clip0_3_3708)">
<path d="M44.3484 63.3842C44.3484 63.3842 35.7585 72.1661 35.7585 78.6559C35.7585 86.7517 42.3507 86.7517 44.3484 86.7517C46.3412 86.7517 52.9284 86.7517 52.9284 78.6559C52.9284 71.4902 44.3484 63.3842 44.3484 63.3842Z" fill="#DC1F26"/>
<path d="M44.3449 108.782C44.3449 108.782 49.7444 101.51 49.7444 96.1275C49.7444 89.4293 45.5979 89.4293 44.3449 89.4293C43.0919 89.4293 38.9453 89.4293 38.9453 96.1275C38.9453 102.069 44.3449 108.782 44.3449 108.782Z" fill="#DC1F26"/>
<path d="M16.4046 63.3184C16.4046 63.3184 18.7345 66.388 21.0644 71.4295C23.3944 76.4709 23.9479 79.3779 23.9479 79.3779C23.9479 79.3779 27.1434 82.2493 29.9362 84.0839C34.3595 86.9807 37.9626 87.7125 37.1826 85.8068C36.4076 83.906 32.9304 77.9041 30.6005 75.0022C28.2706 72.1003 23.5655 66.6167 21.5073 65.7172C21.1047 65.5393 20.6367 65.4224 20.6921 65.4173C20.8179 65.4122 21.7891 65.524 23.2987 66.3168C27.3648 68.4615 30.7565 74.123 31.6472 75.1292C32.1856 75.7391 33.1921 77.0655 33.8966 78.0108C34.3545 78.6257 35.0489 79.4897 35.0439 79.2915C35.0439 79.1492 35.0691 77.1113 35.522 75.4087C35.8541 74.1331 36.3875 72.9134 36.614 72.4154C36.6844 72.2578 36.6945 72.2426 36.6743 72.1765C36.6643 72.1257 36.624 72.1054 36.5385 72.0546C34.9634 70.9924 25.9558 64.3348 22.1715 63.3133C18.181 62.2461 16.4046 63.3184 16.4046 63.3184Z" fill="#DC1F26"/>
<path d="M0.39251 98.2626C1.82166 95.7876 5.14794 90.4565 8.53462 88.7896C10.8041 87.6715 12.1528 86.5179 13.0284 86.2688C13.904 86.0198 14.3518 86.34 15.0664 86.7262C15.6099 87.021 16.4805 87.3716 17.8694 87.7071C19.7866 88.1797 21.6334 88.5659 22.8009 88.7997C23.591 88.9573 23.757 89.0132 24.0791 89.0132C24.5521 89.0132 25.0654 88.9878 25.2617 88.9268C25.5636 88.8302 25.2617 88.6777 25.0956 88.6066C24.9899 88.5761 24.8843 88.5558 24.7937 88.5304C24.3408 88.4186 23.8275 88.3067 23.2488 88.2204C20.2546 87.7731 15.157 86.2078 11.2721 82.6199C7.39231 79.037 8.94726 80.155 7.06018 78.5847C5.17814 77.0143 4.06602 77.2379 3.29106 77.5784C2.7979 77.7919 1.94746 78.1425 1.39392 78.3661C1.07689 78.4983 1.0316 78.4627 1.0316 78.4627C1.0316 78.4627 0.981278 78.417 1.22282 78.1324C2.40539 76.7195 6.28019 72.4455 10.6129 71.424C18.2669 68.9642 20.0282 70.5549 20.0282 70.5549C20.0282 70.5549 23.9382 79.0726 23.0525 78.8489C22.1669 78.6253 15.8213 72.786 9.28442 74.5596C4.54408 75.8505 5.06743 76.13 5.06743 76.13C5.06743 76.13 9.28442 74.2293 13.3857 75.6828C17.4919 77.1363 19.7262 79.0421 23.3746 81.2833C27.028 83.5194 30.5757 85.537 30.5757 86.096C30.5757 86.6144 28.6282 88.444 27.7828 89.435C27.4305 89.9584 26.5247 91.2645 26.1675 91.5542C25.7297 91.915 18.5135 91.8083 14.8551 91.8083C9.6568 91.8083 4.62459 94.5832 4.56924 94.8627C4.51389 95.1473 8.97745 92.5198 14.1908 93.1144C19.4042 93.7141 24.9195 93.2212 24.9195 93.4397C24.9195 93.6582 23.7268 95.2235 23.0626 96.6821C22.3983 98.1356 22.1669 98.6641 21.6737 99.1774C21.402 99.462 14.0851 98.0796 11.3124 97.1801C8.53965 96.2857 6.65257 95.8334 3.76912 97.1801C2.41042 97.8154 1.44424 98.3033 0.790055 98.6743C0.0603849 99.0859 0.100642 99.0757 0.0603848 99.0859C-0.0201305 99.1062 -0.100646 99.1113 0.39251 98.2626Z" fill="#DC1F26"/>
<path d="M35.6036 88.4083C34.4412 88.6167 34.5619 87.524 33.0674 87.3563C31.5728 87.1886 28.7447 90.5479 27.2451 92.2301C25.7455 93.9072 20.2604 103.146 20.9247 104.158C21.5889 105.164 24.2912 103.822 26.8476 104.158C29.409 104.493 35.0601 103.99 36.7258 103.487L38.3915 102.979C38.3915 102.979 38.1751 100.626 37.702 98.9486C37.224 97.2665 35.2816 99.6195 32.9013 100.295C28.5636 101.51 25.9116 101.805 24.251 102.643C22.5853 103.487 24.251 102.313 25.7455 101.134C27.2451 99.96 30.9035 99.4518 32.066 98.7758C33.2284 98.105 36.1873 98.105 37.2894 95.0811C38.3915 92.0573 39.886 89.7043 39.2218 88.8657C38.5575 88.0272 38.6531 87.8595 35.6036 88.4083Z" fill="#DC1F26"/>
<path d="M72.7809 63.8621C72.7809 63.8621 70.451 66.9317 68.121 71.9681C65.7911 77.0095 65.2326 79.9216 65.2326 79.9216C65.2326 79.9216 62.0371 82.7879 59.2493 84.6225C54.826 87.5193 51.2279 88.2511 52.0079 86.3454C52.7879 84.4396 56.2652 78.4427 58.585 75.5408C60.9149 72.644 65.62 67.1553 67.6883 66.2558C68.0808 66.083 68.5639 65.961 68.5035 65.961C68.3777 65.9509 67.4014 66.0627 65.8968 66.8605C61.8258 69.0052 58.429 74.6616 57.5434 75.6678C57.015 76.2828 55.9985 77.6041 55.294 78.5545C54.831 79.1643 54.1416 80.0334 54.1416 79.8352C54.1516 79.6878 54.1215 77.6499 53.6686 75.9474C53.3364 74.6718 52.803 73.452 52.5766 72.954C52.496 72.8015 52.486 72.7812 52.5061 72.7151C52.5262 72.6643 52.5665 72.6491 52.642 72.5932C54.2221 71.531 63.2297 64.8734 67.0089 63.857C70.9995 62.7847 72.7809 63.8621 72.7809 63.8621Z" fill="#DC1F26"/>
<path d="M88.7931 98.8011C87.3589 96.3312 84.0376 90.995 80.656 89.328C78.3864 88.21 77.0378 87.0563 76.1622 86.8073C75.2765 86.5583 74.8337 86.8784 74.1191 87.2647C73.5807 87.5594 72.7051 87.9101 71.3162 88.2455C69.3989 88.7182 67.5521 89.1044 66.3846 89.3433C65.5896 89.5008 65.4335 89.5516 65.1065 89.5516C64.6334 89.5516 64.1151 89.5313 63.9289 89.4652C63.622 89.3687 63.9189 89.2162 64.095 89.1451C64.1956 89.1197 64.3013 89.0942 64.3919 89.0688C64.8448 88.957 65.353 88.8503 65.9368 88.7588C68.936 88.3116 74.0336 86.7463 77.9185 83.1583C81.7933 79.5755 80.2383 80.6986 82.1254 79.1282C84.0125 77.5579 85.1246 77.7815 85.8995 78.1169C86.3927 78.3303 87.2381 78.681 87.7967 78.9097C88.1137 79.0368 88.159 79.0012 88.159 79.0012C88.159 79.0012 88.2093 78.9554 87.9627 78.6759C86.7852 77.258 82.9104 72.989 78.5777 71.9675C70.9287 69.5027 69.1624 71.0985 69.1624 71.0985C69.1624 71.0985 65.2524 79.611 66.1431 79.3874C67.0288 79.1638 73.3794 73.3295 79.9011 75.0981C84.6465 76.389 84.1181 76.6685 84.1181 76.6685C84.1181 76.6685 79.9011 74.7678 75.8049 76.2213C71.7087 77.6747 69.4643 79.5805 65.821 81.8218C62.1626 84.063 58.6149 86.0806 58.6149 86.6396C58.6149 87.1529 60.5624 88.9824 61.4178 89.9735C61.7701 90.4969 62.6759 91.803 63.0282 92.0978C63.4609 92.4535 70.6771 92.3468 74.3406 92.3468C79.5288 92.3468 84.561 95.1216 84.6214 95.4011C84.6817 95.6908 80.2081 93.0583 74.9998 93.6529C69.7914 94.2526 64.2761 93.7596 64.2761 93.9832C64.2761 94.2068 65.4637 95.7671 66.133 97.2205C66.7922 98.6791 67.0288 99.2026 67.5169 99.7159C67.7937 100 75.1155 98.6181 77.8782 97.7186C80.661 96.8241 82.538 96.3769 85.4265 97.7186C86.7852 98.3539 87.7464 98.8417 88.4056 99.2127C89.1352 99.6244 89.095 99.6142 89.1352 99.6244C89.2057 99.6447 89.2812 99.6498 88.7931 98.8011Z" fill="#DC1F26"/>
<path d="M53.5819 88.9527C54.7393 89.161 54.6135 88.0684 56.1181 87.9007C57.6127 87.738 60.4307 91.0973 61.9353 92.7744C63.4299 94.4515 68.9251 103.691 68.2558 104.702C67.5865 105.713 64.8943 104.372 62.3278 104.702C59.7715 105.038 54.1103 104.534 52.4496 104.031L50.789 103.523C50.789 103.523 51.0054 101.17 51.4784 99.493C51.9514 97.8159 53.8939 100.169 56.2741 100.84C60.6068 102.054 63.2638 102.349 64.9245 103.188C66.5952 104.031 64.9245 102.857 63.4299 101.678C61.9353 100.499 58.2719 99.9961 57.1094 99.3252C55.942 98.6544 52.9931 98.6544 51.891 95.6255C50.789 92.6016 49.2944 90.2486 49.9536 89.41C50.628 88.5766 50.5273 88.4038 53.5819 88.9527Z" fill="#DC1F26"/>
<path d="M19.5755 2.43426C19.3541 2.7646 16.672 2.78493 15.9322 3.18133C13.4061 4.53318 12.2587 3.12543 12.6311 2.44951C13.084 1.61604 14.0552 1.16882 15.3284 1.02652C17.8898 0.747004 19.7315 2.20049 19.5755 2.43426ZM84.4759 61.7323L55.5307 33.4707L55.8628 29.9895L51.0369 30.0047L51.3036 29.339L23.9888 2.67312C23.9888 2.67312 23.9334 2.67312 23.4051 2.6223C22.8767 2.56132 21.9105 3.09494 21.4375 2.95264C20.9695 2.81542 20.8286 2.6223 20.6625 2.1395C20.4914 1.66687 20.0687 1.08242 18.6748 0.477652C17.0997 -0.213515 15.5951 -0.0915441 13.9294 0.442078C12.2637 0.970617 11.7354 2.08868 11.6196 2.67312C11.5139 3.26265 11.7656 3.99955 12.5355 4.66023C13.5369 5.52419 17.3664 4.3553 18.7201 3.98939C20.0788 3.62348 20.8688 6.03748 20.8688 6.03748L31.6075 16.5219L34.5715 15.2666L35.8195 20.679L42.5627 27.2858C42.5627 27.2858 43.5842 28.0532 44.807 29.0035C45.9695 29.9031 47.1168 29.7913 47.1168 29.7913L48.702 29.2272L55.8175 30.0505L54.8664 36.3269L61.8914 44.3363L62.3443 46.674L81.1647 64.5732C81.1647 64.5732 80.8678 64.8324 82.5284 63.3891C84.1991 61.9407 84.4759 61.7323 84.4759 61.7323Z" fill="#DC1F26"/>
<path d="M63.9444 41.9678C62.9933 41.0835 61.5088 39.5233 60.0344 37.9225L62.7669 40.6058C61.5289 39.3048 59.8784 37.4193 58.4643 35.7829L56.0187 33.13C58.8116 35.6711 62.9078 40.0874 64.5785 42.349C64.7093 42.5269 64.0803 42.0949 63.9444 41.9678ZM61.9114 46.0589C59.6117 43.9498 54.3228 37.9174 53.2812 36.8806C53.1805 36.779 53.407 36.7129 53.5177 36.8095C56.3105 39.2641 60.7691 44.0515 62.5404 46.4452C62.6763 46.618 62.0473 46.1809 61.9114 46.0589ZM56.6628 42.9487C55.7268 42.4201 54.8462 41.3427 54.8562 41.5968C54.8562 41.8001 54.504 43.7262 54.3329 44.5597C54.3027 44.8036 54.2624 44.9459 54.2624 44.9459C54.2624 44.9459 54.2926 44.7935 54.3329 44.5597C54.4587 43.6348 54.4033 41.2563 51.1374 39.6809C47.0815 37.7243 40.4239 40.3619 40.4239 40.3619C40.4239 40.3619 42.5122 39.0761 44.7012 38.6543C46.8903 38.2325 49.5271 38.5069 50.5688 38.5933C51.3236 38.6543 51.7111 37.2669 51.6004 36.4232C51.4998 35.5796 51.7564 35.3662 51.7564 35.3662C51.7564 35.3662 51.6004 37.9682 53.573 39.6555C55.0374 40.9107 57.1811 42.7403 57.1811 42.7403C57.1811 42.7403 57.6038 43.4772 56.6628 42.9487ZM40.9523 29.5675C40.6201 29.5421 38.8991 29.1457 38.4362 28.6375C37.8122 27.9514 37.2888 26.7418 37.2888 26.7418C37.6461 26.9553 38.3053 27.8701 39.1356 28.6934C39.9106 29.4608 40.9523 29.5675 40.9523 29.5675ZM44.5956 32.7743C46.4776 32.4846 48.878 33.9127 51.6105 33.5214C53.6435 33.2266 54.826 32.3321 55.1984 31.8087C55.289 31.6766 55.3142 31.5292 55.3242 31.3716C55.3544 30.7618 53.5277 30.6398 53.5277 30.6398C53.5277 30.6398 54.0108 30.5839 54.8663 30.6398C55.133 30.6551 55.908 31.0311 55.445 31.7121C55.4249 31.7477 55.4148 31.7985 55.3846 31.8493C55.3846 31.8493 55.3846 31.8544 55.3846 31.8595C55.2085 32.1949 54.7958 32.7184 53.7139 33.2215C51.9426 34.0499 49.507 34.1871 48.1684 33.7399C46.845 33.2977 44.8472 32.9572 44.1779 33.5214C43.5136 34.0804 41.073 37.6633 41.073 37.6633L40.8516 38.1156C40.6302 38.5577 40.8063 38.6035 40.5849 38.1562C40.3635 37.709 43.6093 32.9268 44.5956 32.7743ZM49.6227 30.6805C50.9965 30.8482 53.2006 30.6398 53.2006 30.6398C53.2006 30.6398 53.0245 30.6601 52.7075 30.6805C51.8319 30.7516 51.7614 31.2039 49.19 30.8431C47.0966 30.5534 45.9694 29.9029 45.9694 29.9029C45.9694 29.9029 46.9255 30.3603 49.6227 30.6805ZM50.8254 22.5948C50.916 22.1628 51.1475 23.6316 51.6205 24.3634C52.0835 25.0851 52.8886 25.7305 52.8886 25.7305C52.8886 25.7305 51.6004 25.2528 51.1475 24.4346C50.6191 23.4486 50.7349 23.0268 50.8254 22.5948ZM64.6841 40.9209C64.2413 38.9084 62.2486 34.426 60.8194 32.1848C59.3852 29.9436 57.8101 28.8255 55.3645 27.0315C52.9289 25.2426 53.3717 22.5542 52.2697 21.8782C51.1576 21.2074 50.4329 21.4463 49.7435 22.5491C48.6213 24.3482 50.2618 28.3732 48.7119 29.0491C48.0074 29.354 47.8262 29.7809 45.285 29.4049C44.1527 29.2371 43.4885 29.1101 42.5223 29.5167C41.8178 29.8063 41.5662 29.6742 41.9134 29.0796C42.8242 27.5143 43.8105 25.146 44.2735 24.3583C45.2347 22.7371 46.3568 21.6241 47.1318 20.5721C47.6803 19.8352 47.9923 19.3982 48.0376 18.5546C48.0728 17.8888 47.5746 17.4822 46.8802 17.5381C46.1908 17.5889 45.9039 18.1124 45.4158 18.4885C45.2347 18.6308 45.0434 18.7883 44.8371 18.9662C42.8293 20.6992 39.6892 24.1601 38.567 26.1472C37.787 27.5296 37.3341 26.9197 36.227 25.5729C35.1199 24.2262 35.754 21.4514 35.754 18.9865C35.754 16.5217 35.0646 15.7645 35.2961 14.1534C35.5175 12.5831 34.2946 11.5768 32.9661 12.4713C31.6376 13.3657 31.6376 16.2828 31.1948 17.1773C30.752 18.0718 31.1948 24.3482 31.4162 26.1371C31.6376 27.931 35.7741 33.4553 35.2306 34.797C34.6922 36.1437 35.603 38.6594 35.281 39.5589C35.1602 39.9147 34.8633 39.8842 34.4859 39.6453C33.9273 39.3048 33.6857 38.7254 33.0265 38.1918C32.6189 37.8615 31.7987 37.2465 31.4867 36.8705C30.9482 36.225 30.606 35.5034 30.6362 34.3752C30.6765 32.5812 29.6851 30.0147 28.3164 29.7199C27.8434 29.6183 26.9174 30.0757 26.847 30.838C26.696 32.7184 27.2043 35.0917 28.5328 38.9033C29.8613 42.7098 30.9734 42.7098 33.6354 44.0515C36.2975 45.3983 37.4045 45.3983 38.9444 45.6219C40.4843 45.8455 39.6237 47.4158 42.5072 50.5515C45.3907 53.6872 46.0549 53.9108 47.1318 54.6833C48.2087 55.4557 45.451 56.1774 44.344 57.2701C38.9444 62.591 34.5312 71.2001 34.5312 71.2001L36.5138 72.6384C36.5138 72.6384 38.1946 68.5015 40.5446 65.5844C42.8947 62.6673 44.344 61.3002 44.344 61.3002C44.344 61.3002 46.2814 63.272 48.4653 66.1079C50.6493 68.9437 51.8671 71.0731 51.8671 71.0731L55.3645 68.471C55.3645 68.471 57.5837 62.8705 58.1372 61.3002C58.6958 59.7349 63.3556 50.1043 63.572 48.3103C63.7985 46.5214 65.1219 42.9334 64.6841 40.9209Z" fill="#DC1F26"/>
<path d="M63.8086 41.6174L64.2414 42.0392L63.9344 41.7088C63.8841 41.6784 63.8489 41.6479 63.8086 41.6174Z" fill="#DC1F26"/>
<path d="M4.72048 130.498H4.27261V133.623H3.15043V130.498H2.71263V133.623H1.58541V130.498H1.14258V133.999H4.72048V130.498Z" fill="#767576"/>
<path d="M5.94413 130.498V132.058H6.08L7.27264 130.498H7.81108L6.49768 132.104C7.07135 132.185 7.29277 132.536 7.47393 133.008C7.59973 133.364 7.70037 133.695 7.85637 133.999H7.36825C7.24244 133.761 7.14683 133.451 7.05122 133.176C6.89522 132.709 6.6738 132.399 6.08504 132.399H5.94413V133.999H5.5013V130.498H5.94413Z" fill="#767576"/>
<path d="M8.46634 132.272C8.46634 133.014 8.86892 133.69 9.57343 133.69C10.283 133.69 10.6855 133.024 10.6855 132.231C10.6855 131.535 10.3283 130.808 9.57846 130.808C8.83872 130.808 8.46634 131.504 8.46634 132.272ZM11.1586 132.216C11.1586 133.42 10.4339 134.061 9.54826 134.061C8.6324 134.061 7.98828 133.339 7.98828 132.282C7.98828 131.164 8.67266 130.442 9.59859 130.442C10.5446 130.442 11.1586 131.174 11.1586 132.216Z" fill="#767576"/>
<path d="M13.9996 130.498V133.999H13.5467V130.879H12.3994V131.941C12.3994 132.693 12.3642 133.542 11.8761 133.877C11.7502 133.964 11.549 134.045 11.3477 134.045L11.2923 133.684C11.4282 133.654 11.5792 133.573 11.6546 133.496C11.9314 133.217 11.9616 132.541 11.9616 131.977V130.498H13.9996Z" fill="#767576"/>
<path d="M16.4725 132.546L16.1353 131.54C16.0599 131.311 16.0045 131.103 15.9542 130.899H15.9441C15.8888 131.108 15.8384 131.321 15.768 131.535L15.4258 132.546H16.4725ZM15.3352 132.897L14.9779 133.999H14.515L15.6975 130.498H16.236L17.4186 133.999H16.9405L16.5681 132.897H15.3352Z" fill="#767576"/>
<path d="M19.4614 130.498V132.058H19.5973L20.7899 130.498H21.3283L20.0149 132.104C20.5886 132.185 20.81 132.536 20.9912 133.008C21.117 133.364 21.2176 133.695 21.3686 133.999H20.8855C20.7647 133.761 20.6641 133.451 20.5685 133.176C20.4074 132.709 20.1911 132.399 19.6023 132.399H19.4614V133.999H19.0186V130.498H19.4614Z" fill="#767576"/>
<path d="M22.2293 130.498V131.977C22.2293 132.531 22.2193 132.988 22.1891 133.456L22.1992 133.461C22.3753 133.1 22.5917 132.719 22.8433 132.302L23.9655 130.498H24.4133V133.999H23.9906V132.51C23.9906 131.946 23.9957 131.53 24.0309 131.087L24.0158 131.082C23.8447 131.463 23.6082 131.87 23.3717 132.256L22.2847 133.999H21.8066V130.498H22.2293Z" fill="#767576"/>
<path d="M27.3646 130.498H24.7982V130.884H25.8499V133.999H26.3028V130.884H27.3646V130.498Z" fill="#767576"/>
<path d="M29.0311 132.547L28.6939 131.541C28.6134 131.312 28.5681 131.103 28.5128 130.9H28.5027C28.4524 131.109 28.397 131.322 28.3266 131.535L27.9894 132.547H29.0311ZM27.8938 132.897L27.5365 134H27.0736L28.2511 130.499H28.7896L29.9721 134H29.4941L29.1217 132.897H27.8938Z" fill="#767576"/>
<path d="M31.4713 129.767C31.4915 129.924 31.5468 130.087 31.7884 130.087C32.0249 130.087 32.0802 129.934 32.1054 129.767H32.4476C32.4224 130.107 32.2161 130.321 31.7783 130.321C31.3556 130.321 31.1543 130.107 31.1291 129.767H31.4713ZM30.9077 130.499V131.977C30.9077 132.531 30.8977 132.989 30.8675 133.456L30.8775 133.461C31.0537 133.101 31.27 132.719 31.5217 132.303L32.6438 130.499H33.0867V134H32.664V132.511C32.664 131.947 32.669 131.53 32.7042 131.088L32.6891 131.083C32.518 131.464 32.2815 131.871 32.05 132.257L30.9631 134H30.485V130.499H30.9077Z" fill="#767576"/>
<path d="M36.2923 133.888C36.1263 133.974 35.7941 134.056 35.3765 134.056C34.4002 134.056 33.6605 133.431 33.6605 132.282C33.6605 131.184 34.3952 130.442 35.4721 130.442C35.9048 130.442 36.1766 130.539 36.2923 130.6L36.1866 130.966C36.0156 130.879 35.774 130.818 35.4872 130.818C34.672 130.818 34.1335 131.347 34.1335 132.267C34.1335 133.121 34.6216 133.669 35.467 133.669C35.7388 133.669 36.0156 133.614 36.1967 133.527L36.2923 133.888Z" fill="#767576"/>
<path d="M37.2983 130.499V132.059H37.4392L38.6268 130.499H39.1653L37.8518 132.105C38.4255 132.186 38.6469 132.537 38.8281 133.009C38.9539 133.365 39.0495 133.695 39.2055 134H38.7224C38.6016 133.761 38.501 133.451 38.4054 133.177C38.2494 132.709 38.028 132.399 37.4392 132.399H37.2983V134H36.8555V130.499H37.2983Z" fill="#767576"/>
<path d="M39.8205 132.272C39.8205 133.014 40.2231 133.69 40.9276 133.69C41.6371 133.69 42.0397 133.024 42.0397 132.231C42.0397 131.535 41.6774 130.808 40.9326 130.808C40.1929 130.808 39.8205 131.504 39.8205 132.272ZM42.5127 132.216C42.5127 133.42 41.7881 134.061 40.9024 134.061C39.9866 134.061 39.3424 133.339 39.3424 132.282C39.3424 131.164 40.0268 130.442 40.9528 130.442C41.8988 130.442 42.5127 131.174 42.5127 132.216Z" fill="#767576"/>
<path d="M44.0822 129.767C44.1023 129.924 44.1576 130.087 44.3992 130.087C44.6357 130.087 44.6911 129.934 44.7162 129.767H45.0584C45.0333 130.107 44.8269 130.321 44.3891 130.321C43.9664 130.321 43.7651 130.107 43.74 129.767H44.0822ZM43.5135 130.499V131.977C43.5135 132.531 43.5035 132.989 43.4733 133.456L43.4833 133.461C43.6595 133.101 43.8758 132.719 44.1275 132.303L45.2496 130.499H45.7025V134H45.2748V132.511C45.2748 131.947 45.2798 131.53 45.3151 131.088L45.3 131.083C45.1289 131.464 44.8923 131.871 44.6558 132.257L43.5689 134H43.0908V130.499H43.5135Z" fill="#767576"/>
<path d="M47.8167 130.499L48.8885 132.059H49.0244V130.499H49.4572V132.059H49.593L50.6649 130.499H51.1882L49.9604 132.11C50.5089 132.166 50.7253 132.511 50.9064 133.009C51.0222 133.34 51.1027 133.685 51.2486 134H50.7857C50.6699 133.767 50.5894 133.431 50.4988 133.182C50.3428 132.699 50.1667 132.399 49.6031 132.399H49.4572V134H49.0244V132.399H48.8684C48.3149 132.399 48.1387 132.704 47.9727 133.182C47.8871 133.431 47.8066 133.767 47.6909 134H47.238C47.3839 133.68 47.4644 133.34 47.5801 133.014C47.7512 132.521 47.9727 132.181 48.5161 132.11L47.2832 130.499H47.8167Z" fill="#767576"/>
<path d="M52.1089 130.499V131.978C52.1089 132.532 52.0988 132.989 52.0686 133.457L52.0787 133.462C52.2548 133.101 52.4712 132.72 52.7279 132.303L53.85 130.499H54.2929V134H53.8702V132.511C53.8702 131.947 53.8802 131.53 53.9205 131.088L53.9004 131.083C53.7343 131.464 53.4877 131.871 53.2613 132.257L52.1693 134H51.6862V130.499H52.1089Z" fill="#767576"/>
<path d="M55.521 133.66C55.6115 133.675 55.7373 133.68 55.9034 133.68C56.3664 133.68 56.7891 133.512 56.7891 132.999C56.7891 132.521 56.3865 132.323 55.8933 132.323H55.521V133.66ZM55.521 131.983H55.9336C56.4066 131.983 56.6784 131.734 56.6784 131.393C56.6784 130.987 56.3714 130.824 55.9235 130.824C55.7172 130.824 55.6015 130.839 55.521 130.855V131.983ZM55.0781 130.55C55.2744 130.509 55.5813 130.473 55.8933 130.473C56.3462 130.473 56.628 130.555 56.8444 130.733C57.0206 130.865 57.1313 131.073 57.1313 131.348C57.1313 131.683 56.9149 131.983 56.5425 132.115V132.125C56.8746 132.211 57.2621 132.486 57.2621 133.004C57.2621 133.309 57.1464 133.533 56.9652 133.711C56.7287 133.934 56.3362 134.036 55.7675 134.036C55.4606 134.036 55.2291 134.016 55.0781 133.995V130.55Z" fill="#767576"/>
<path d="M58.097 132.272C58.097 133.014 58.4996 133.69 59.2091 133.69C59.9187 133.69 60.3213 133.024 60.3213 132.231C60.3213 131.535 59.9589 130.808 59.2091 130.808C58.4694 130.808 58.097 131.504 58.097 132.272ZM60.7893 132.216C60.7893 133.42 60.0596 134.061 59.179 134.061C58.2631 134.061 57.6139 133.339 57.6139 132.282C57.6139 131.164 58.3033 130.442 59.2242 130.442C60.1804 130.442 60.7893 131.174 60.7893 132.216Z" fill="#767576"/>
<path d="M63.8732 130.498H61.3672V133.999H61.8201V130.879H63.4304V133.999H63.8732V130.498Z" fill="#767576"/>
<path d="M65.0858 130.498V131.977C65.0858 132.531 65.0757 132.988 65.0455 133.456L65.0556 133.461C65.2217 133.1 65.4481 132.719 65.6947 132.302L66.8169 130.498H67.2698V133.999H66.8471V132.51C66.8471 131.946 66.8471 131.53 66.8873 131.087L66.8773 131.082C66.7011 131.463 66.4646 131.87 66.2281 132.256L65.1462 133.999H64.6631V130.498H65.0858Z" fill="#767576"/>
<path d="M70.4705 133.888C70.3045 133.974 69.9774 134.056 69.5547 134.056C68.5734 134.056 67.8337 133.431 67.8337 132.282C67.8337 131.184 68.5684 130.442 69.6503 130.442C70.083 130.442 70.3498 130.539 70.4756 130.6L70.3598 130.966C70.1938 130.879 69.9572 130.818 69.6603 130.818C68.8552 130.818 68.3117 131.347 68.3117 132.267C68.3117 133.121 68.7948 133.669 69.6402 133.669C69.917 133.669 70.1887 133.614 70.3699 133.527L70.4705 133.888Z" fill="#767576"/>
<path d="M71.4513 130.498V131.977C71.4513 132.531 71.4413 132.988 71.4111 133.456L71.4212 133.461C71.5973 133.1 71.8137 132.719 72.0602 132.302L73.1925 130.498H73.6353V133.999H73.2126V132.51C73.2126 131.946 73.2227 131.53 73.2529 131.087L73.2428 131.082C73.0667 131.463 72.8302 131.87 72.5937 132.256L71.5117 133.999H71.0286V130.498H71.4513Z" fill="#767576"/>
<path d="M77.3511 130.498H75.5143V133.999H75.9572V130.879H77.3511V130.498Z" fill="#767576"/>
<path d="M78.08 130.498L78.7694 131.992C78.86 132.2 78.9355 132.404 79.016 132.612H79.0261C79.0965 132.429 79.1519 132.226 79.2425 131.977L79.7809 130.498H80.2539L79.5343 132.297C79.3381 132.764 79.1217 133.298 78.8852 133.628C78.6587 133.913 78.4021 134.06 78.1002 134.06C77.9844 134.06 77.9039 134.05 77.8435 134.03L77.8938 133.659C77.924 133.674 77.9844 133.679 78.0498 133.679C78.4122 133.674 78.6285 133.324 78.7292 133.074C78.7694 132.993 78.7594 132.942 78.7191 132.861L77.5667 130.498H78.08Z" fill="#767576"/>
<path d="M83.2083 130.499H82.7554V131.967H81.0746V130.499H80.6217V134H81.0746V132.359H82.7554V134H83.2083V130.499Z" fill="#767576"/>
<path d="M84.4256 133.654C84.5313 133.679 84.652 133.685 84.798 133.685C85.0848 133.685 85.3666 133.588 85.5327 133.41C85.6484 133.288 85.7189 133.11 85.7189 132.892C85.7189 132.622 85.6132 132.439 85.432 132.323C85.2559 132.201 85.0194 132.145 84.7728 132.145C84.6722 132.145 84.5363 132.155 84.4205 132.165V133.654H84.4256ZM85.9302 130.498V130.879H84.4256V131.824C84.5313 131.804 84.7426 131.794 84.8584 131.794C85.1804 131.794 85.5075 131.87 85.7541 132.028C86.0208 132.201 86.1969 132.48 86.1969 132.887C86.1969 133.212 86.0912 133.461 85.9 133.644C85.6232 133.928 85.1552 134.035 84.6822 134.035C84.3652 134.035 84.1337 134.01 83.9827 133.989V130.493H85.9302V130.498Z" fill="#767576"/>
<path d="M87.1983 130.498V131.977C87.1983 132.531 87.1883 132.988 87.1581 133.456L87.1681 133.461C87.3443 133.1 87.5606 132.719 87.8072 132.302L88.9294 130.498H89.3823V134H88.9596V132.511C88.9596 131.946 88.9697 131.53 88.9999 131.088L88.9898 131.082C88.8137 131.464 88.5771 131.87 88.3406 132.256L87.2587 134H86.7756V130.498H87.1983Z" fill="#767576"/>
<path d="M16.3091 123.013H9.43007V114.215H14.9806V112.655H2.25918V114.215H7.81473V123.013H0.996094V124.578H16.3091V123.013Z" fill="#DC1F26"/>
<path d="M30.2942 115.918C30.0577 115.115 29.7356 114.312 29.3129 113.504H28.2562C27.602 114.83 27.1541 115.613 26.9226 115.846L25.73 114.922C26.7113 113.549 27.3906 111.943 27.768 110.099L29.172 110.241C29.64 110.337 29.6149 110.52 29.1016 110.805C29.006 111.181 28.8701 111.633 28.6789 112.152H34.018V113.504H30.7874C31.1597 114.119 31.4667 114.855 31.6982 115.704L30.2942 115.918ZM26.4295 117.762V119.18L32.4027 118.403L32.5436 119.607L26.4345 120.385V121.737L33.9526 120.883L34.0231 122.087L26.4345 122.941V124.572C26.4345 124.898 26.6459 125.07 27.0635 125.07H32.1964C32.6644 125.07 32.9412 124.903 33.0368 124.572L33.3186 123.581L34.793 123.932L34.5112 124.994C34.2747 125.945 33.6205 126.417 32.5386 126.417H26.359C25.4683 126.417 25.0205 125.965 25.0205 125.065V123.149L18.7705 123.79L18.695 122.585L25.0205 121.95V120.532L19.7517 121.167L19.6813 119.963L25.0205 119.323V117.976L20.733 118.611L20.3808 117.407C24.4569 116.888 27.4762 116.299 29.4438 115.633L30.4955 116.695C30.7773 117.173 30.6364 117.29 30.0778 117.051L26.4295 117.762ZM22.8516 115.918C22.756 115.069 22.5446 114.266 22.2175 113.504H21.513C20.9947 114.596 20.411 115.516 19.7568 116.273L18.6296 115.282C19.8474 113.717 20.6928 112.06 21.1608 110.312L22.6352 110.454C23.0529 110.546 23.0327 110.714 22.5647 110.947L22.142 112.152H26.4999V113.504H23.8278C24.1096 114.119 24.321 114.855 24.4619 115.704L22.8516 115.918Z" fill="#DC1F26"/>
<path d="M45.1895 119.114V121.381H47.3685V119.114H45.1895ZM47.3685 117.976V115.918H45.1895V117.976H47.3685ZM43.9969 121.381V119.114H41.818V121.381H43.9969ZM43.9969 117.976V115.918H41.818V117.976H43.9969ZM50.2419 124.075V114.215H51.5804C51.9528 114.266 51.983 114.403 51.6509 114.642V126.28H50.2419V125.426H38.9395V126.351H37.5305V114.144H38.8641C39.2415 114.195 39.2616 114.332 38.9345 114.571V124.075H50.2419ZM45.1895 114.779H48.5611V122.514H40.6253V114.779H43.9969H45.1895ZM43.9969 112.655H36.831V111.303H52.4963V112.655H45.1895H43.9969Z" fill="#DC1F26"/>
<path d="M62.551 110.312C63.2505 111.211 63.7185 111.943 63.945 112.512L62.4705 113.29C62.0981 112.441 61.6754 111.704 61.2125 111.089L62.551 110.312ZM58.3995 113.29C57.9768 112.441 57.5541 111.781 57.1314 111.303L58.4699 110.525C58.9832 111.089 59.4512 111.75 59.8739 112.512L58.3995 113.29ZM66.8334 113.366H70.2755V117.269H68.8715V114.713H56.5074V117.483H55.1034V113.366H65.2835L66.758 110.246L68.2425 110.957C68.4186 111.191 68.3481 111.333 68.0261 111.379L66.8334 113.366ZM62.0478 118.474L63.2455 118.545L65.2785 117.34H57.8308V116.202H66.4812L66.6875 115.994L67.8852 117.132C68.021 117.32 67.9053 117.417 67.5329 117.417C66.1289 118.311 64.7702 119.043 63.4518 119.617V120.329H70.7636V121.675H63.4518V125.299C63.4518 126.051 63.0794 126.432 62.3296 126.432H60.4375L60.1507 124.872H61.771C61.9572 124.872 62.0478 124.776 62.0478 124.587V121.675H54.7461V120.329H62.0478V118.474Z" fill="#DC1F26"/>
<path d="M85.0949 115.282C86.5996 116.131 87.7016 116.888 88.3961 117.549L87.4148 118.83C86.67 118.113 85.6334 117.361 84.33 116.558L85.0949 115.282ZM79.3381 114.571V113.219H82.7097V110.241H84.0482C84.4206 110.287 84.4508 110.429 84.1187 110.663V113.219H88.1294V114.571H79.3381ZM82.6392 116.487C83.0116 116.772 82.9261 116.888 82.3625 116.838C81.6076 117.595 80.576 118.377 79.2676 119.18L78.3518 117.829C79.5696 117.265 80.6414 116.456 81.5875 115.415L82.6392 116.487ZM78.4927 126.631L77.8637 125.071C79.8765 124.313 81.4013 123.414 82.4329 122.372C81.824 121.569 81.2151 120.624 80.6062 119.536L81.7284 118.754C82.3373 119.841 82.8606 120.649 83.2733 121.168C83.5601 120.842 84.0029 119.841 84.6118 118.189L86.0863 118.967C86.3731 119.109 86.2725 119.252 85.8095 119.394C85.3868 120.436 84.8635 121.381 84.2546 122.235C85.2459 123.038 86.7203 123.841 88.6879 124.649L87.8425 126.214C85.6887 125.223 84.2143 124.293 83.4192 123.444C82.5688 124.43 80.9283 125.498 78.4927 126.631ZM76.5251 126.56H75.1211V118.83C74.6984 119.917 74.0694 121.03 73.224 122.164L72.2427 120.883C73.7372 118.992 74.6783 117.051 75.0557 115.064H72.6V113.712H75.1261V110.236H76.4647C76.8371 110.282 76.8572 110.424 76.5352 110.658V113.712H78.3618V115.064H76.5352V117.544C77.6573 118.347 78.4826 119.084 78.9909 119.745L77.9995 121.096C77.5265 120.436 77.0384 119.821 76.5251 119.252V126.56Z" fill="#DC1F26"/>
<path d="M98.3447 76.4755C98.0378 76.689 96.7999 75.9978 96.3218 74.7476C95.416 72.3692 92.291 70.0009 92.598 69.7875C92.9049 69.574 96.6086 72.8011 97.4239 73.965C98.234 75.1389 98.6416 76.2621 98.3447 76.4755ZM96.9206 72.3082C92.608 66.2605 89.2566 64.2073 87.6815 63.3891C86.1064 62.5658 85.1151 62.2253 85.1151 62.2253L81.7838 65.2491C81.7838 65.2491 83.1223 68.6084 86.7757 70.9614C90.4291 73.3144 96.5432 76.8008 98.4202 77.5123C99.4116 77.8883 100 79.1487 100 78.3966C99.9953 77.7155 99.9953 76.6076 96.9206 72.3082Z" fill="#DC1F26"/>
</g>
<defs>
<clipPath id="clip0_3_3708">
<rect width="100" height="134" fill="white"/>
</clipPath>
</defs>
</svg>
