<svg width="194" height="79" viewBox="0 0 194 79" fill="none" xmlns="http://www.w3.org/2000/svg">
<g clip-path="url(#clip0_3_3571)">
<path d="M194.321 0.208313H101.106V16.8236H194.321V0.208313Z" fill="white"/>
<path d="M194.321 33.3214H101.106V49.4606H194.321V33.3214Z" fill="#D32E27"/>
<path d="M194.321 16.8295H101.106V33.3217H194.321V16.8295Z" fill="#1E439B"/>
<path d="M101.041 0.209167H2.83664V49.4558H101.041V0.209167Z" fill="#DD2E26"/>
<path d="M15.815 4.85178L17.6102 10.1102H23.4284L18.7268 13.3573L20.5219 18.6104L15.815 15.3634L11.1134 18.6104L12.9085 13.3573L8.2016 10.1102H14.0198L15.815 4.85178Z" fill="#FDDD00"/>
<path d="M29.8125 2.85123L29.6308 4.60583L31.3245 5.31195L29.5133 5.68641L29.3316 7.45171L28.3913 5.92178L26.5854 6.30159L27.8196 4.98564L26.8793 3.46106L28.5783 4.16718L29.8125 2.85123Z" fill="#FDDD00"/>
<path d="M35.838 8.35594L34.9725 9.91261L36.2708 11.1751L34.4382 10.8755L33.578 12.4375L33.3055 10.6936L31.4837 10.3941L33.1453 9.6184L32.8781 7.86914L34.1711 9.1316L35.838 8.35594Z" fill="#FDDD00"/>
<path d="M33.9473 15.0268L34.5778 16.6851L36.437 16.6263L34.9678 17.7175L35.5982 19.3812L34.0595 18.3916L32.5956 19.4775L33.1085 17.771L31.5698 16.7814L33.4291 16.7226L33.9473 15.0268Z" fill="#FDDD00"/>
<path d="M29.7109 20.0817L29.6094 21.8523L31.3458 22.4835L29.5453 22.9436L29.4491 24.7089L28.434 23.2218L26.6335 23.6765L27.8089 22.307L26.7991 20.8199L28.5355 21.4565L29.7109 20.0817Z" fill="#FDDD00"/>
<path d="M2.66558 59.8915C2.66558 60.7046 2.85258 61.3358 3.23191 61.7531C3.60591 62.181 4.08675 62.3897 4.67445 62.3897C5.25147 62.3897 5.72697 62.181 6.10631 61.7638C6.4803 61.3412 6.66195 60.71 6.66195 59.8701C6.66195 59.0409 6.4803 58.4204 6.11699 58.0085C5.75368 57.6019 5.27284 57.3987 4.66911 57.3987C4.06538 57.3987 3.57919 57.6073 3.21589 58.0192C2.84724 58.4365 2.66558 59.057 2.66558 59.8915ZM1.16428 59.945C1.16428 59.2014 1.27647 58.5809 1.49553 58.0834C1.65581 57.7143 1.8802 57.3826 2.16871 57.0884C2.45187 56.7888 2.76175 56.5749 3.10369 56.4358C3.55248 56.2432 4.07607 56.1469 4.65842 56.1469C5.72163 56.1469 6.57647 56.4786 7.21759 57.1419C7.85338 57.8052 8.17394 58.7253 8.17394 59.9022C8.17394 61.0737 7.85872 61.9885 7.22294 62.6518C6.59249 63.3098 5.743 63.6414 4.67445 63.6414C3.60056 63.6414 2.75107 63.3098 2.11528 62.6518C1.47415 61.9992 1.16428 61.0951 1.16428 59.945Z" fill="black"/>
<path d="M10.8022 62.2987H12.2181C12.6722 62.2987 12.9927 62.272 13.1797 62.2292C13.3614 62.1864 13.5217 62.0847 13.6606 61.9243C13.7995 61.7638 13.8636 61.5712 13.8636 61.3412C13.8636 61.0042 13.7461 60.7688 13.5056 60.6083C13.2706 60.4585 12.8645 60.3783 12.2875 60.3783H10.8022V62.2987ZM9.33832 56.2806H14.7452V57.495H10.8022V59.1747H12.747C13.2919 59.1747 13.7407 59.2389 14.0933 59.3672C14.446 59.501 14.7505 59.7471 15.0016 60.1055C15.2527 60.4639 15.3756 60.8811 15.3756 61.3465C15.3756 61.8387 15.2527 62.2559 14.9963 62.609C14.7452 62.9513 14.4567 63.1921 14.1361 63.3258C13.8048 63.4488 13.3507 63.5184 12.747 63.5184H9.33832V56.2806Z" fill="black"/>
<path d="M16.5944 56.2815H18.0529V62.2996H20.1473V56.2815H21.6005V62.2996H23.759V56.2815H25.2175V62.2996H25.864V65.0973H24.6512V63.5192H16.5944V56.2815Z" fill="black"/>
<path d="M26.8576 63.5184V56.2806H32.2217V57.5003H28.3215V59.1051H31.9492V60.3248H28.3215V62.2987H32.3606V63.5184H26.8576Z" fill="black"/>
<path d="M38.2217 60.8544L39.6375 61.3037C39.4184 62.0901 39.0658 62.6839 38.5583 63.0637C38.0507 63.4435 37.4096 63.6361 36.6402 63.6361C35.6785 63.6361 34.8878 63.3044 34.2734 62.6464C33.659 61.9938 33.3438 61.0951 33.3438 59.9557C33.3438 58.7467 33.659 57.8159 34.2787 57.1472C34.8985 56.4839 35.7213 56.1469 36.731 56.1469C37.6126 56.1469 38.3339 56.409 38.8842 56.9279C39.2154 57.2382 39.4558 57.6822 39.6215 58.2653L38.1736 58.6076C38.0881 58.2332 37.9118 57.9336 37.6393 57.7143C37.3668 57.5003 37.0409 57.388 36.6509 57.388C36.1113 57.388 35.6785 57.5806 35.3419 57.9657C35.0107 58.3455 34.8397 58.9714 34.8397 59.838C34.8397 60.7527 35.0053 61.4054 35.3366 61.7905C35.6678 62.181 36.0953 62.3736 36.6188 62.3736C37.0035 62.3736 37.3401 62.2506 37.6233 62.0045C37.9011 61.7745 38.1041 61.3893 38.2217 60.8544Z" fill="black"/>
<path d="M42.2652 63.5184V57.5003H40.1227V56.2806H45.8662V57.5003H43.7291V63.5184H42.2652Z" fill="black"/>
<path d="M48.2724 60.3622V62.2934H49.6242C50.1531 62.2934 50.4843 62.2773 50.6286 62.2506C50.8476 62.2078 51.0186 62.1168 51.1575 61.9564C51.2964 61.8066 51.3659 61.6033 51.3659 61.3412C51.3659 61.1272 51.3125 60.9453 51.2056 60.7902C51.0987 60.6404 50.9545 60.5227 50.7515 60.4585C50.5538 60.3836 50.121 60.3515 49.4585 60.3515H48.2724V60.3622ZM48.2724 57.4789V59.1533H49.2288C49.8005 59.1533 50.1531 59.1426 50.292 59.1265C50.5431 59.0944 50.7354 59.0142 50.8744 58.8644C51.0186 58.7253 51.0934 58.5327 51.0934 58.3027C51.0934 58.078 51.0293 57.9015 50.9064 57.7571C50.7889 57.618 50.5965 57.5324 50.3561 57.5003C50.2119 57.4843 49.8005 57.4736 49.1113 57.4736H48.2724V57.4789ZM46.8139 56.2806H49.7043C50.276 56.2806 50.7034 56.302 50.9812 56.3502C51.2644 56.4037 51.5155 56.5 51.7399 56.6551C51.9589 56.8049 52.1459 57.0028 52.2955 57.2542C52.4398 57.511 52.5146 57.7945 52.5146 58.0994C52.5146 58.4365 52.4184 58.7521 52.2421 59.0356C52.0551 59.3191 51.8093 59.5331 51.4941 59.6775C51.9322 59.8006 52.2741 60.0199 52.5092 60.3248C52.7443 60.6404 52.8618 61.0042 52.8618 61.4214C52.8618 61.7531 52.7817 62.0687 52.6321 62.3843C52.4772 62.6946 52.2741 62.9407 52.007 63.1279C51.7399 63.3151 51.4193 63.4328 51.0293 63.4702C50.7835 63.497 50.1958 63.513 49.2662 63.5237H46.8139V56.2806Z" fill="black"/>
<path d="M55.0618 59.8915C55.0618 60.7046 55.2488 61.3358 55.6228 61.7531C56.0021 62.181 56.483 62.3897 57.0653 62.3897C57.6477 62.3897 58.1232 62.181 58.5025 61.7638C58.8712 61.3412 59.0582 60.71 59.0582 59.8701C59.0582 59.0409 58.8765 58.4204 58.5079 58.0085C58.1499 57.6019 57.6691 57.3987 57.06 57.3987C56.4616 57.3987 55.9754 57.6073 55.6121 58.0192C55.2435 58.4365 55.0618 59.057 55.0618 59.8915ZM53.5498 59.945C53.5498 59.2014 53.662 58.5809 53.8864 58.0834C54.0467 57.7143 54.2711 57.3826 54.5542 57.0884C54.8428 56.7888 55.1526 56.5749 55.4892 56.4358C55.9434 56.2432 56.4669 56.1469 57.0493 56.1469C58.1125 56.1469 58.9673 56.4786 59.6085 57.1419C60.2496 57.8052 60.5702 58.7253 60.5702 59.9022C60.5702 61.0737 60.2549 61.9885 59.6192 62.6518C58.9834 63.3098 58.1392 63.6414 57.0707 63.6414C55.9968 63.6414 55.1419 63.3098 54.5115 62.6518C53.8704 61.9992 53.5498 61.0951 53.5498 59.945Z" fill="black"/>
<path d="M65.9727 57.5005V59.56H66.7688C67.3458 59.56 67.7305 59.5173 67.9228 59.4477C68.1205 59.3675 68.2647 59.2498 68.3823 59.0893C68.4945 58.9342 68.5426 58.7469 68.5426 58.533C68.5426 58.2655 68.4624 58.0515 68.3128 57.8803C68.1579 57.7091 67.9655 57.6022 67.7305 57.554C67.5541 57.5219 67.2015 57.5059 66.6779 57.5059H65.9727V57.5005ZM64.5088 63.5186V56.2755H66.8489C67.7358 56.2755 68.3128 56.3076 68.5853 56.3878C68.9967 56.4948 69.3493 56.7249 69.6218 57.094C69.905 57.4577 70.0439 57.9285 70.0439 58.5062C70.0439 58.9502 69.9584 59.3247 69.7981 59.6296C69.6432 59.9292 69.4348 60.1699 69.189 60.3464C68.9379 60.5122 68.6868 60.6299 68.425 60.6834C68.0831 60.753 67.5755 60.7904 66.913 60.7904H65.962V63.524H64.5088V63.5186Z" fill="black"/>
<path d="M72.3189 59.8915C72.3189 60.7046 72.5112 61.3358 72.8852 61.7531C73.2645 62.181 73.7454 62.3897 74.3277 62.3897C74.9101 62.3897 75.3856 62.181 75.7649 61.7638C76.1336 61.3412 76.3206 60.71 76.3206 59.8701C76.3206 59.0409 76.1389 58.4204 75.7756 58.0085C75.4123 57.6019 74.9261 57.3987 74.3277 57.3987C73.7294 57.3987 73.2432 57.6073 72.8745 58.0192C72.5059 58.4311 72.3189 59.057 72.3189 59.8915ZM70.8176 59.945C70.8176 59.2014 70.9298 58.5809 71.1488 58.0834C71.3144 57.7143 71.5388 57.3826 71.822 57.0884C72.1105 56.7888 72.4204 56.5749 72.7623 56.4358C73.2111 56.2432 73.7347 56.1469 74.3171 56.1469C75.3803 56.1469 76.2351 56.4786 76.8762 57.1419C77.5174 57.8052 77.8379 58.7253 77.8379 59.9022C77.8379 61.0737 77.5174 61.9885 76.8869 62.6518C76.2511 63.3098 75.4016 63.6414 74.3384 63.6414C73.2645 63.6414 72.4097 63.3098 71.7793 62.6518C71.1328 61.9992 70.8176 61.0951 70.8176 59.945Z" fill="black"/>
<path d="M83.594 60.8544L85.0098 61.3037C84.7961 62.0901 84.4381 62.6839 83.9306 63.0637C83.423 63.4435 82.7819 63.6361 82.0125 63.6361C81.0455 63.6361 80.2601 63.3044 79.6457 62.6464C79.0313 61.9938 78.7161 61.0951 78.7161 59.9557C78.7161 58.7467 79.0313 57.8159 79.651 57.1472C80.2708 56.4839 81.0936 56.1469 82.1034 56.1469C82.9849 56.1469 83.7008 56.409 84.2565 56.9279C84.5824 57.2382 84.8281 57.6822 84.9938 58.2653L83.5512 58.6076C83.4604 58.2332 83.2841 57.9336 83.0116 57.7143C82.7391 57.5003 82.4132 57.388 82.0232 57.388C81.4836 57.388 81.0508 57.5806 80.7142 57.9657C80.3777 58.3455 80.2174 58.9714 80.2174 59.838C80.2174 60.7527 80.3777 61.4054 80.7089 61.7905C81.0402 62.181 81.4676 62.3736 81.9912 62.3736C82.3758 62.3736 82.7124 62.2506 82.9956 62.0045C83.2734 61.7745 83.4764 61.3893 83.594 60.8544Z" fill="black"/>
<path d="M90.8914 60.8544L92.3073 61.3037C92.0935 62.0901 91.7302 62.6839 91.2227 63.0637C90.7205 63.4435 90.0793 63.6361 89.3046 63.6361C88.3429 63.6361 87.5576 63.3044 86.9432 62.6464C86.3234 61.9938 86.0135 61.0951 86.0135 59.9557C86.0135 58.7467 86.3287 57.8159 86.9485 57.1472C87.5682 56.4839 88.391 56.1469 89.3955 56.1469C90.2824 56.1469 90.9983 56.409 91.5539 56.9279C91.8798 57.2382 92.1256 57.6822 92.2912 58.2653L90.8433 58.6076C90.7579 58.2332 90.5815 57.9336 90.3091 57.7143C90.0366 57.5003 89.7107 57.388 89.3153 57.388C88.781 57.388 88.3429 57.5806 88.0117 57.9657C87.6751 58.3455 87.5095 58.9714 87.5095 59.838C87.5095 60.7527 87.6751 61.4054 88.0064 61.7905C88.3376 62.181 88.765 62.3736 89.2886 62.3736C89.6733 62.3736 90.0099 62.2506 90.293 62.0045C90.5655 61.7745 90.7685 61.3893 90.8914 60.8544Z" fill="black"/>
<path d="M93.5778 56.2806H94.9455V61.0951L97.868 56.2806H99.3266V63.5184H97.9588V58.7895L95.0364 63.5184H93.5778V56.2806Z" fill="black"/>
<path d="M104.579 54.4788H105.258C105.215 54.9282 105.06 55.2759 104.787 55.5273C104.51 55.7841 104.157 55.9125 103.719 55.9125C103.281 55.9125 102.928 55.7841 102.65 55.5273C102.378 55.2759 102.223 54.9282 102.18 54.4788H102.859C102.88 54.7088 102.966 54.8854 103.105 55.0084C103.243 55.1314 103.446 55.1903 103.719 55.1903C103.986 55.1903 104.194 55.1261 104.333 55.0084C104.472 54.8907 104.558 54.7088 104.579 54.4788ZM100.834 56.2816H102.202V61.096L105.129 56.2816H106.583V63.5247H105.215V58.7904L102.292 63.5193H100.834V56.2816Z" fill="black"/>
<path d="M112.701 60.8553L114.117 61.3047C113.903 62.091 113.54 62.6848 113.037 63.0646C112.53 63.4444 111.889 63.637 111.119 63.637C110.158 63.637 109.367 63.3053 108.753 62.6474C108.138 61.9947 107.823 61.096 107.823 59.9566C107.823 58.7476 108.138 57.8168 108.758 57.1482C109.378 56.4848 110.2 56.1478 111.21 56.1478C112.092 56.1478 112.813 56.4099 113.363 56.9288C113.695 57.2391 113.935 57.6831 114.101 58.2662L112.653 58.6086C112.567 58.2341 112.391 57.9345 112.119 57.7152C111.846 57.5012 111.52 57.3889 111.13 57.3889C110.59 57.3889 110.158 57.5815 109.821 57.9666C109.49 58.3464 109.324 58.9723 109.324 59.8389C109.324 60.7537 109.485 61.4063 109.816 61.7914C110.147 62.182 110.574 62.3745 111.098 62.3745C111.483 62.3745 111.819 62.2515 112.102 62.0054C112.375 61.7754 112.578 61.3902 112.701 60.8553Z" fill="black"/>
<path d="M115.393 56.2819H116.851V59.3578C117.177 59.3257 117.396 59.2455 117.508 59.1064C117.626 58.9726 117.802 58.5982 118.043 57.983C118.347 57.202 118.652 56.7098 118.956 56.5226C119.261 56.3354 119.747 56.2337 120.42 56.2337C120.452 56.2337 120.527 56.2337 120.634 56.2284V57.309L120.425 57.3036C120.126 57.3036 119.907 57.3411 119.768 57.416C119.635 57.4962 119.517 57.6032 119.432 57.753C119.346 57.9028 119.218 58.2184 119.052 58.6891C118.962 58.9405 118.871 59.1492 118.764 59.315C118.657 59.4862 118.475 59.6467 118.214 59.7911C118.54 59.8874 118.801 60.0693 119.015 60.3474C119.229 60.631 119.458 61.0268 119.715 61.5404L120.703 63.525H118.988L118.128 61.6527C118.112 61.6206 118.085 61.5671 118.037 61.4976C118.027 61.4708 117.962 61.3638 117.856 61.1552C117.669 60.8075 117.519 60.5828 117.396 60.4972C117.279 60.4009 117.092 60.3635 116.846 60.3528V63.5303H115.387V56.2819H115.393Z" fill="black"/>
<path d="M122.739 59.8924C122.739 60.7055 122.932 61.3367 123.306 61.754C123.68 62.182 124.161 62.3906 124.748 62.3906C125.325 62.3906 125.806 62.182 126.186 61.7647C126.554 61.3421 126.741 60.7109 126.741 59.871C126.741 59.0419 126.559 58.4213 126.191 58.0094C125.833 57.6029 125.347 57.3996 124.743 57.3996C124.139 57.3996 123.658 57.6082 123.29 58.0201C122.921 58.432 122.739 59.0579 122.739 59.8924ZM121.233 59.9459C121.233 59.2023 121.345 58.5818 121.564 58.0843C121.73 57.7152 121.954 57.3835 122.237 57.0893C122.526 56.7898 122.836 56.5758 123.172 56.4367C123.626 56.2441 124.145 56.1478 124.732 56.1478C125.795 56.1478 126.65 56.4795 127.291 57.1428C127.933 57.8061 128.253 58.7262 128.253 59.9031C128.253 61.0746 127.933 61.9894 127.302 62.6527C126.666 63.3107 125.817 63.6423 124.754 63.6423C123.68 63.6423 122.825 63.3107 122.189 62.6527C121.553 62.0001 121.233 61.096 121.233 59.9459Z" fill="black"/>
<path d="M131.944 60.1964H129.219V61.5872H131.944V60.1964Z" fill="black"/>
<path d="M132.777 56.281H134.231V59.3569C134.557 59.3248 134.781 59.2445 134.893 59.1055C135.005 58.9664 135.187 58.5973 135.427 57.9821C135.732 57.2011 136.031 56.7089 136.341 56.5217C136.646 56.3345 137.132 56.2328 137.805 56.2328C137.837 56.2328 137.906 56.2328 138.013 56.2275V57.3081L137.805 57.3027C137.506 57.3027 137.287 57.3402 137.153 57.415C137.014 57.4953 136.902 57.6023 136.816 57.7521C136.731 57.9018 136.608 58.2175 136.442 58.6882C136.352 58.9396 136.255 59.1483 136.149 59.3141C136.047 59.4853 135.865 59.6457 135.598 59.7902C135.924 59.8865 136.191 60.0684 136.405 60.3465C136.613 60.63 136.849 61.0259 137.1 61.5394L138.088 63.5241H136.373L135.513 61.6518C135.502 61.6197 135.47 61.5662 135.427 61.4966C135.411 61.4699 135.347 61.3629 135.246 61.1543C135.059 60.8066 134.909 60.5819 134.786 60.4963C134.669 60.4 134.476 60.3626 134.231 60.3519V63.5294H132.777V56.281Z" fill="black"/>
<path d="M138.933 56.2806H140.301V61.0951L143.228 56.2806H144.682V63.5184H143.314V58.7895L140.391 63.5184H138.933V56.2806Z" fill="black"/>
<path d="M147.796 63.5184V57.5003H145.653V56.2806H151.397V57.5003H149.26V63.5184H147.796Z" fill="black"/>
<path d="M155.533 60.6567L154.534 57.9659L153.556 60.6567H155.533ZM158.22 63.5186H156.633L156.003 61.8656H153.112L152.519 63.5186H150.97L153.786 56.2755H155.324L158.22 63.5186Z" fill="black"/>
<path d="M162.765 54.4788H163.439C163.401 54.9282 163.241 55.2759 162.969 55.5273C162.691 55.7841 162.338 55.9125 161.9 55.9125C161.467 55.9125 161.109 55.7841 160.837 55.5273C160.559 55.2759 160.404 54.9282 160.361 54.4788H161.04C161.061 54.7088 161.147 54.8854 161.286 55.0084C161.424 55.1314 161.627 55.1903 161.9 55.1903C162.172 55.1903 162.375 55.1261 162.514 55.0084C162.659 54.8854 162.739 54.7088 162.765 54.4788ZM159.015 56.2816H160.383V61.096L163.316 56.2816H164.764V63.5247H163.401V58.7904L160.473 63.5193H159.015V56.2816Z" fill="black"/>
<path d="M170.875 60.8553L172.296 61.3047C172.077 62.091 171.719 62.6848 171.211 63.0646C170.709 63.4444 170.068 63.637 169.293 63.637C168.332 63.637 167.546 63.3053 166.927 62.6474C166.312 61.9947 166.002 61.096 166.002 59.9566C166.002 58.7476 166.312 57.8168 166.932 57.1482C167.552 56.4848 168.374 56.1478 169.384 56.1478C170.266 56.1478 170.987 56.4099 171.537 56.9288C171.869 57.2391 172.109 57.6831 172.28 58.2662L170.832 58.6086C170.747 58.2341 170.565 57.9345 170.293 57.7152C170.02 57.5012 169.694 57.3889 169.304 57.3889C168.764 57.3889 168.332 57.5815 168 57.9666C167.664 58.3464 167.498 58.9723 167.498 59.8389C167.498 60.7537 167.664 61.4063 167.995 61.7914C168.326 62.182 168.748 62.3745 169.272 62.3745C169.657 62.3745 169.993 62.2515 170.276 62.0054C170.56 61.7594 170.757 61.3902 170.875 60.8553Z" fill="black"/>
<path d="M173.568 56.281H175.027V59.3569C175.353 59.3248 175.577 59.2446 175.689 59.1055C175.802 58.9664 175.983 58.5973 176.224 57.9821C176.528 57.2011 176.827 56.709 177.137 56.5218C177.437 56.3345 177.923 56.2329 178.596 56.2329C178.633 56.2329 178.703 56.2329 178.81 56.2275V57.3081L178.601 57.3028C178.302 57.3028 178.083 57.3402 177.949 57.4151C177.81 57.4953 177.698 57.6023 177.613 57.7521C177.527 57.9019 177.404 58.2175 177.239 58.6883C177.143 58.9397 177.052 59.1483 176.945 59.3141C176.843 59.4853 176.656 59.6458 176.395 59.7902C176.721 59.8865 176.988 60.0684 177.201 60.3466C177.41 60.6301 177.645 61.026 177.896 61.5395L178.884 63.5241H177.169L176.309 61.6465C176.293 61.6144 176.266 61.5609 176.224 61.4914C176.208 61.4646 176.144 61.3576 176.042 61.149C175.855 60.8013 175.705 60.5766 175.583 60.491C175.46 60.3947 175.273 60.3573 175.027 60.3466V63.5241H173.568V56.281Z" fill="black"/>
<path d="M180.92 59.8924C180.92 60.7055 181.107 61.3367 181.481 61.754C181.861 62.182 182.342 62.3906 182.924 62.3906C183.506 62.3906 183.982 62.182 184.361 61.7647C184.73 61.3421 184.917 60.7109 184.917 59.871C184.917 59.0472 184.735 58.4213 184.372 58.0094C184.009 57.6029 183.528 57.4049 182.924 57.4049C182.326 57.4049 181.839 57.6082 181.476 58.0201C181.102 58.4427 180.92 59.0579 180.92 59.8924ZM179.414 59.9459C179.414 59.2023 179.526 58.5872 179.75 58.0843C179.911 57.7205 180.135 57.3835 180.418 57.0893C180.707 56.7951 181.017 56.5758 181.359 56.4367C181.807 56.2441 182.331 56.1478 182.913 56.1478C183.977 56.1478 184.831 56.4848 185.473 57.1428C186.108 57.8061 186.429 58.7262 186.429 59.9031C186.429 61.0746 186.114 61.9894 185.478 62.6527C184.842 63.3107 183.998 63.6423 182.929 63.6423C181.855 63.6423 181.001 63.3107 180.37 62.6527C179.734 62.0001 179.414 61.096 179.414 59.9459Z" fill="black"/>
<path d="M191.339 54.4788H192.012C191.974 54.9282 191.814 55.2759 191.542 55.5273C191.264 55.7894 190.911 55.9125 190.473 55.9125C190.04 55.9125 189.682 55.7894 189.41 55.5273C189.132 55.2759 188.977 54.9282 188.94 54.4788H189.613C189.634 54.7142 189.72 54.8907 189.859 55.0084C189.998 55.1314 190.201 55.1903 190.473 55.1903C190.746 55.1903 190.949 55.1314 191.088 55.0084C191.232 54.8907 191.312 54.7142 191.339 54.4788ZM187.583 56.2816H188.95V61.096L191.878 56.2816H193.331V63.5247H191.969V58.7904L189.041 63.5193H187.583V56.2816Z" fill="black"/>
<path d="M76.9341 71.399C76.9341 73.5976 76.7364 75.2024 76.3411 76.2028H79.0872V71.399H76.9341ZM75.545 70.1847H80.5458V76.2028H81.1816V78.9952H79.9634V77.4117H75.4114V78.9952H74.1933V76.2028H74.8077C75.1069 75.5876 75.3046 74.8654 75.3954 74.0523C75.4969 73.2392 75.5343 72.2014 75.5343 70.9497V70.1847H75.545Z" fill="black"/>
<path d="M83.6175 71.4095V73.4637H84.4136C84.9852 73.4637 85.3753 73.4262 85.5676 73.3514C85.7599 73.2765 85.9095 73.1588 86.0217 73.0036C86.1339 72.8378 86.1874 72.6506 86.1874 72.442C86.1874 72.1745 86.1072 71.9605 85.9576 71.784C85.8027 71.6181 85.605 71.5112 85.3699 71.463C85.199 71.4309 84.8463 71.4149 84.3227 71.4149H83.6175V71.4095ZM82.1589 77.4222V70.1845H84.4991C85.386 70.1845 85.963 70.2166 86.2355 70.2915C86.6468 70.4038 86.9941 70.6339 87.2719 71.003C87.5498 71.3667 87.6887 71.8375 87.6887 72.4152C87.6887 72.8539 87.6085 73.2283 87.4483 73.5332C87.288 73.8382 87.0849 74.0789 86.8338 74.2447C86.5881 74.4212 86.3316 74.5389 86.0752 74.5871C85.7279 74.662 85.2257 74.6941 84.5632 74.6941H83.6122V77.4276H82.1589V77.4222Z" fill="black"/>
<path d="M88.0303 70.1845H89.6652L91.3481 73.9344L92.7907 70.1845H94.308L91.8717 75.6783C91.6046 76.2721 91.3321 76.7268 91.0596 77.0371C90.7818 77.3527 90.4292 77.5078 89.9911 77.5078C89.5583 77.5078 89.2217 77.4757 88.9813 77.4222V76.3363C89.1897 76.347 89.3713 76.3577 89.5423 76.3577C89.8789 76.3577 90.1193 76.2935 90.2689 76.1705C90.4131 76.0528 90.5574 75.7853 90.691 75.3788L88.0303 70.1845Z" fill="black"/>
<path d="M99.588 70.1851V73.261C99.8337 73.2396 100.015 73.1486 100.144 72.9882C100.272 72.8277 100.443 72.4586 100.662 71.8862C100.95 71.1266 101.244 70.6505 101.549 70.4418C101.848 70.2332 102.345 70.1316 103.045 70.1316C103.077 70.1316 103.146 70.1262 103.253 70.1262V71.2068L103.045 71.2015C102.746 71.2015 102.526 71.2442 102.393 71.3138C102.254 71.394 102.142 71.501 102.056 71.6508C101.965 71.8006 101.843 72.1109 101.677 72.5869C101.586 72.833 101.49 73.0417 101.388 73.2075C101.276 73.3733 101.095 73.5391 100.833 73.6889C101.159 73.7852 101.426 73.9724 101.64 74.2453C101.848 74.5288 102.083 74.9246 102.334 75.4328L103.323 77.4121H101.613L100.742 75.5452C100.731 75.5184 100.705 75.4649 100.657 75.3954C100.63 75.3419 100.571 75.2296 100.48 75.053C100.299 74.7107 100.144 74.4913 100.026 74.395C99.9085 74.2988 99.7589 74.2506 99.588 74.2506V77.4175H98.1614V74.2506C97.9905 74.2506 97.8462 74.2988 97.7287 74.3843C97.6058 74.4806 97.4509 74.7053 97.2746 75.053C97.1677 75.251 97.1089 75.3686 97.0929 75.3954C97.0608 75.4435 97.0341 75.4917 97.0074 75.5452L96.1366 77.4121H94.4269L95.4099 75.4328C95.6557 74.9407 95.8854 74.5502 96.0992 74.2667C96.3182 73.9724 96.5907 73.7852 96.9219 73.6943C96.6548 73.5445 96.4732 73.3787 96.3663 73.2235C96.2594 73.0523 96.1633 72.8491 96.0724 72.5923C95.9122 72.1269 95.7839 71.822 95.6985 71.6669C95.6183 71.5117 95.5061 71.394 95.3619 71.3245C95.2283 71.2496 94.9986 71.2122 94.678 71.2122C94.6406 71.2122 94.5765 71.2121 94.4963 71.2175V70.1316C94.6032 70.1316 94.6726 70.1369 94.7047 70.1369C95.4153 70.1369 95.9175 70.2439 96.2167 70.4472C96.5106 70.6612 96.7991 71.1373 97.0876 71.8915C97.3066 72.4639 97.4829 72.8437 97.6058 72.9989C97.7287 73.154 97.9157 73.2449 98.1614 73.2663V70.1851H99.588Z" fill="black"/>
<path d="M105.656 76.2026H107.077C107.537 76.2026 107.857 76.1812 108.039 76.1384C108.22 76.0903 108.381 75.994 108.52 75.8335C108.659 75.673 108.723 75.4804 108.723 75.2504C108.723 74.9134 108.61 74.6727 108.37 74.5175C108.13 74.3624 107.724 74.2875 107.147 74.2875H105.661V76.2026H105.656ZM104.203 70.1845H109.604V71.3988H105.661V73.0732H107.617C108.156 73.0732 108.605 73.1427 108.958 73.2711C109.31 73.3995 109.615 73.6456 109.866 74.004C110.117 74.3624 110.24 74.7743 110.24 75.2504C110.24 75.7425 110.117 76.1598 109.866 76.5075C109.61 76.8552 109.321 77.0959 109 77.2243C108.68 77.3527 108.215 77.4116 107.617 77.4116H104.203V70.1845Z" fill="black"/>
<path d="M119.804 70.1845V77.4222H118.34V70.1845H119.804ZM112.933 76.2026H114.354C114.814 76.2026 115.129 76.1812 115.305 76.1384C115.487 76.0902 115.642 75.994 115.786 75.8335C115.93 75.673 115.995 75.4804 115.995 75.2557C115.995 74.9348 115.882 74.6941 115.658 74.5282C115.428 74.3731 115.017 74.2875 114.424 74.2875H112.944V76.2026H112.933ZM111.469 70.1845H112.928V73.0732H114.878C115.391 73.0732 115.834 73.1481 116.203 73.2872C116.566 73.4209 116.876 73.6723 117.127 74.0361C117.373 74.3945 117.49 74.8117 117.49 75.2771C117.49 75.7639 117.368 76.1919 117.111 76.5396C116.855 76.8927 116.566 77.128 116.256 77.2457C115.946 77.3634 115.482 77.4116 114.878 77.4116H111.464V70.1845H111.469Z" fill="black"/>
<path d="M194.192 0H101.106V0.417254H194.192V0Z" fill="#E6E7E8"/>
</g>
<defs>
<clipPath id="clip0_3_3571">
<rect width="194" height="79" fill="white"/>
</clipPath>
</defs>
</svg>
